%TF.GenerationSoftware,KiCad,Pcbnew,(5.1.9)-1*%
%TF.CreationDate,2021-03-01T21:33:36-08:00*%
%TF.ProjectId,numpad,6e756d70-6164-42e6-9b69-6361645f7063,rev?*%
%TF.SameCoordinates,Original*%
%TF.FileFunction,Legend,Bot*%
%TF.FilePolarity,Positive*%
%FSLAX46Y46*%
G04 Gerber Fmt 4.6, Leading zero omitted, Abs format (unit mm)*
G04 Created by KiCad (PCBNEW (5.1.9)-1) date 2021-03-01 21:33:36*
%MOMM*%
%LPD*%
G01*
G04 APERTURE LIST*
%ADD10C,0.300000*%
%ADD11C,0.010000*%
%ADD12C,0.150000*%
G04 APERTURE END LIST*
D10*
X247530464Y-53484821D02*
X247530464Y-54484821D01*
X248173321Y-53484821D02*
X248173321Y-54270535D01*
X248101892Y-54413392D01*
X247959035Y-54484821D01*
X247744750Y-54484821D01*
X247601892Y-54413392D01*
X247530464Y-54341964D01*
X245744750Y-52913392D02*
X247030464Y-54841964D01*
X244601892Y-54484821D02*
X244601892Y-53699107D01*
X244673321Y-53556250D01*
X244816178Y-53484821D01*
X245101892Y-53484821D01*
X245244750Y-53556250D01*
X244601892Y-54413392D02*
X244744750Y-54484821D01*
X245101892Y-54484821D01*
X245244750Y-54413392D01*
X245316178Y-54270535D01*
X245316178Y-54127678D01*
X245244750Y-53984821D01*
X245101892Y-53913392D01*
X244744750Y-53913392D01*
X244601892Y-53841964D01*
X243887607Y-53484821D02*
X243887607Y-54484821D01*
X243887607Y-53627678D02*
X243816178Y-53556250D01*
X243673321Y-53484821D01*
X243459035Y-53484821D01*
X243316178Y-53556250D01*
X243244750Y-53699107D01*
X243244750Y-54484821D01*
X242673321Y-53484821D02*
X242316178Y-54484821D01*
X241959035Y-53484821D01*
X241530464Y-52984821D02*
X240601892Y-52984821D01*
X241101892Y-53556250D01*
X240887607Y-53556250D01*
X240744750Y-53627678D01*
X240673321Y-53699107D01*
X240601892Y-53841964D01*
X240601892Y-54199107D01*
X240673321Y-54341964D01*
X240744750Y-54413392D01*
X240887607Y-54484821D01*
X241316178Y-54484821D01*
X241459035Y-54413392D01*
X241530464Y-54341964D01*
X239316178Y-54484821D02*
X239316178Y-52984821D01*
X239316178Y-54413392D02*
X239459035Y-54484821D01*
X239744750Y-54484821D01*
X239887607Y-54413392D01*
X239959035Y-54341964D01*
X240030464Y-54199107D01*
X240030464Y-53770535D01*
X239959035Y-53627678D01*
X239887607Y-53556250D01*
X239744750Y-53484821D01*
X239459035Y-53484821D01*
X239316178Y-53556250D01*
X251673321Y-59584821D02*
X251673321Y-58584821D01*
X251673321Y-58870535D02*
X251601892Y-58727678D01*
X251530464Y-58656250D01*
X251387607Y-58584821D01*
X251244750Y-58584821D01*
X250530464Y-59584821D02*
X250673321Y-59513392D01*
X250744750Y-59441964D01*
X250816178Y-59299107D01*
X250816178Y-58870535D01*
X250744750Y-58727678D01*
X250673321Y-58656250D01*
X250530464Y-58584821D01*
X250316178Y-58584821D01*
X250173321Y-58656250D01*
X250101892Y-58727678D01*
X250030464Y-58870535D01*
X250030464Y-59299107D01*
X250101892Y-59441964D01*
X250173321Y-59513392D01*
X250316178Y-59584821D01*
X250530464Y-59584821D01*
X249601892Y-58584821D02*
X249030464Y-58584821D01*
X249387607Y-58084821D02*
X249387607Y-59370535D01*
X249316178Y-59513392D01*
X249173321Y-59584821D01*
X249030464Y-59584821D01*
X247887607Y-59584821D02*
X247887607Y-58799107D01*
X247959035Y-58656250D01*
X248101892Y-58584821D01*
X248387607Y-58584821D01*
X248530464Y-58656250D01*
X247887607Y-59513392D02*
X248030464Y-59584821D01*
X248387607Y-59584821D01*
X248530464Y-59513392D01*
X248601892Y-59370535D01*
X248601892Y-59227678D01*
X248530464Y-59084821D01*
X248387607Y-59013392D01*
X248030464Y-59013392D01*
X247887607Y-58941964D01*
X247173321Y-59584821D02*
X247173321Y-58584821D01*
X247173321Y-58870535D02*
X247101892Y-58727678D01*
X247030464Y-58656250D01*
X246887607Y-58584821D01*
X246744750Y-58584821D01*
X246387607Y-58584821D02*
X246030464Y-59584821D01*
X245673321Y-58584821D02*
X246030464Y-59584821D01*
X246173321Y-59941964D01*
X246244750Y-60013392D01*
X246387607Y-60084821D01*
X245101892Y-58584821D02*
X245101892Y-60084821D01*
X245101892Y-58656250D02*
X244959035Y-58584821D01*
X244673321Y-58584821D01*
X244530464Y-58656250D01*
X244459035Y-58727678D01*
X244387607Y-58870535D01*
X244387607Y-59299107D01*
X244459035Y-59441964D01*
X244530464Y-59513392D01*
X244673321Y-59584821D01*
X244959035Y-59584821D01*
X245101892Y-59513392D01*
X243101892Y-59584821D02*
X243101892Y-58799107D01*
X243173321Y-58656250D01*
X243316178Y-58584821D01*
X243601892Y-58584821D01*
X243744750Y-58656250D01*
X243101892Y-59513392D02*
X243244750Y-59584821D01*
X243601892Y-59584821D01*
X243744750Y-59513392D01*
X243816178Y-59370535D01*
X243816178Y-59227678D01*
X243744750Y-59084821D01*
X243601892Y-59013392D01*
X243244750Y-59013392D01*
X243101892Y-58941964D01*
X241744750Y-59584821D02*
X241744750Y-58084821D01*
X241744750Y-59513392D02*
X241887607Y-59584821D01*
X242173321Y-59584821D01*
X242316178Y-59513392D01*
X242387607Y-59441964D01*
X242459035Y-59299107D01*
X242459035Y-58870535D01*
X242387607Y-58727678D01*
X242316178Y-58656250D01*
X242173321Y-58584821D01*
X241887607Y-58584821D01*
X241744750Y-58656250D01*
X239887607Y-59584821D02*
X239887607Y-58584821D01*
X239887607Y-58870535D02*
X239816178Y-58727678D01*
X239744750Y-58656250D01*
X239601892Y-58584821D01*
X239459035Y-58584821D01*
X238387607Y-59513392D02*
X238530464Y-59584821D01*
X238816178Y-59584821D01*
X238959035Y-59513392D01*
X239030464Y-59370535D01*
X239030464Y-58799107D01*
X238959035Y-58656250D01*
X238816178Y-58584821D01*
X238530464Y-58584821D01*
X238387607Y-58656250D01*
X238316178Y-58799107D01*
X238316178Y-58941964D01*
X239030464Y-59084821D01*
X237816178Y-58584821D02*
X237459035Y-59584821D01*
X237101892Y-58584821D01*
X236244750Y-58084821D02*
X236101892Y-58084821D01*
X235959035Y-58156250D01*
X235887607Y-58227678D01*
X235816178Y-58370535D01*
X235744750Y-58656250D01*
X235744750Y-59013392D01*
X235816178Y-59299107D01*
X235887607Y-59441964D01*
X235959035Y-59513392D01*
X236101892Y-59584821D01*
X236244750Y-59584821D01*
X236387607Y-59513392D01*
X236459035Y-59441964D01*
X236530464Y-59299107D01*
X236601892Y-59013392D01*
X236601892Y-58656250D01*
X236530464Y-58370535D01*
X236459035Y-58227678D01*
X236387607Y-58156250D01*
X236244750Y-58084821D01*
D11*
%TO.C,G\u002A\u002A\u002A*%
G36*
X223014430Y-86261424D02*
G01*
X221426382Y-86261455D01*
X219921719Y-86261516D01*
X218498186Y-86261615D01*
X217153530Y-86261760D01*
X215885500Y-86261959D01*
X214691843Y-86262220D01*
X213570304Y-86262550D01*
X212518633Y-86262958D01*
X211534575Y-86263451D01*
X210615877Y-86264038D01*
X209760288Y-86264726D01*
X208965554Y-86265523D01*
X208229423Y-86266437D01*
X207549641Y-86267475D01*
X206923956Y-86268647D01*
X206350114Y-86269959D01*
X205825864Y-86271420D01*
X205348952Y-86273038D01*
X204917125Y-86274819D01*
X204528131Y-86276773D01*
X204179716Y-86278907D01*
X203869628Y-86281229D01*
X203595615Y-86283748D01*
X203355422Y-86286469D01*
X203146798Y-86289403D01*
X202967489Y-86292556D01*
X202815243Y-86295937D01*
X202687807Y-86299553D01*
X202582927Y-86303412D01*
X202498352Y-86307523D01*
X202431828Y-86311893D01*
X202381103Y-86316529D01*
X202343923Y-86321441D01*
X202318036Y-86326635D01*
X202301189Y-86332120D01*
X202291129Y-86337903D01*
X202288904Y-86339888D01*
X202283020Y-86348195D01*
X202277437Y-86362541D01*
X202272148Y-86385180D01*
X202267143Y-86418364D01*
X202262416Y-86464347D01*
X202257959Y-86525381D01*
X202253764Y-86603719D01*
X202249822Y-86701615D01*
X202246126Y-86821319D01*
X202242668Y-86965087D01*
X202239440Y-87135170D01*
X202236435Y-87333821D01*
X202233643Y-87563293D01*
X202231059Y-87825839D01*
X202228672Y-88123712D01*
X202226477Y-88459165D01*
X202224464Y-88834450D01*
X202222626Y-89251820D01*
X202220955Y-89713529D01*
X202219443Y-90221828D01*
X202218082Y-90778971D01*
X202216865Y-91387211D01*
X202215783Y-92048800D01*
X202214828Y-92765992D01*
X202213994Y-93541039D01*
X202213270Y-94376194D01*
X202212651Y-95273709D01*
X202212128Y-96235838D01*
X202211692Y-97264834D01*
X202211337Y-98362949D01*
X202211054Y-99532437D01*
X202210836Y-100775549D01*
X202210674Y-102094539D01*
X202210560Y-103491660D01*
X202210488Y-104969165D01*
X202210448Y-106529305D01*
X202210433Y-108174335D01*
X202210432Y-108739097D01*
X202210440Y-110412781D01*
X202210471Y-112000829D01*
X202210532Y-113505493D01*
X202210631Y-114929026D01*
X202210776Y-116273681D01*
X202210975Y-117541711D01*
X202211236Y-118735369D01*
X202211566Y-119856908D01*
X202211974Y-120908580D01*
X202212467Y-121892638D01*
X202213054Y-122811335D01*
X202213742Y-123666924D01*
X202214539Y-124461658D01*
X202215453Y-125197790D01*
X202216492Y-125877572D01*
X202217663Y-126503257D01*
X202218975Y-127077099D01*
X202220436Y-127601349D01*
X202222054Y-128078261D01*
X202223835Y-128510088D01*
X202225789Y-128899083D01*
X202227923Y-129247497D01*
X202230246Y-129557585D01*
X202232764Y-129831599D01*
X202235486Y-130071791D01*
X202238419Y-130280415D01*
X202241572Y-130459724D01*
X202244953Y-130611970D01*
X202248569Y-130739406D01*
X202252428Y-130844286D01*
X202256539Y-130928861D01*
X202260909Y-130995384D01*
X202265545Y-131046110D01*
X202270457Y-131083289D01*
X202275651Y-131109176D01*
X202281136Y-131126023D01*
X202286919Y-131136083D01*
X202288904Y-131138307D01*
X202297233Y-131144199D01*
X202311633Y-131149791D01*
X202334360Y-131155093D01*
X202367671Y-131160112D01*
X202413819Y-131164859D01*
X202475060Y-131169341D01*
X202553651Y-131173567D01*
X202651846Y-131177547D01*
X202771901Y-131181288D01*
X202916071Y-131184800D01*
X203086612Y-131188091D01*
X203285780Y-131191170D01*
X203515829Y-131194045D01*
X203779015Y-131196727D01*
X204077594Y-131199223D01*
X204413821Y-131201542D01*
X204789951Y-131203692D01*
X205208241Y-131205683D01*
X205670945Y-131207524D01*
X206180318Y-131209223D01*
X206738618Y-131210788D01*
X207348098Y-131212229D01*
X208011014Y-131213555D01*
X208729622Y-131214774D01*
X209506177Y-131215894D01*
X210342935Y-131216925D01*
X211242151Y-131217876D01*
X212206080Y-131218754D01*
X213236979Y-131219570D01*
X214337102Y-131220331D01*
X215508705Y-131221047D01*
X216754043Y-131221726D01*
X218075372Y-131222376D01*
X219474948Y-131223008D01*
X220955025Y-131223628D01*
X222517859Y-131224247D01*
X224165706Y-131224873D01*
X224634752Y-131225048D01*
X226231641Y-131225562D01*
X227784058Y-131225905D01*
X229290168Y-131226078D01*
X230748140Y-131226085D01*
X232156140Y-131225928D01*
X233512336Y-131225609D01*
X234814895Y-131225132D01*
X236061984Y-131224498D01*
X237251770Y-131223711D01*
X238382421Y-131222773D01*
X239452104Y-131221686D01*
X240458985Y-131220454D01*
X241401233Y-131219079D01*
X242277014Y-131217563D01*
X243084495Y-131215909D01*
X243821844Y-131214120D01*
X244487228Y-131212198D01*
X245078814Y-131210146D01*
X245594769Y-131207966D01*
X246033261Y-131205662D01*
X246392457Y-131203235D01*
X246670523Y-131200689D01*
X246865628Y-131198025D01*
X246975937Y-131195247D01*
X247001642Y-131193269D01*
X247092385Y-131122833D01*
X247144591Y-131038981D01*
X247148231Y-130985264D01*
X247151671Y-130844044D01*
X247154910Y-130615704D01*
X247157949Y-130300632D01*
X247160786Y-129899211D01*
X247163421Y-129411827D01*
X247165853Y-128838866D01*
X247168082Y-128180712D01*
X247170107Y-127437750D01*
X247171928Y-126610366D01*
X247173544Y-125698946D01*
X247174954Y-124703874D01*
X247176158Y-123625535D01*
X247177156Y-122464315D01*
X247177946Y-121220599D01*
X247178529Y-119894772D01*
X247178903Y-118487219D01*
X247179069Y-116998326D01*
X247179025Y-115428478D01*
X247178772Y-113778059D01*
X247178308Y-112047456D01*
X247177632Y-110237053D01*
X247176910Y-108671550D01*
X247176067Y-107000432D01*
X247175244Y-105414948D01*
X247174432Y-103912840D01*
X247173622Y-102491853D01*
X247172806Y-101149731D01*
X247171973Y-99884217D01*
X247171116Y-98693056D01*
X247170224Y-97573991D01*
X247169290Y-96524766D01*
X247168303Y-95543124D01*
X247167255Y-94626811D01*
X247166137Y-93773570D01*
X247164940Y-92981144D01*
X247163654Y-92247277D01*
X247162271Y-91569713D01*
X247160781Y-90946197D01*
X247159176Y-90374472D01*
X247157446Y-89852281D01*
X247155583Y-89377369D01*
X247153577Y-88947479D01*
X247151420Y-88560356D01*
X247149101Y-88213743D01*
X247146613Y-87905384D01*
X247143946Y-87633023D01*
X247141091Y-87394404D01*
X247138039Y-87187270D01*
X247134782Y-87009366D01*
X247131309Y-86858435D01*
X247127612Y-86732221D01*
X247125592Y-86678890D01*
X246748321Y-86678890D01*
X246748321Y-130799305D01*
X202627906Y-130799305D01*
X202627906Y-86678890D01*
X246748321Y-86678890D01*
X247125592Y-86678890D01*
X247123681Y-86628469D01*
X247119509Y-86544921D01*
X247115085Y-86479322D01*
X247110401Y-86429415D01*
X247105448Y-86392945D01*
X247100216Y-86367656D01*
X247094697Y-86351290D01*
X247088882Y-86341593D01*
X247087323Y-86339888D01*
X247079016Y-86334004D01*
X247064670Y-86328421D01*
X247042030Y-86323131D01*
X247008845Y-86318127D01*
X246962862Y-86313400D01*
X246901826Y-86308943D01*
X246823487Y-86304747D01*
X246725590Y-86300806D01*
X246605884Y-86297110D01*
X246462115Y-86293652D01*
X246292030Y-86290424D01*
X246093377Y-86287418D01*
X245863902Y-86284627D01*
X245601354Y-86282042D01*
X245303478Y-86279656D01*
X244968023Y-86277461D01*
X244592735Y-86275448D01*
X244175361Y-86273610D01*
X243713649Y-86271939D01*
X243205346Y-86270427D01*
X242648200Y-86269066D01*
X242039956Y-86267849D01*
X241378362Y-86266767D01*
X240661167Y-86265812D01*
X239886115Y-86264978D01*
X239050956Y-86264254D01*
X238153436Y-86263635D01*
X237191301Y-86263112D01*
X236162301Y-86262676D01*
X235064180Y-86262321D01*
X233894687Y-86262038D01*
X232651570Y-86261820D01*
X231332574Y-86261658D01*
X229935447Y-86261544D01*
X228457936Y-86261472D01*
X226897789Y-86261432D01*
X225252753Y-86261417D01*
X224688114Y-86261416D01*
X223014430Y-86261424D01*
G37*
X223014430Y-86261424D02*
X221426382Y-86261455D01*
X219921719Y-86261516D01*
X218498186Y-86261615D01*
X217153530Y-86261760D01*
X215885500Y-86261959D01*
X214691843Y-86262220D01*
X213570304Y-86262550D01*
X212518633Y-86262958D01*
X211534575Y-86263451D01*
X210615877Y-86264038D01*
X209760288Y-86264726D01*
X208965554Y-86265523D01*
X208229423Y-86266437D01*
X207549641Y-86267475D01*
X206923956Y-86268647D01*
X206350114Y-86269959D01*
X205825864Y-86271420D01*
X205348952Y-86273038D01*
X204917125Y-86274819D01*
X204528131Y-86276773D01*
X204179716Y-86278907D01*
X203869628Y-86281229D01*
X203595615Y-86283748D01*
X203355422Y-86286469D01*
X203146798Y-86289403D01*
X202967489Y-86292556D01*
X202815243Y-86295937D01*
X202687807Y-86299553D01*
X202582927Y-86303412D01*
X202498352Y-86307523D01*
X202431828Y-86311893D01*
X202381103Y-86316529D01*
X202343923Y-86321441D01*
X202318036Y-86326635D01*
X202301189Y-86332120D01*
X202291129Y-86337903D01*
X202288904Y-86339888D01*
X202283020Y-86348195D01*
X202277437Y-86362541D01*
X202272148Y-86385180D01*
X202267143Y-86418364D01*
X202262416Y-86464347D01*
X202257959Y-86525381D01*
X202253764Y-86603719D01*
X202249822Y-86701615D01*
X202246126Y-86821319D01*
X202242668Y-86965087D01*
X202239440Y-87135170D01*
X202236435Y-87333821D01*
X202233643Y-87563293D01*
X202231059Y-87825839D01*
X202228672Y-88123712D01*
X202226477Y-88459165D01*
X202224464Y-88834450D01*
X202222626Y-89251820D01*
X202220955Y-89713529D01*
X202219443Y-90221828D01*
X202218082Y-90778971D01*
X202216865Y-91387211D01*
X202215783Y-92048800D01*
X202214828Y-92765992D01*
X202213994Y-93541039D01*
X202213270Y-94376194D01*
X202212651Y-95273709D01*
X202212128Y-96235838D01*
X202211692Y-97264834D01*
X202211337Y-98362949D01*
X202211054Y-99532437D01*
X202210836Y-100775549D01*
X202210674Y-102094539D01*
X202210560Y-103491660D01*
X202210488Y-104969165D01*
X202210448Y-106529305D01*
X202210433Y-108174335D01*
X202210432Y-108739097D01*
X202210440Y-110412781D01*
X202210471Y-112000829D01*
X202210532Y-113505493D01*
X202210631Y-114929026D01*
X202210776Y-116273681D01*
X202210975Y-117541711D01*
X202211236Y-118735369D01*
X202211566Y-119856908D01*
X202211974Y-120908580D01*
X202212467Y-121892638D01*
X202213054Y-122811335D01*
X202213742Y-123666924D01*
X202214539Y-124461658D01*
X202215453Y-125197790D01*
X202216492Y-125877572D01*
X202217663Y-126503257D01*
X202218975Y-127077099D01*
X202220436Y-127601349D01*
X202222054Y-128078261D01*
X202223835Y-128510088D01*
X202225789Y-128899083D01*
X202227923Y-129247497D01*
X202230246Y-129557585D01*
X202232764Y-129831599D01*
X202235486Y-130071791D01*
X202238419Y-130280415D01*
X202241572Y-130459724D01*
X202244953Y-130611970D01*
X202248569Y-130739406D01*
X202252428Y-130844286D01*
X202256539Y-130928861D01*
X202260909Y-130995384D01*
X202265545Y-131046110D01*
X202270457Y-131083289D01*
X202275651Y-131109176D01*
X202281136Y-131126023D01*
X202286919Y-131136083D01*
X202288904Y-131138307D01*
X202297233Y-131144199D01*
X202311633Y-131149791D01*
X202334360Y-131155093D01*
X202367671Y-131160112D01*
X202413819Y-131164859D01*
X202475060Y-131169341D01*
X202553651Y-131173567D01*
X202651846Y-131177547D01*
X202771901Y-131181288D01*
X202916071Y-131184800D01*
X203086612Y-131188091D01*
X203285780Y-131191170D01*
X203515829Y-131194045D01*
X203779015Y-131196727D01*
X204077594Y-131199223D01*
X204413821Y-131201542D01*
X204789951Y-131203692D01*
X205208241Y-131205683D01*
X205670945Y-131207524D01*
X206180318Y-131209223D01*
X206738618Y-131210788D01*
X207348098Y-131212229D01*
X208011014Y-131213555D01*
X208729622Y-131214774D01*
X209506177Y-131215894D01*
X210342935Y-131216925D01*
X211242151Y-131217876D01*
X212206080Y-131218754D01*
X213236979Y-131219570D01*
X214337102Y-131220331D01*
X215508705Y-131221047D01*
X216754043Y-131221726D01*
X218075372Y-131222376D01*
X219474948Y-131223008D01*
X220955025Y-131223628D01*
X222517859Y-131224247D01*
X224165706Y-131224873D01*
X224634752Y-131225048D01*
X226231641Y-131225562D01*
X227784058Y-131225905D01*
X229290168Y-131226078D01*
X230748140Y-131226085D01*
X232156140Y-131225928D01*
X233512336Y-131225609D01*
X234814895Y-131225132D01*
X236061984Y-131224498D01*
X237251770Y-131223711D01*
X238382421Y-131222773D01*
X239452104Y-131221686D01*
X240458985Y-131220454D01*
X241401233Y-131219079D01*
X242277014Y-131217563D01*
X243084495Y-131215909D01*
X243821844Y-131214120D01*
X244487228Y-131212198D01*
X245078814Y-131210146D01*
X245594769Y-131207966D01*
X246033261Y-131205662D01*
X246392457Y-131203235D01*
X246670523Y-131200689D01*
X246865628Y-131198025D01*
X246975937Y-131195247D01*
X247001642Y-131193269D01*
X247092385Y-131122833D01*
X247144591Y-131038981D01*
X247148231Y-130985264D01*
X247151671Y-130844044D01*
X247154910Y-130615704D01*
X247157949Y-130300632D01*
X247160786Y-129899211D01*
X247163421Y-129411827D01*
X247165853Y-128838866D01*
X247168082Y-128180712D01*
X247170107Y-127437750D01*
X247171928Y-126610366D01*
X247173544Y-125698946D01*
X247174954Y-124703874D01*
X247176158Y-123625535D01*
X247177156Y-122464315D01*
X247177946Y-121220599D01*
X247178529Y-119894772D01*
X247178903Y-118487219D01*
X247179069Y-116998326D01*
X247179025Y-115428478D01*
X247178772Y-113778059D01*
X247178308Y-112047456D01*
X247177632Y-110237053D01*
X247176910Y-108671550D01*
X247176067Y-107000432D01*
X247175244Y-105414948D01*
X247174432Y-103912840D01*
X247173622Y-102491853D01*
X247172806Y-101149731D01*
X247171973Y-99884217D01*
X247171116Y-98693056D01*
X247170224Y-97573991D01*
X247169290Y-96524766D01*
X247168303Y-95543124D01*
X247167255Y-94626811D01*
X247166137Y-93773570D01*
X247164940Y-92981144D01*
X247163654Y-92247277D01*
X247162271Y-91569713D01*
X247160781Y-90946197D01*
X247159176Y-90374472D01*
X247157446Y-89852281D01*
X247155583Y-89377369D01*
X247153577Y-88947479D01*
X247151420Y-88560356D01*
X247149101Y-88213743D01*
X247146613Y-87905384D01*
X247143946Y-87633023D01*
X247141091Y-87394404D01*
X247138039Y-87187270D01*
X247134782Y-87009366D01*
X247131309Y-86858435D01*
X247127612Y-86732221D01*
X247125592Y-86678890D01*
X246748321Y-86678890D01*
X246748321Y-130799305D01*
X202627906Y-130799305D01*
X202627906Y-86678890D01*
X246748321Y-86678890D01*
X247125592Y-86678890D01*
X247123681Y-86628469D01*
X247119509Y-86544921D01*
X247115085Y-86479322D01*
X247110401Y-86429415D01*
X247105448Y-86392945D01*
X247100216Y-86367656D01*
X247094697Y-86351290D01*
X247088882Y-86341593D01*
X247087323Y-86339888D01*
X247079016Y-86334004D01*
X247064670Y-86328421D01*
X247042030Y-86323131D01*
X247008845Y-86318127D01*
X246962862Y-86313400D01*
X246901826Y-86308943D01*
X246823487Y-86304747D01*
X246725590Y-86300806D01*
X246605884Y-86297110D01*
X246462115Y-86293652D01*
X246292030Y-86290424D01*
X246093377Y-86287418D01*
X245863902Y-86284627D01*
X245601354Y-86282042D01*
X245303478Y-86279656D01*
X244968023Y-86277461D01*
X244592735Y-86275448D01*
X244175361Y-86273610D01*
X243713649Y-86271939D01*
X243205346Y-86270427D01*
X242648200Y-86269066D01*
X242039956Y-86267849D01*
X241378362Y-86266767D01*
X240661167Y-86265812D01*
X239886115Y-86264978D01*
X239050956Y-86264254D01*
X238153436Y-86263635D01*
X237191301Y-86263112D01*
X236162301Y-86262676D01*
X235064180Y-86262321D01*
X233894687Y-86262038D01*
X232651570Y-86261820D01*
X231332574Y-86261658D01*
X229935447Y-86261544D01*
X228457936Y-86261472D01*
X226897789Y-86261432D01*
X225252753Y-86261417D01*
X224688114Y-86261416D01*
X223014430Y-86261424D01*
G36*
X224535596Y-91685218D02*
G01*
X224519762Y-91698729D01*
X224490951Y-91743336D01*
X224421156Y-91859139D01*
X224313267Y-92041179D01*
X224170175Y-92284495D01*
X223994769Y-92584130D01*
X223789940Y-92935123D01*
X223558578Y-93332515D01*
X223303572Y-93771347D01*
X223027813Y-94246659D01*
X222734191Y-94753492D01*
X222425596Y-95286887D01*
X222104919Y-95841884D01*
X222061309Y-95917414D01*
X219656951Y-100082004D01*
X214798622Y-100082004D01*
X213999303Y-100082222D01*
X213284103Y-100082903D01*
X212649255Y-100084088D01*
X212090988Y-100085816D01*
X211605535Y-100088129D01*
X211189126Y-100091067D01*
X210837993Y-100094671D01*
X210548367Y-100098980D01*
X210316480Y-100104035D01*
X210138563Y-100109877D01*
X210010846Y-100116547D01*
X209929562Y-100124084D01*
X209890941Y-100132529D01*
X209887560Y-100134738D01*
X209844510Y-100219406D01*
X209834826Y-100285581D01*
X209856413Y-100336161D01*
X209919278Y-100457710D01*
X210020578Y-100645187D01*
X210157468Y-100893547D01*
X210327104Y-101197749D01*
X210526643Y-101552750D01*
X210753242Y-101953507D01*
X211004055Y-102394979D01*
X211276240Y-102872122D01*
X211566953Y-103379894D01*
X211873349Y-103913252D01*
X212192585Y-104467154D01*
X212214447Y-104505021D01*
X212534569Y-105059832D01*
X212842398Y-105594085D01*
X213135067Y-106102764D01*
X213409710Y-106580855D01*
X213663461Y-107023343D01*
X213893453Y-107425213D01*
X214096820Y-107781451D01*
X214270695Y-108087041D01*
X214412213Y-108336970D01*
X214518507Y-108526222D01*
X214586711Y-108649782D01*
X214613958Y-108702636D01*
X214614256Y-108703553D01*
X214596847Y-108758385D01*
X214536964Y-108884119D01*
X214437123Y-109076158D01*
X214299842Y-109329903D01*
X214127636Y-109640757D01*
X213923024Y-110004122D01*
X213688522Y-110415400D01*
X213458838Y-110814338D01*
X213215570Y-111237187D01*
X212993139Y-111627860D01*
X212794896Y-111980252D01*
X212624188Y-112288256D01*
X212484364Y-112545766D01*
X212378772Y-112746676D01*
X212310762Y-112884880D01*
X212283683Y-112954271D01*
X212283342Y-112957783D01*
X212304589Y-113009631D01*
X212365112Y-113129091D01*
X212460129Y-113307722D01*
X212584860Y-113537085D01*
X212734522Y-113808742D01*
X212904335Y-114114253D01*
X213089517Y-114445181D01*
X213285287Y-114793085D01*
X213486864Y-115149527D01*
X213689466Y-115506068D01*
X213888312Y-115854270D01*
X214078621Y-116185692D01*
X214255612Y-116491896D01*
X214414503Y-116764444D01*
X214550513Y-116994896D01*
X214658861Y-117174814D01*
X214734765Y-117295758D01*
X214768171Y-117343482D01*
X214843322Y-117380060D01*
X214962335Y-117387773D01*
X214966544Y-117387427D01*
X215001065Y-117383264D01*
X215033905Y-117373047D01*
X215069089Y-117350588D01*
X215110642Y-117309696D01*
X215162592Y-117244183D01*
X215228963Y-117147860D01*
X215313781Y-117014536D01*
X215421072Y-116838023D01*
X215554862Y-116612131D01*
X215719176Y-116330671D01*
X215918041Y-115987454D01*
X216155482Y-115576290D01*
X216241201Y-115427740D01*
X216501874Y-114977076D01*
X216722614Y-114598085D01*
X216906509Y-114285800D01*
X217056648Y-114035254D01*
X217176119Y-113841482D01*
X217268013Y-113699516D01*
X217335417Y-113604389D01*
X217381421Y-113551135D01*
X217409113Y-113534788D01*
X217416396Y-113538120D01*
X217443805Y-113581936D01*
X217512698Y-113697817D01*
X217620697Y-113881664D01*
X217765427Y-114129380D01*
X217944513Y-114436866D01*
X218155578Y-114800023D01*
X218396245Y-115214753D01*
X218664141Y-115676957D01*
X218956887Y-116182536D01*
X219272108Y-116727394D01*
X219607429Y-117307430D01*
X219960473Y-117918546D01*
X220328864Y-118556645D01*
X220710227Y-119217627D01*
X220952280Y-119637367D01*
X221340739Y-120310872D01*
X221717868Y-120964259D01*
X222081278Y-121593409D01*
X222428581Y-122194207D01*
X222757388Y-122762536D01*
X223065310Y-123294278D01*
X223349958Y-123785318D01*
X223608944Y-124231538D01*
X223839878Y-124628821D01*
X224040372Y-124973050D01*
X224208037Y-125260110D01*
X224340485Y-125485882D01*
X224435326Y-125646250D01*
X224490171Y-125737098D01*
X224503002Y-125756658D01*
X224603044Y-125817070D01*
X224729745Y-125830535D01*
X224839334Y-125794113D01*
X224855597Y-125780334D01*
X224884285Y-125735842D01*
X224953947Y-125620146D01*
X225061697Y-125438205D01*
X225204645Y-125194977D01*
X225379905Y-124895419D01*
X225584588Y-124544491D01*
X225815807Y-124147149D01*
X226070674Y-123708352D01*
X226346300Y-123233058D01*
X226639798Y-122726225D01*
X226948281Y-122192811D01*
X227268859Y-121637775D01*
X227312797Y-121561649D01*
X229716770Y-117396191D01*
X234576352Y-117396191D01*
X235375777Y-117395973D01*
X236091083Y-117395292D01*
X236726037Y-117394108D01*
X237284407Y-117392380D01*
X237769963Y-117390067D01*
X238186471Y-117387130D01*
X238537701Y-117383528D01*
X238827421Y-117379220D01*
X239059398Y-117374167D01*
X239237402Y-117368326D01*
X239365200Y-117361659D01*
X239446561Y-117354124D01*
X239485253Y-117345681D01*
X239488667Y-117343457D01*
X239531810Y-117258693D01*
X239541401Y-117193186D01*
X239519813Y-117142770D01*
X239456932Y-117021344D01*
X239422002Y-116956745D01*
X238890913Y-116956745D01*
X234448164Y-116956745D01*
X233831430Y-116956477D01*
X233240079Y-116955699D01*
X232679962Y-116954447D01*
X232156929Y-116952757D01*
X231676832Y-116950666D01*
X231245523Y-116948210D01*
X230868852Y-116945425D01*
X230552671Y-116942348D01*
X230302832Y-116939016D01*
X230125184Y-116935464D01*
X230025581Y-116931730D01*
X230005415Y-116929094D01*
X230026903Y-116887974D01*
X230089408Y-116775880D01*
X230189993Y-116597945D01*
X230325716Y-116359303D01*
X230493641Y-116065087D01*
X230690828Y-115720430D01*
X230914338Y-115330467D01*
X231161232Y-114900331D01*
X231428572Y-114435155D01*
X231713419Y-113940072D01*
X232012833Y-113420217D01*
X232208646Y-113080522D01*
X232579925Y-112437151D01*
X232909963Y-111866431D01*
X233200999Y-111364628D01*
X233455269Y-110928012D01*
X233675013Y-110552850D01*
X233862469Y-110235410D01*
X234019873Y-109971962D01*
X234149466Y-109758772D01*
X234253483Y-109592110D01*
X234334165Y-109468244D01*
X234393748Y-109383442D01*
X234434471Y-109333971D01*
X234458571Y-109316102D01*
X234465177Y-109317947D01*
X234494320Y-109363635D01*
X234564189Y-109480185D01*
X234671685Y-109662273D01*
X234813713Y-109904576D01*
X234987176Y-110201770D01*
X235188976Y-110548531D01*
X235416018Y-110939536D01*
X235665204Y-111369462D01*
X235933437Y-111832985D01*
X236217622Y-112324781D01*
X236514661Y-112839527D01*
X236620843Y-113023700D01*
X236922650Y-113547279D01*
X237213221Y-114051312D01*
X237489393Y-114530316D01*
X237748003Y-114978807D01*
X237985887Y-115391301D01*
X238199885Y-115762317D01*
X238386831Y-116086369D01*
X238543564Y-116357975D01*
X238666921Y-116571651D01*
X238753739Y-116721914D01*
X238800855Y-116803280D01*
X238807062Y-116813924D01*
X238890913Y-116956745D01*
X239422002Y-116956745D01*
X239355581Y-116833912D01*
X239218583Y-116585478D01*
X239048763Y-116281048D01*
X238848944Y-115925625D01*
X238621949Y-115524215D01*
X238370601Y-115081821D01*
X238097724Y-114603448D01*
X237806143Y-114094100D01*
X237498679Y-113558783D01*
X237178157Y-113002500D01*
X237128248Y-112916037D01*
X234715096Y-108736425D01*
X235896067Y-106690461D01*
X236120629Y-106300730D01*
X236332198Y-105932214D01*
X236526622Y-105592237D01*
X236699748Y-105288126D01*
X236847422Y-105027205D01*
X236965492Y-104816801D01*
X237049805Y-104664237D01*
X237096208Y-104576841D01*
X237103819Y-104560119D01*
X237099855Y-104539530D01*
X236545293Y-104539530D01*
X236522326Y-104582922D01*
X236457656Y-104698392D01*
X236353467Y-104882153D01*
X236211946Y-105130420D01*
X236035277Y-105439405D01*
X235825645Y-105805321D01*
X235585237Y-106224383D01*
X235316237Y-106692803D01*
X235020831Y-107206795D01*
X234701204Y-107762572D01*
X234359541Y-108356347D01*
X233998028Y-108984335D01*
X233618850Y-109642747D01*
X233224192Y-110327798D01*
X232816241Y-111035701D01*
X232397180Y-111762670D01*
X231969196Y-112504916D01*
X231534473Y-113258655D01*
X231095198Y-114020100D01*
X230653555Y-114785463D01*
X230211730Y-115550958D01*
X229771908Y-116312798D01*
X229336274Y-117067197D01*
X228907014Y-117810369D01*
X228486313Y-118538525D01*
X228076357Y-119247881D01*
X227679330Y-119934649D01*
X227297419Y-120595042D01*
X226932808Y-121225275D01*
X226587683Y-121821559D01*
X226264229Y-122380110D01*
X225964631Y-122897139D01*
X225691075Y-123368860D01*
X225445747Y-123791488D01*
X225230831Y-124161234D01*
X225048512Y-124474313D01*
X224900977Y-124726937D01*
X224790410Y-124915321D01*
X224718997Y-125035677D01*
X224688923Y-125084219D01*
X224688114Y-125085072D01*
X224662471Y-125048200D01*
X224597390Y-124942437D01*
X224497186Y-124775115D01*
X224366175Y-124553568D01*
X224208673Y-124285127D01*
X224028998Y-123977126D01*
X223831464Y-123636897D01*
X223620387Y-123271772D01*
X223602027Y-123239941D01*
X222537913Y-121394725D01*
X224973735Y-117174337D01*
X224358529Y-117174337D01*
X224337152Y-117225673D01*
X224275876Y-117345273D01*
X224178981Y-117525424D01*
X224050746Y-117758412D01*
X223895451Y-118036523D01*
X223717377Y-118352044D01*
X223520804Y-118697260D01*
X223310011Y-119064457D01*
X223303857Y-119075134D01*
X223051149Y-119512290D01*
X222838288Y-119877593D01*
X222662241Y-120175909D01*
X222519975Y-120412102D01*
X222408458Y-120591039D01*
X222324655Y-120717585D01*
X222265534Y-120796607D01*
X222228063Y-120832969D01*
X222209207Y-120831537D01*
X222209100Y-120831345D01*
X222181949Y-120783762D01*
X222113849Y-120665267D01*
X222007797Y-120481060D01*
X221866794Y-120236341D01*
X221693839Y-119936310D01*
X221491929Y-119586166D01*
X221264063Y-119191111D01*
X221013242Y-118756343D01*
X220742463Y-118287063D01*
X220454725Y-117788472D01*
X220153028Y-117265768D01*
X219950510Y-116914939D01*
X219641570Y-116379361D01*
X219344999Y-115864416D01*
X219063767Y-115375306D01*
X218800846Y-114917236D01*
X218559208Y-114495411D01*
X218341823Y-114115033D01*
X218151664Y-113781308D01*
X217991702Y-113499439D01*
X217864909Y-113274630D01*
X217774255Y-113112085D01*
X217722712Y-113017008D01*
X217711582Y-112993822D01*
X217729383Y-112944899D01*
X217785967Y-112829365D01*
X217876222Y-112656286D01*
X217995036Y-112434730D01*
X218137299Y-112173765D01*
X218297899Y-111882457D01*
X218471724Y-111569876D01*
X218653664Y-111245088D01*
X218838607Y-110917162D01*
X219021442Y-110595164D01*
X219197057Y-110288162D01*
X219360341Y-110005224D01*
X219506184Y-109755417D01*
X219629472Y-109547810D01*
X219725096Y-109391469D01*
X219787944Y-109295463D01*
X219811748Y-109268070D01*
X219837878Y-109304887D01*
X219903987Y-109411947D01*
X220006554Y-109583126D01*
X220142057Y-109812300D01*
X220306972Y-110093342D01*
X220497778Y-110420129D01*
X220710953Y-110786536D01*
X220942974Y-111186439D01*
X221190319Y-111613712D01*
X221449466Y-112062230D01*
X221716893Y-112525870D01*
X221989077Y-112998506D01*
X222262496Y-113474014D01*
X222533628Y-113946268D01*
X222798950Y-114409145D01*
X223054942Y-114856519D01*
X223298079Y-115282266D01*
X223524840Y-115680262D01*
X223731703Y-116044380D01*
X223915146Y-116368497D01*
X224071646Y-116646488D01*
X224197681Y-116872229D01*
X224289729Y-117039594D01*
X224344267Y-117142458D01*
X224358529Y-117174337D01*
X224973735Y-117174337D01*
X226285160Y-114902119D01*
X226995356Y-113671605D01*
X227662939Y-112514935D01*
X228289236Y-111429833D01*
X228875573Y-110414026D01*
X229423279Y-109465238D01*
X229843188Y-108737931D01*
X229232851Y-108737931D01*
X229211447Y-108783074D01*
X229149681Y-108897798D01*
X229051073Y-109075974D01*
X228919146Y-109311476D01*
X228757420Y-109598175D01*
X228569417Y-109929941D01*
X228358658Y-110300648D01*
X228128665Y-110704168D01*
X227882957Y-111134370D01*
X227625058Y-111585129D01*
X227358487Y-112050315D01*
X227086767Y-112523800D01*
X226813419Y-112999457D01*
X226541963Y-113471156D01*
X226275922Y-113932770D01*
X226018816Y-114378170D01*
X225774167Y-114801229D01*
X225545496Y-115195818D01*
X225336324Y-115555808D01*
X225150173Y-115875073D01*
X224990564Y-116147483D01*
X224861017Y-116366910D01*
X224765056Y-116527226D01*
X224706199Y-116622303D01*
X224688114Y-116647287D01*
X224663600Y-116610122D01*
X224598161Y-116501815D01*
X224494726Y-116327390D01*
X224356222Y-116091872D01*
X224185577Y-115800286D01*
X223985720Y-115457658D01*
X223759578Y-115069011D01*
X223510079Y-114639371D01*
X223240151Y-114173762D01*
X222952723Y-113677210D01*
X222650722Y-113154739D01*
X222404562Y-112728351D01*
X222092976Y-112187676D01*
X221794091Y-111667733D01*
X221510817Y-111173659D01*
X221246066Y-110710588D01*
X221002747Y-110283655D01*
X220783772Y-109897994D01*
X220592051Y-109558741D01*
X220430494Y-109271029D01*
X220302012Y-109039994D01*
X220209517Y-108870771D01*
X220155917Y-108768494D01*
X220142983Y-108738564D01*
X220164342Y-108693168D01*
X220226074Y-108578220D01*
X220324655Y-108399847D01*
X220456564Y-108164177D01*
X220618280Y-107877338D01*
X220806280Y-107545457D01*
X221017042Y-107174663D01*
X221247045Y-106771082D01*
X221492767Y-106340843D01*
X221750686Y-105890073D01*
X222017281Y-105424901D01*
X222289028Y-104951453D01*
X222562407Y-104475858D01*
X222833896Y-104004243D01*
X223099973Y-103542736D01*
X223357116Y-103097464D01*
X223601803Y-102674556D01*
X223830513Y-102280139D01*
X224039723Y-101920341D01*
X224225912Y-101601290D01*
X224385557Y-101329113D01*
X224515138Y-101109938D01*
X224611132Y-100949892D01*
X224670018Y-100855104D01*
X224688114Y-100830370D01*
X224714093Y-100867533D01*
X224780054Y-100974936D01*
X224882475Y-101146451D01*
X225017833Y-101375952D01*
X225182608Y-101657310D01*
X225373277Y-101984398D01*
X225586319Y-102351089D01*
X225818212Y-102751255D01*
X226065435Y-103178768D01*
X226324465Y-103627501D01*
X226591782Y-104091326D01*
X226863863Y-104564117D01*
X227137186Y-105039745D01*
X227408231Y-105512082D01*
X227673474Y-105975002D01*
X227929396Y-106422377D01*
X228172473Y-106848079D01*
X228399185Y-107245981D01*
X228606009Y-107609955D01*
X228789424Y-107933874D01*
X228945908Y-108211609D01*
X229071940Y-108437035D01*
X229163998Y-108604023D01*
X229218559Y-108706445D01*
X229232851Y-108737931D01*
X229843188Y-108737931D01*
X229933679Y-108581197D01*
X230408102Y-107759629D01*
X230847873Y-106998257D01*
X231254320Y-106294810D01*
X231628770Y-105647012D01*
X231972550Y-105052590D01*
X232280651Y-104520218D01*
X231675311Y-104520218D01*
X231654060Y-104567527D01*
X231593815Y-104681582D01*
X231499840Y-104853196D01*
X231377398Y-105073181D01*
X231231752Y-105332350D01*
X231068164Y-105621516D01*
X230891898Y-105931491D01*
X230708217Y-106253087D01*
X230522383Y-106577119D01*
X230339660Y-106894397D01*
X230165312Y-107195735D01*
X230004600Y-107471946D01*
X229862788Y-107713841D01*
X229745139Y-107912235D01*
X229656916Y-108057938D01*
X229603381Y-108141764D01*
X229592108Y-108156746D01*
X229574306Y-108149815D01*
X229537551Y-108107464D01*
X229479835Y-108026339D01*
X229399151Y-107903081D01*
X229293490Y-107734335D01*
X229160843Y-107516744D01*
X228999204Y-107246952D01*
X228806563Y-106921601D01*
X228580912Y-106537335D01*
X228320244Y-106090798D01*
X228022550Y-105578633D01*
X227685822Y-104997483D01*
X227308051Y-104343992D01*
X227224908Y-104200008D01*
X226908873Y-103652989D01*
X226604571Y-103126985D01*
X226314949Y-102627052D01*
X226042952Y-102158243D01*
X225791528Y-101725614D01*
X225563623Y-101334220D01*
X225362183Y-100989116D01*
X225190155Y-100695356D01*
X225050485Y-100457995D01*
X224946119Y-100282089D01*
X224880005Y-100172692D01*
X224855579Y-100135214D01*
X224759549Y-100090577D01*
X224635094Y-100087627D01*
X224531088Y-100126228D01*
X224519713Y-100136149D01*
X224492864Y-100178866D01*
X224424134Y-100294223D01*
X224315552Y-100478721D01*
X224169145Y-100728865D01*
X223986943Y-101041159D01*
X223770974Y-101412106D01*
X223523265Y-101838209D01*
X223245845Y-102315973D01*
X222940743Y-102841901D01*
X222609985Y-103412496D01*
X222255602Y-104024263D01*
X221879621Y-104673704D01*
X221484070Y-105357324D01*
X221070978Y-106071626D01*
X220642372Y-106813114D01*
X220200282Y-107578291D01*
X219746735Y-108363660D01*
X219713337Y-108421508D01*
X219153578Y-109390792D01*
X218636103Y-110286287D01*
X218159471Y-111110448D01*
X217722239Y-111865726D01*
X217322968Y-112554574D01*
X216960216Y-113179445D01*
X216632540Y-113742791D01*
X216338500Y-114247066D01*
X216076655Y-114694721D01*
X215845563Y-115088210D01*
X215643783Y-115429984D01*
X215469873Y-115722498D01*
X215322393Y-115968203D01*
X215199900Y-116169552D01*
X215100953Y-116328997D01*
X215024112Y-116448992D01*
X214967934Y-116531989D01*
X214930978Y-116580441D01*
X214911804Y-116596801D01*
X214909454Y-116595996D01*
X214877566Y-116547335D01*
X214806518Y-116430235D01*
X214700882Y-116252493D01*
X214565230Y-116021907D01*
X214404134Y-115746275D01*
X214222168Y-115433394D01*
X214023903Y-115091060D01*
X213834592Y-114762981D01*
X213591260Y-114339638D01*
X213389146Y-113985634D01*
X213224891Y-113694563D01*
X213095134Y-113460022D01*
X212996513Y-113275605D01*
X212925668Y-113134906D01*
X212879239Y-113031522D01*
X212853864Y-112959046D01*
X212846182Y-112911074D01*
X212850181Y-112886880D01*
X212875825Y-112839105D01*
X212943060Y-112719501D01*
X213049696Y-112531857D01*
X213193545Y-112279965D01*
X213372417Y-111967613D01*
X213584122Y-111598592D01*
X213826473Y-111176691D01*
X214097279Y-110705700D01*
X214394352Y-110189410D01*
X214715503Y-109631609D01*
X215058541Y-109036088D01*
X215421280Y-108406637D01*
X215801528Y-107747045D01*
X216197097Y-107061102D01*
X216605798Y-106352598D01*
X217025442Y-105625323D01*
X217453839Y-104883067D01*
X217888801Y-104129620D01*
X218328138Y-103368771D01*
X218769661Y-102604311D01*
X219211182Y-101840028D01*
X219650510Y-101079714D01*
X219961974Y-100540810D01*
X219360876Y-100540810D01*
X219342138Y-100580787D01*
X219282261Y-100691709D01*
X219184154Y-100868466D01*
X219050725Y-101105947D01*
X218884882Y-101399042D01*
X218689536Y-101742642D01*
X218467594Y-102131636D01*
X218221966Y-102560915D01*
X217955560Y-103025369D01*
X217671285Y-103519887D01*
X217372049Y-104039360D01*
X217171127Y-104387590D01*
X216840260Y-104959633D01*
X216527250Y-105498760D01*
X216234599Y-106000757D01*
X215964808Y-106461409D01*
X215720379Y-106876500D01*
X215503813Y-107241817D01*
X215317611Y-107553145D01*
X215164275Y-107806269D01*
X215046307Y-107996974D01*
X214966206Y-108121046D01*
X214926476Y-108174271D01*
X214922831Y-108175822D01*
X214895867Y-108133093D01*
X214828019Y-108019395D01*
X214722297Y-107839900D01*
X214581711Y-107599782D01*
X214409268Y-107304215D01*
X214207981Y-106958374D01*
X213980856Y-106567431D01*
X213730906Y-106136561D01*
X213461137Y-105670937D01*
X213174561Y-105175733D01*
X212874187Y-104656123D01*
X212691735Y-104340240D01*
X210499405Y-100543423D01*
X214920249Y-100532225D01*
X215535923Y-100530859D01*
X216126538Y-100529924D01*
X216686196Y-100529410D01*
X217208995Y-100529304D01*
X217689034Y-100529597D01*
X218120413Y-100530275D01*
X218497230Y-100531328D01*
X218813586Y-100532745D01*
X219063579Y-100534513D01*
X219241309Y-100536622D01*
X219340874Y-100539060D01*
X219360876Y-100540810D01*
X219961974Y-100540810D01*
X220085457Y-100327157D01*
X220513834Y-99586148D01*
X220933452Y-98860477D01*
X221342121Y-98153933D01*
X221737652Y-97470306D01*
X222117856Y-96813386D01*
X222480545Y-96186963D01*
X222823528Y-95594827D01*
X223144618Y-95040767D01*
X223441623Y-94528574D01*
X223712357Y-94062037D01*
X223954629Y-93644946D01*
X224166250Y-93281092D01*
X224345032Y-92974262D01*
X224488784Y-92728249D01*
X224595318Y-92546841D01*
X224662445Y-92433828D01*
X224687976Y-92393001D01*
X224688114Y-92392921D01*
X224712982Y-92430239D01*
X224778713Y-92538870D01*
X224882462Y-92713880D01*
X225021384Y-92950330D01*
X225192635Y-93243284D01*
X225393371Y-93587805D01*
X225620747Y-93978957D01*
X225871920Y-94411803D01*
X226144044Y-94881405D01*
X226434275Y-95382827D01*
X226739769Y-95911133D01*
X227057681Y-96461384D01*
X227385168Y-97028645D01*
X227719385Y-97607979D01*
X228057487Y-98194449D01*
X228396630Y-98783118D01*
X228733969Y-99369049D01*
X229066661Y-99947306D01*
X229391861Y-100512951D01*
X229706724Y-101061048D01*
X230008407Y-101586660D01*
X230294064Y-102084850D01*
X230560852Y-102550681D01*
X230805926Y-102979217D01*
X231026442Y-103365521D01*
X231219555Y-103704656D01*
X231382421Y-103991685D01*
X231512196Y-104221671D01*
X231606035Y-104389677D01*
X231661094Y-104490768D01*
X231675311Y-104520218D01*
X232280651Y-104520218D01*
X232286988Y-104509269D01*
X232573409Y-104014775D01*
X232833141Y-103566835D01*
X233067512Y-103163173D01*
X233277847Y-102801515D01*
X233465475Y-102479589D01*
X233631722Y-102195118D01*
X233777914Y-101945830D01*
X233905381Y-101729451D01*
X234015447Y-101543705D01*
X234109440Y-101386319D01*
X234188688Y-101255019D01*
X234254517Y-101147530D01*
X234308255Y-101061578D01*
X234351227Y-100994890D01*
X234384762Y-100945191D01*
X234410187Y-100910207D01*
X234428827Y-100887664D01*
X234442011Y-100875288D01*
X234451066Y-100870804D01*
X234457318Y-100871938D01*
X234462094Y-100876417D01*
X234466442Y-100881664D01*
X234508026Y-100941166D01*
X234585646Y-101065848D01*
X234694098Y-101246555D01*
X234828180Y-101474132D01*
X234982689Y-101739423D01*
X235152422Y-102033276D01*
X235332176Y-102346535D01*
X235516749Y-102670045D01*
X235700938Y-102994652D01*
X235879540Y-103311201D01*
X236047353Y-103610538D01*
X236199172Y-103883508D01*
X236329797Y-104120956D01*
X236434024Y-104313728D01*
X236506649Y-104452669D01*
X236542471Y-104528625D01*
X236545293Y-104539530D01*
X237099855Y-104539530D01*
X237094628Y-104512385D01*
X237051916Y-104411342D01*
X236974017Y-104253912D01*
X236859265Y-104037018D01*
X236705995Y-103757583D01*
X236512541Y-103412530D01*
X236277237Y-102998782D01*
X235998419Y-102513262D01*
X235958286Y-102443665D01*
X235679095Y-101959449D01*
X235440574Y-101545697D01*
X235239134Y-101196940D01*
X235071188Y-100907710D01*
X234933146Y-100672537D01*
X234821420Y-100485953D01*
X234732420Y-100342491D01*
X234662558Y-100236681D01*
X234608246Y-100163054D01*
X234565894Y-100116143D01*
X234531915Y-100090479D01*
X234502718Y-100080594D01*
X234474716Y-100081018D01*
X234444320Y-100086283D01*
X234414001Y-100090474D01*
X234256923Y-100103976D01*
X233133860Y-102049907D01*
X232872623Y-102501422D01*
X232651342Y-102881191D01*
X232466968Y-103194119D01*
X232316453Y-103445109D01*
X232196747Y-103639066D01*
X232104801Y-103780894D01*
X232037568Y-103875497D01*
X231991997Y-103927778D01*
X231965040Y-103942642D01*
X231959069Y-103939527D01*
X231931698Y-103895772D01*
X231862845Y-103779952D01*
X231754886Y-103596163D01*
X231610195Y-103348503D01*
X231431150Y-103041072D01*
X231220125Y-102677966D01*
X230979495Y-102263284D01*
X230711638Y-101801124D01*
X230418928Y-101295584D01*
X230103740Y-100750762D01*
X229768451Y-100170756D01*
X229415436Y-99559664D01*
X229047072Y-98921585D01*
X228665732Y-98260615D01*
X228423661Y-97840828D01*
X228035217Y-97167320D01*
X227658103Y-96513931D01*
X227294709Y-95884778D01*
X226947421Y-95283977D01*
X226618630Y-94715647D01*
X226310724Y-94183903D01*
X226026092Y-93692862D01*
X225767122Y-93246642D01*
X225536203Y-92849359D01*
X225335723Y-92505130D01*
X225168073Y-92218072D01*
X225035639Y-91992303D01*
X224940811Y-91831937D01*
X224885977Y-91741094D01*
X224873154Y-91721537D01*
X224772695Y-91660911D01*
X224645582Y-91647862D01*
X224535596Y-91685218D01*
G37*
X224535596Y-91685218D02*
X224519762Y-91698729D01*
X224490951Y-91743336D01*
X224421156Y-91859139D01*
X224313267Y-92041179D01*
X224170175Y-92284495D01*
X223994769Y-92584130D01*
X223789940Y-92935123D01*
X223558578Y-93332515D01*
X223303572Y-93771347D01*
X223027813Y-94246659D01*
X222734191Y-94753492D01*
X222425596Y-95286887D01*
X222104919Y-95841884D01*
X222061309Y-95917414D01*
X219656951Y-100082004D01*
X214798622Y-100082004D01*
X213999303Y-100082222D01*
X213284103Y-100082903D01*
X212649255Y-100084088D01*
X212090988Y-100085816D01*
X211605535Y-100088129D01*
X211189126Y-100091067D01*
X210837993Y-100094671D01*
X210548367Y-100098980D01*
X210316480Y-100104035D01*
X210138563Y-100109877D01*
X210010846Y-100116547D01*
X209929562Y-100124084D01*
X209890941Y-100132529D01*
X209887560Y-100134738D01*
X209844510Y-100219406D01*
X209834826Y-100285581D01*
X209856413Y-100336161D01*
X209919278Y-100457710D01*
X210020578Y-100645187D01*
X210157468Y-100893547D01*
X210327104Y-101197749D01*
X210526643Y-101552750D01*
X210753242Y-101953507D01*
X211004055Y-102394979D01*
X211276240Y-102872122D01*
X211566953Y-103379894D01*
X211873349Y-103913252D01*
X212192585Y-104467154D01*
X212214447Y-104505021D01*
X212534569Y-105059832D01*
X212842398Y-105594085D01*
X213135067Y-106102764D01*
X213409710Y-106580855D01*
X213663461Y-107023343D01*
X213893453Y-107425213D01*
X214096820Y-107781451D01*
X214270695Y-108087041D01*
X214412213Y-108336970D01*
X214518507Y-108526222D01*
X214586711Y-108649782D01*
X214613958Y-108702636D01*
X214614256Y-108703553D01*
X214596847Y-108758385D01*
X214536964Y-108884119D01*
X214437123Y-109076158D01*
X214299842Y-109329903D01*
X214127636Y-109640757D01*
X213923024Y-110004122D01*
X213688522Y-110415400D01*
X213458838Y-110814338D01*
X213215570Y-111237187D01*
X212993139Y-111627860D01*
X212794896Y-111980252D01*
X212624188Y-112288256D01*
X212484364Y-112545766D01*
X212378772Y-112746676D01*
X212310762Y-112884880D01*
X212283683Y-112954271D01*
X212283342Y-112957783D01*
X212304589Y-113009631D01*
X212365112Y-113129091D01*
X212460129Y-113307722D01*
X212584860Y-113537085D01*
X212734522Y-113808742D01*
X212904335Y-114114253D01*
X213089517Y-114445181D01*
X213285287Y-114793085D01*
X213486864Y-115149527D01*
X213689466Y-115506068D01*
X213888312Y-115854270D01*
X214078621Y-116185692D01*
X214255612Y-116491896D01*
X214414503Y-116764444D01*
X214550513Y-116994896D01*
X214658861Y-117174814D01*
X214734765Y-117295758D01*
X214768171Y-117343482D01*
X214843322Y-117380060D01*
X214962335Y-117387773D01*
X214966544Y-117387427D01*
X215001065Y-117383264D01*
X215033905Y-117373047D01*
X215069089Y-117350588D01*
X215110642Y-117309696D01*
X215162592Y-117244183D01*
X215228963Y-117147860D01*
X215313781Y-117014536D01*
X215421072Y-116838023D01*
X215554862Y-116612131D01*
X215719176Y-116330671D01*
X215918041Y-115987454D01*
X216155482Y-115576290D01*
X216241201Y-115427740D01*
X216501874Y-114977076D01*
X216722614Y-114598085D01*
X216906509Y-114285800D01*
X217056648Y-114035254D01*
X217176119Y-113841482D01*
X217268013Y-113699516D01*
X217335417Y-113604389D01*
X217381421Y-113551135D01*
X217409113Y-113534788D01*
X217416396Y-113538120D01*
X217443805Y-113581936D01*
X217512698Y-113697817D01*
X217620697Y-113881664D01*
X217765427Y-114129380D01*
X217944513Y-114436866D01*
X218155578Y-114800023D01*
X218396245Y-115214753D01*
X218664141Y-115676957D01*
X218956887Y-116182536D01*
X219272108Y-116727394D01*
X219607429Y-117307430D01*
X219960473Y-117918546D01*
X220328864Y-118556645D01*
X220710227Y-119217627D01*
X220952280Y-119637367D01*
X221340739Y-120310872D01*
X221717868Y-120964259D01*
X222081278Y-121593409D01*
X222428581Y-122194207D01*
X222757388Y-122762536D01*
X223065310Y-123294278D01*
X223349958Y-123785318D01*
X223608944Y-124231538D01*
X223839878Y-124628821D01*
X224040372Y-124973050D01*
X224208037Y-125260110D01*
X224340485Y-125485882D01*
X224435326Y-125646250D01*
X224490171Y-125737098D01*
X224503002Y-125756658D01*
X224603044Y-125817070D01*
X224729745Y-125830535D01*
X224839334Y-125794113D01*
X224855597Y-125780334D01*
X224884285Y-125735842D01*
X224953947Y-125620146D01*
X225061697Y-125438205D01*
X225204645Y-125194977D01*
X225379905Y-124895419D01*
X225584588Y-124544491D01*
X225815807Y-124147149D01*
X226070674Y-123708352D01*
X226346300Y-123233058D01*
X226639798Y-122726225D01*
X226948281Y-122192811D01*
X227268859Y-121637775D01*
X227312797Y-121561649D01*
X229716770Y-117396191D01*
X234576352Y-117396191D01*
X235375777Y-117395973D01*
X236091083Y-117395292D01*
X236726037Y-117394108D01*
X237284407Y-117392380D01*
X237769963Y-117390067D01*
X238186471Y-117387130D01*
X238537701Y-117383528D01*
X238827421Y-117379220D01*
X239059398Y-117374167D01*
X239237402Y-117368326D01*
X239365200Y-117361659D01*
X239446561Y-117354124D01*
X239485253Y-117345681D01*
X239488667Y-117343457D01*
X239531810Y-117258693D01*
X239541401Y-117193186D01*
X239519813Y-117142770D01*
X239456932Y-117021344D01*
X239422002Y-116956745D01*
X238890913Y-116956745D01*
X234448164Y-116956745D01*
X233831430Y-116956477D01*
X233240079Y-116955699D01*
X232679962Y-116954447D01*
X232156929Y-116952757D01*
X231676832Y-116950666D01*
X231245523Y-116948210D01*
X230868852Y-116945425D01*
X230552671Y-116942348D01*
X230302832Y-116939016D01*
X230125184Y-116935464D01*
X230025581Y-116931730D01*
X230005415Y-116929094D01*
X230026903Y-116887974D01*
X230089408Y-116775880D01*
X230189993Y-116597945D01*
X230325716Y-116359303D01*
X230493641Y-116065087D01*
X230690828Y-115720430D01*
X230914338Y-115330467D01*
X231161232Y-114900331D01*
X231428572Y-114435155D01*
X231713419Y-113940072D01*
X232012833Y-113420217D01*
X232208646Y-113080522D01*
X232579925Y-112437151D01*
X232909963Y-111866431D01*
X233200999Y-111364628D01*
X233455269Y-110928012D01*
X233675013Y-110552850D01*
X233862469Y-110235410D01*
X234019873Y-109971962D01*
X234149466Y-109758772D01*
X234253483Y-109592110D01*
X234334165Y-109468244D01*
X234393748Y-109383442D01*
X234434471Y-109333971D01*
X234458571Y-109316102D01*
X234465177Y-109317947D01*
X234494320Y-109363635D01*
X234564189Y-109480185D01*
X234671685Y-109662273D01*
X234813713Y-109904576D01*
X234987176Y-110201770D01*
X235188976Y-110548531D01*
X235416018Y-110939536D01*
X235665204Y-111369462D01*
X235933437Y-111832985D01*
X236217622Y-112324781D01*
X236514661Y-112839527D01*
X236620843Y-113023700D01*
X236922650Y-113547279D01*
X237213221Y-114051312D01*
X237489393Y-114530316D01*
X237748003Y-114978807D01*
X237985887Y-115391301D01*
X238199885Y-115762317D01*
X238386831Y-116086369D01*
X238543564Y-116357975D01*
X238666921Y-116571651D01*
X238753739Y-116721914D01*
X238800855Y-116803280D01*
X238807062Y-116813924D01*
X238890913Y-116956745D01*
X239422002Y-116956745D01*
X239355581Y-116833912D01*
X239218583Y-116585478D01*
X239048763Y-116281048D01*
X238848944Y-115925625D01*
X238621949Y-115524215D01*
X238370601Y-115081821D01*
X238097724Y-114603448D01*
X237806143Y-114094100D01*
X237498679Y-113558783D01*
X237178157Y-113002500D01*
X237128248Y-112916037D01*
X234715096Y-108736425D01*
X235896067Y-106690461D01*
X236120629Y-106300730D01*
X236332198Y-105932214D01*
X236526622Y-105592237D01*
X236699748Y-105288126D01*
X236847422Y-105027205D01*
X236965492Y-104816801D01*
X237049805Y-104664237D01*
X237096208Y-104576841D01*
X237103819Y-104560119D01*
X237099855Y-104539530D01*
X236545293Y-104539530D01*
X236522326Y-104582922D01*
X236457656Y-104698392D01*
X236353467Y-104882153D01*
X236211946Y-105130420D01*
X236035277Y-105439405D01*
X235825645Y-105805321D01*
X235585237Y-106224383D01*
X235316237Y-106692803D01*
X235020831Y-107206795D01*
X234701204Y-107762572D01*
X234359541Y-108356347D01*
X233998028Y-108984335D01*
X233618850Y-109642747D01*
X233224192Y-110327798D01*
X232816241Y-111035701D01*
X232397180Y-111762670D01*
X231969196Y-112504916D01*
X231534473Y-113258655D01*
X231095198Y-114020100D01*
X230653555Y-114785463D01*
X230211730Y-115550958D01*
X229771908Y-116312798D01*
X229336274Y-117067197D01*
X228907014Y-117810369D01*
X228486313Y-118538525D01*
X228076357Y-119247881D01*
X227679330Y-119934649D01*
X227297419Y-120595042D01*
X226932808Y-121225275D01*
X226587683Y-121821559D01*
X226264229Y-122380110D01*
X225964631Y-122897139D01*
X225691075Y-123368860D01*
X225445747Y-123791488D01*
X225230831Y-124161234D01*
X225048512Y-124474313D01*
X224900977Y-124726937D01*
X224790410Y-124915321D01*
X224718997Y-125035677D01*
X224688923Y-125084219D01*
X224688114Y-125085072D01*
X224662471Y-125048200D01*
X224597390Y-124942437D01*
X224497186Y-124775115D01*
X224366175Y-124553568D01*
X224208673Y-124285127D01*
X224028998Y-123977126D01*
X223831464Y-123636897D01*
X223620387Y-123271772D01*
X223602027Y-123239941D01*
X222537913Y-121394725D01*
X224973735Y-117174337D01*
X224358529Y-117174337D01*
X224337152Y-117225673D01*
X224275876Y-117345273D01*
X224178981Y-117525424D01*
X224050746Y-117758412D01*
X223895451Y-118036523D01*
X223717377Y-118352044D01*
X223520804Y-118697260D01*
X223310011Y-119064457D01*
X223303857Y-119075134D01*
X223051149Y-119512290D01*
X222838288Y-119877593D01*
X222662241Y-120175909D01*
X222519975Y-120412102D01*
X222408458Y-120591039D01*
X222324655Y-120717585D01*
X222265534Y-120796607D01*
X222228063Y-120832969D01*
X222209207Y-120831537D01*
X222209100Y-120831345D01*
X222181949Y-120783762D01*
X222113849Y-120665267D01*
X222007797Y-120481060D01*
X221866794Y-120236341D01*
X221693839Y-119936310D01*
X221491929Y-119586166D01*
X221264063Y-119191111D01*
X221013242Y-118756343D01*
X220742463Y-118287063D01*
X220454725Y-117788472D01*
X220153028Y-117265768D01*
X219950510Y-116914939D01*
X219641570Y-116379361D01*
X219344999Y-115864416D01*
X219063767Y-115375306D01*
X218800846Y-114917236D01*
X218559208Y-114495411D01*
X218341823Y-114115033D01*
X218151664Y-113781308D01*
X217991702Y-113499439D01*
X217864909Y-113274630D01*
X217774255Y-113112085D01*
X217722712Y-113017008D01*
X217711582Y-112993822D01*
X217729383Y-112944899D01*
X217785967Y-112829365D01*
X217876222Y-112656286D01*
X217995036Y-112434730D01*
X218137299Y-112173765D01*
X218297899Y-111882457D01*
X218471724Y-111569876D01*
X218653664Y-111245088D01*
X218838607Y-110917162D01*
X219021442Y-110595164D01*
X219197057Y-110288162D01*
X219360341Y-110005224D01*
X219506184Y-109755417D01*
X219629472Y-109547810D01*
X219725096Y-109391469D01*
X219787944Y-109295463D01*
X219811748Y-109268070D01*
X219837878Y-109304887D01*
X219903987Y-109411947D01*
X220006554Y-109583126D01*
X220142057Y-109812300D01*
X220306972Y-110093342D01*
X220497778Y-110420129D01*
X220710953Y-110786536D01*
X220942974Y-111186439D01*
X221190319Y-111613712D01*
X221449466Y-112062230D01*
X221716893Y-112525870D01*
X221989077Y-112998506D01*
X222262496Y-113474014D01*
X222533628Y-113946268D01*
X222798950Y-114409145D01*
X223054942Y-114856519D01*
X223298079Y-115282266D01*
X223524840Y-115680262D01*
X223731703Y-116044380D01*
X223915146Y-116368497D01*
X224071646Y-116646488D01*
X224197681Y-116872229D01*
X224289729Y-117039594D01*
X224344267Y-117142458D01*
X224358529Y-117174337D01*
X224973735Y-117174337D01*
X226285160Y-114902119D01*
X226995356Y-113671605D01*
X227662939Y-112514935D01*
X228289236Y-111429833D01*
X228875573Y-110414026D01*
X229423279Y-109465238D01*
X229843188Y-108737931D01*
X229232851Y-108737931D01*
X229211447Y-108783074D01*
X229149681Y-108897798D01*
X229051073Y-109075974D01*
X228919146Y-109311476D01*
X228757420Y-109598175D01*
X228569417Y-109929941D01*
X228358658Y-110300648D01*
X228128665Y-110704168D01*
X227882957Y-111134370D01*
X227625058Y-111585129D01*
X227358487Y-112050315D01*
X227086767Y-112523800D01*
X226813419Y-112999457D01*
X226541963Y-113471156D01*
X226275922Y-113932770D01*
X226018816Y-114378170D01*
X225774167Y-114801229D01*
X225545496Y-115195818D01*
X225336324Y-115555808D01*
X225150173Y-115875073D01*
X224990564Y-116147483D01*
X224861017Y-116366910D01*
X224765056Y-116527226D01*
X224706199Y-116622303D01*
X224688114Y-116647287D01*
X224663600Y-116610122D01*
X224598161Y-116501815D01*
X224494726Y-116327390D01*
X224356222Y-116091872D01*
X224185577Y-115800286D01*
X223985720Y-115457658D01*
X223759578Y-115069011D01*
X223510079Y-114639371D01*
X223240151Y-114173762D01*
X222952723Y-113677210D01*
X222650722Y-113154739D01*
X222404562Y-112728351D01*
X222092976Y-112187676D01*
X221794091Y-111667733D01*
X221510817Y-111173659D01*
X221246066Y-110710588D01*
X221002747Y-110283655D01*
X220783772Y-109897994D01*
X220592051Y-109558741D01*
X220430494Y-109271029D01*
X220302012Y-109039994D01*
X220209517Y-108870771D01*
X220155917Y-108768494D01*
X220142983Y-108738564D01*
X220164342Y-108693168D01*
X220226074Y-108578220D01*
X220324655Y-108399847D01*
X220456564Y-108164177D01*
X220618280Y-107877338D01*
X220806280Y-107545457D01*
X221017042Y-107174663D01*
X221247045Y-106771082D01*
X221492767Y-106340843D01*
X221750686Y-105890073D01*
X222017281Y-105424901D01*
X222289028Y-104951453D01*
X222562407Y-104475858D01*
X222833896Y-104004243D01*
X223099973Y-103542736D01*
X223357116Y-103097464D01*
X223601803Y-102674556D01*
X223830513Y-102280139D01*
X224039723Y-101920341D01*
X224225912Y-101601290D01*
X224385557Y-101329113D01*
X224515138Y-101109938D01*
X224611132Y-100949892D01*
X224670018Y-100855104D01*
X224688114Y-100830370D01*
X224714093Y-100867533D01*
X224780054Y-100974936D01*
X224882475Y-101146451D01*
X225017833Y-101375952D01*
X225182608Y-101657310D01*
X225373277Y-101984398D01*
X225586319Y-102351089D01*
X225818212Y-102751255D01*
X226065435Y-103178768D01*
X226324465Y-103627501D01*
X226591782Y-104091326D01*
X226863863Y-104564117D01*
X227137186Y-105039745D01*
X227408231Y-105512082D01*
X227673474Y-105975002D01*
X227929396Y-106422377D01*
X228172473Y-106848079D01*
X228399185Y-107245981D01*
X228606009Y-107609955D01*
X228789424Y-107933874D01*
X228945908Y-108211609D01*
X229071940Y-108437035D01*
X229163998Y-108604023D01*
X229218559Y-108706445D01*
X229232851Y-108737931D01*
X229843188Y-108737931D01*
X229933679Y-108581197D01*
X230408102Y-107759629D01*
X230847873Y-106998257D01*
X231254320Y-106294810D01*
X231628770Y-105647012D01*
X231972550Y-105052590D01*
X232280651Y-104520218D01*
X231675311Y-104520218D01*
X231654060Y-104567527D01*
X231593815Y-104681582D01*
X231499840Y-104853196D01*
X231377398Y-105073181D01*
X231231752Y-105332350D01*
X231068164Y-105621516D01*
X230891898Y-105931491D01*
X230708217Y-106253087D01*
X230522383Y-106577119D01*
X230339660Y-106894397D01*
X230165312Y-107195735D01*
X230004600Y-107471946D01*
X229862788Y-107713841D01*
X229745139Y-107912235D01*
X229656916Y-108057938D01*
X229603381Y-108141764D01*
X229592108Y-108156746D01*
X229574306Y-108149815D01*
X229537551Y-108107464D01*
X229479835Y-108026339D01*
X229399151Y-107903081D01*
X229293490Y-107734335D01*
X229160843Y-107516744D01*
X228999204Y-107246952D01*
X228806563Y-106921601D01*
X228580912Y-106537335D01*
X228320244Y-106090798D01*
X228022550Y-105578633D01*
X227685822Y-104997483D01*
X227308051Y-104343992D01*
X227224908Y-104200008D01*
X226908873Y-103652989D01*
X226604571Y-103126985D01*
X226314949Y-102627052D01*
X226042952Y-102158243D01*
X225791528Y-101725614D01*
X225563623Y-101334220D01*
X225362183Y-100989116D01*
X225190155Y-100695356D01*
X225050485Y-100457995D01*
X224946119Y-100282089D01*
X224880005Y-100172692D01*
X224855579Y-100135214D01*
X224759549Y-100090577D01*
X224635094Y-100087627D01*
X224531088Y-100126228D01*
X224519713Y-100136149D01*
X224492864Y-100178866D01*
X224424134Y-100294223D01*
X224315552Y-100478721D01*
X224169145Y-100728865D01*
X223986943Y-101041159D01*
X223770974Y-101412106D01*
X223523265Y-101838209D01*
X223245845Y-102315973D01*
X222940743Y-102841901D01*
X222609985Y-103412496D01*
X222255602Y-104024263D01*
X221879621Y-104673704D01*
X221484070Y-105357324D01*
X221070978Y-106071626D01*
X220642372Y-106813114D01*
X220200282Y-107578291D01*
X219746735Y-108363660D01*
X219713337Y-108421508D01*
X219153578Y-109390792D01*
X218636103Y-110286287D01*
X218159471Y-111110448D01*
X217722239Y-111865726D01*
X217322968Y-112554574D01*
X216960216Y-113179445D01*
X216632540Y-113742791D01*
X216338500Y-114247066D01*
X216076655Y-114694721D01*
X215845563Y-115088210D01*
X215643783Y-115429984D01*
X215469873Y-115722498D01*
X215322393Y-115968203D01*
X215199900Y-116169552D01*
X215100953Y-116328997D01*
X215024112Y-116448992D01*
X214967934Y-116531989D01*
X214930978Y-116580441D01*
X214911804Y-116596801D01*
X214909454Y-116595996D01*
X214877566Y-116547335D01*
X214806518Y-116430235D01*
X214700882Y-116252493D01*
X214565230Y-116021907D01*
X214404134Y-115746275D01*
X214222168Y-115433394D01*
X214023903Y-115091060D01*
X213834592Y-114762981D01*
X213591260Y-114339638D01*
X213389146Y-113985634D01*
X213224891Y-113694563D01*
X213095134Y-113460022D01*
X212996513Y-113275605D01*
X212925668Y-113134906D01*
X212879239Y-113031522D01*
X212853864Y-112959046D01*
X212846182Y-112911074D01*
X212850181Y-112886880D01*
X212875825Y-112839105D01*
X212943060Y-112719501D01*
X213049696Y-112531857D01*
X213193545Y-112279965D01*
X213372417Y-111967613D01*
X213584122Y-111598592D01*
X213826473Y-111176691D01*
X214097279Y-110705700D01*
X214394352Y-110189410D01*
X214715503Y-109631609D01*
X215058541Y-109036088D01*
X215421280Y-108406637D01*
X215801528Y-107747045D01*
X216197097Y-107061102D01*
X216605798Y-106352598D01*
X217025442Y-105625323D01*
X217453839Y-104883067D01*
X217888801Y-104129620D01*
X218328138Y-103368771D01*
X218769661Y-102604311D01*
X219211182Y-101840028D01*
X219650510Y-101079714D01*
X219961974Y-100540810D01*
X219360876Y-100540810D01*
X219342138Y-100580787D01*
X219282261Y-100691709D01*
X219184154Y-100868466D01*
X219050725Y-101105947D01*
X218884882Y-101399042D01*
X218689536Y-101742642D01*
X218467594Y-102131636D01*
X218221966Y-102560915D01*
X217955560Y-103025369D01*
X217671285Y-103519887D01*
X217372049Y-104039360D01*
X217171127Y-104387590D01*
X216840260Y-104959633D01*
X216527250Y-105498760D01*
X216234599Y-106000757D01*
X215964808Y-106461409D01*
X215720379Y-106876500D01*
X215503813Y-107241817D01*
X215317611Y-107553145D01*
X215164275Y-107806269D01*
X215046307Y-107996974D01*
X214966206Y-108121046D01*
X214926476Y-108174271D01*
X214922831Y-108175822D01*
X214895867Y-108133093D01*
X214828019Y-108019395D01*
X214722297Y-107839900D01*
X214581711Y-107599782D01*
X214409268Y-107304215D01*
X214207981Y-106958374D01*
X213980856Y-106567431D01*
X213730906Y-106136561D01*
X213461137Y-105670937D01*
X213174561Y-105175733D01*
X212874187Y-104656123D01*
X212691735Y-104340240D01*
X210499405Y-100543423D01*
X214920249Y-100532225D01*
X215535923Y-100530859D01*
X216126538Y-100529924D01*
X216686196Y-100529410D01*
X217208995Y-100529304D01*
X217689034Y-100529597D01*
X218120413Y-100530275D01*
X218497230Y-100531328D01*
X218813586Y-100532745D01*
X219063579Y-100534513D01*
X219241309Y-100536622D01*
X219340874Y-100539060D01*
X219360876Y-100540810D01*
X219961974Y-100540810D01*
X220085457Y-100327157D01*
X220513834Y-99586148D01*
X220933452Y-98860477D01*
X221342121Y-98153933D01*
X221737652Y-97470306D01*
X222117856Y-96813386D01*
X222480545Y-96186963D01*
X222823528Y-95594827D01*
X223144618Y-95040767D01*
X223441623Y-94528574D01*
X223712357Y-94062037D01*
X223954629Y-93644946D01*
X224166250Y-93281092D01*
X224345032Y-92974262D01*
X224488784Y-92728249D01*
X224595318Y-92546841D01*
X224662445Y-92433828D01*
X224687976Y-92393001D01*
X224688114Y-92392921D01*
X224712982Y-92430239D01*
X224778713Y-92538870D01*
X224882462Y-92713880D01*
X225021384Y-92950330D01*
X225192635Y-93243284D01*
X225393371Y-93587805D01*
X225620747Y-93978957D01*
X225871920Y-94411803D01*
X226144044Y-94881405D01*
X226434275Y-95382827D01*
X226739769Y-95911133D01*
X227057681Y-96461384D01*
X227385168Y-97028645D01*
X227719385Y-97607979D01*
X228057487Y-98194449D01*
X228396630Y-98783118D01*
X228733969Y-99369049D01*
X229066661Y-99947306D01*
X229391861Y-100512951D01*
X229706724Y-101061048D01*
X230008407Y-101586660D01*
X230294064Y-102084850D01*
X230560852Y-102550681D01*
X230805926Y-102979217D01*
X231026442Y-103365521D01*
X231219555Y-103704656D01*
X231382421Y-103991685D01*
X231512196Y-104221671D01*
X231606035Y-104389677D01*
X231661094Y-104490768D01*
X231675311Y-104520218D01*
X232280651Y-104520218D01*
X232286988Y-104509269D01*
X232573409Y-104014775D01*
X232833141Y-103566835D01*
X233067512Y-103163173D01*
X233277847Y-102801515D01*
X233465475Y-102479589D01*
X233631722Y-102195118D01*
X233777914Y-101945830D01*
X233905381Y-101729451D01*
X234015447Y-101543705D01*
X234109440Y-101386319D01*
X234188688Y-101255019D01*
X234254517Y-101147530D01*
X234308255Y-101061578D01*
X234351227Y-100994890D01*
X234384762Y-100945191D01*
X234410187Y-100910207D01*
X234428827Y-100887664D01*
X234442011Y-100875288D01*
X234451066Y-100870804D01*
X234457318Y-100871938D01*
X234462094Y-100876417D01*
X234466442Y-100881664D01*
X234508026Y-100941166D01*
X234585646Y-101065848D01*
X234694098Y-101246555D01*
X234828180Y-101474132D01*
X234982689Y-101739423D01*
X235152422Y-102033276D01*
X235332176Y-102346535D01*
X235516749Y-102670045D01*
X235700938Y-102994652D01*
X235879540Y-103311201D01*
X236047353Y-103610538D01*
X236199172Y-103883508D01*
X236329797Y-104120956D01*
X236434024Y-104313728D01*
X236506649Y-104452669D01*
X236542471Y-104528625D01*
X236545293Y-104539530D01*
X237099855Y-104539530D01*
X237094628Y-104512385D01*
X237051916Y-104411342D01*
X236974017Y-104253912D01*
X236859265Y-104037018D01*
X236705995Y-103757583D01*
X236512541Y-103412530D01*
X236277237Y-102998782D01*
X235998419Y-102513262D01*
X235958286Y-102443665D01*
X235679095Y-101959449D01*
X235440574Y-101545697D01*
X235239134Y-101196940D01*
X235071188Y-100907710D01*
X234933146Y-100672537D01*
X234821420Y-100485953D01*
X234732420Y-100342491D01*
X234662558Y-100236681D01*
X234608246Y-100163054D01*
X234565894Y-100116143D01*
X234531915Y-100090479D01*
X234502718Y-100080594D01*
X234474716Y-100081018D01*
X234444320Y-100086283D01*
X234414001Y-100090474D01*
X234256923Y-100103976D01*
X233133860Y-102049907D01*
X232872623Y-102501422D01*
X232651342Y-102881191D01*
X232466968Y-103194119D01*
X232316453Y-103445109D01*
X232196747Y-103639066D01*
X232104801Y-103780894D01*
X232037568Y-103875497D01*
X231991997Y-103927778D01*
X231965040Y-103942642D01*
X231959069Y-103939527D01*
X231931698Y-103895772D01*
X231862845Y-103779952D01*
X231754886Y-103596163D01*
X231610195Y-103348503D01*
X231431150Y-103041072D01*
X231220125Y-102677966D01*
X230979495Y-102263284D01*
X230711638Y-101801124D01*
X230418928Y-101295584D01*
X230103740Y-100750762D01*
X229768451Y-100170756D01*
X229415436Y-99559664D01*
X229047072Y-98921585D01*
X228665732Y-98260615D01*
X228423661Y-97840828D01*
X228035217Y-97167320D01*
X227658103Y-96513931D01*
X227294709Y-95884778D01*
X226947421Y-95283977D01*
X226618630Y-94715647D01*
X226310724Y-94183903D01*
X226026092Y-93692862D01*
X225767122Y-93246642D01*
X225536203Y-92849359D01*
X225335723Y-92505130D01*
X225168073Y-92218072D01*
X225035639Y-91992303D01*
X224940811Y-91831937D01*
X224885977Y-91741094D01*
X224873154Y-91721537D01*
X224772695Y-91660911D01*
X224645582Y-91647862D01*
X224535596Y-91685218D01*
G36*
X205474787Y-62210953D02*
G01*
X205309873Y-62226984D01*
X205153636Y-62253726D01*
X205004407Y-62291537D01*
X204860517Y-62340774D01*
X204720297Y-62401792D01*
X204712124Y-62405757D01*
X204591792Y-62469513D01*
X204481698Y-62538944D01*
X204377857Y-62616887D01*
X204276289Y-62706181D01*
X204236647Y-62744483D01*
X204116654Y-62874079D01*
X204009091Y-63012956D01*
X203914211Y-63160599D01*
X203832266Y-63316491D01*
X203763507Y-63480115D01*
X203708186Y-63650956D01*
X203666554Y-63828498D01*
X203645784Y-63955808D01*
X203633784Y-64064429D01*
X203625625Y-64181166D01*
X203621389Y-64301458D01*
X203621153Y-64420742D01*
X203624997Y-64534458D01*
X203633001Y-64638044D01*
X203633793Y-64645481D01*
X203661209Y-64830134D01*
X203702378Y-65008285D01*
X203757017Y-65179448D01*
X203824839Y-65343138D01*
X203905560Y-65498868D01*
X203998893Y-65646154D01*
X204104553Y-65784509D01*
X204222255Y-65913448D01*
X204351713Y-66032484D01*
X204492642Y-66141133D01*
X204526592Y-66164563D01*
X204645769Y-66237593D01*
X204775926Y-66303592D01*
X204913370Y-66360926D01*
X205054411Y-66407961D01*
X205111810Y-66423731D01*
X205184708Y-66441496D01*
X205252550Y-66455642D01*
X205318708Y-66466562D01*
X205386553Y-66474648D01*
X205459459Y-66480295D01*
X205540797Y-66483895D01*
X205633940Y-66485840D01*
X205646140Y-66485981D01*
X205704024Y-66486478D01*
X205758034Y-66486700D01*
X205805820Y-66486658D01*
X205845037Y-66486361D01*
X205873335Y-66485817D01*
X205888367Y-66485037D01*
X205888417Y-66485031D01*
X206024345Y-66465476D01*
X206148843Y-66440260D01*
X206265397Y-66408396D01*
X206377492Y-66368897D01*
X206488613Y-66320775D01*
X206517555Y-66306837D01*
X206659004Y-66228932D01*
X206790552Y-66139164D01*
X206911705Y-66038019D01*
X207021966Y-65925985D01*
X207120842Y-65803551D01*
X207207838Y-65671202D01*
X207259985Y-65575732D01*
X207295301Y-65498638D01*
X207329749Y-65410271D01*
X207362014Y-65314980D01*
X207390783Y-65217115D01*
X207414741Y-65121029D01*
X207432575Y-65031070D01*
X207440068Y-64979550D01*
X207445479Y-64934612D01*
X206445239Y-64934612D01*
X206435728Y-65010177D01*
X206423101Y-65090058D01*
X206405932Y-65160255D01*
X206382580Y-65226443D01*
X206356611Y-65283857D01*
X206309302Y-65364698D01*
X206251819Y-65435207D01*
X206183621Y-65495750D01*
X206104167Y-65546687D01*
X206012914Y-65588384D01*
X205909320Y-65621203D01*
X205825894Y-65639707D01*
X205786909Y-65646350D01*
X205749398Y-65651066D01*
X205709365Y-65654138D01*
X205662815Y-65655846D01*
X205605755Y-65656472D01*
X205587524Y-65656492D01*
X205533954Y-65656301D01*
X205492640Y-65655578D01*
X205460209Y-65654008D01*
X205433289Y-65651279D01*
X205408507Y-65647078D01*
X205382490Y-65641091D01*
X205360945Y-65635458D01*
X205259532Y-65601504D01*
X205167107Y-65556052D01*
X205081604Y-65497863D01*
X205000960Y-65425699D01*
X204986381Y-65410688D01*
X204907771Y-65317677D01*
X204839165Y-65214207D01*
X204780379Y-65099848D01*
X204731227Y-64974169D01*
X204691526Y-64836739D01*
X204661092Y-64687127D01*
X204652313Y-64629812D01*
X204648925Y-64596067D01*
X204646194Y-64549479D01*
X204644120Y-64492822D01*
X204642705Y-64428872D01*
X204641950Y-64360401D01*
X204641856Y-64290184D01*
X204642425Y-64220996D01*
X204643658Y-64155610D01*
X204645556Y-64096801D01*
X204648120Y-64047344D01*
X204651352Y-64010011D01*
X204652033Y-64004581D01*
X204677568Y-63852491D01*
X204711595Y-63713500D01*
X204754143Y-63587564D01*
X204805241Y-63474641D01*
X204864918Y-63374689D01*
X204933202Y-63287664D01*
X205010122Y-63213524D01*
X205095708Y-63152226D01*
X205189987Y-63103728D01*
X205280810Y-63071417D01*
X205344693Y-63055164D01*
X205407673Y-63044235D01*
X205474045Y-63038195D01*
X205548102Y-63036610D01*
X205610971Y-63038073D01*
X205741632Y-63048675D01*
X205861155Y-63070227D01*
X205969612Y-63102789D01*
X206067076Y-63146421D01*
X206153623Y-63201181D01*
X206229324Y-63267129D01*
X206294253Y-63344325D01*
X206348485Y-63432829D01*
X206392091Y-63532700D01*
X206425147Y-63643997D01*
X206438726Y-63709377D01*
X206443952Y-63738511D01*
X206299005Y-63740638D01*
X206154058Y-63742766D01*
X206939644Y-64528212D01*
X207728882Y-63738858D01*
X207575084Y-63738858D01*
X207522112Y-63738750D01*
X207482710Y-63738308D01*
X207454818Y-63737353D01*
X207436377Y-63735705D01*
X207425326Y-63733188D01*
X207419606Y-63729623D01*
X207417257Y-63725181D01*
X207413873Y-63710599D01*
X207409060Y-63686194D01*
X207404466Y-63660704D01*
X207380757Y-63547807D01*
X207348386Y-63430959D01*
X207308700Y-63313629D01*
X207263044Y-63199283D01*
X207212762Y-63091388D01*
X207159200Y-62993412D01*
X207123999Y-62937781D01*
X207028312Y-62809612D01*
X206921708Y-62692347D01*
X206804951Y-62586508D01*
X206678807Y-62492615D01*
X206544039Y-62411186D01*
X206401413Y-62342743D01*
X206251694Y-62287806D01*
X206113877Y-62250866D01*
X206035201Y-62234594D01*
X205961194Y-62222352D01*
X205887639Y-62213726D01*
X205810319Y-62208302D01*
X205725016Y-62205665D01*
X205650047Y-62205277D01*
X205474787Y-62210953D01*
G37*
X205474787Y-62210953D02*
X205309873Y-62226984D01*
X205153636Y-62253726D01*
X205004407Y-62291537D01*
X204860517Y-62340774D01*
X204720297Y-62401792D01*
X204712124Y-62405757D01*
X204591792Y-62469513D01*
X204481698Y-62538944D01*
X204377857Y-62616887D01*
X204276289Y-62706181D01*
X204236647Y-62744483D01*
X204116654Y-62874079D01*
X204009091Y-63012956D01*
X203914211Y-63160599D01*
X203832266Y-63316491D01*
X203763507Y-63480115D01*
X203708186Y-63650956D01*
X203666554Y-63828498D01*
X203645784Y-63955808D01*
X203633784Y-64064429D01*
X203625625Y-64181166D01*
X203621389Y-64301458D01*
X203621153Y-64420742D01*
X203624997Y-64534458D01*
X203633001Y-64638044D01*
X203633793Y-64645481D01*
X203661209Y-64830134D01*
X203702378Y-65008285D01*
X203757017Y-65179448D01*
X203824839Y-65343138D01*
X203905560Y-65498868D01*
X203998893Y-65646154D01*
X204104553Y-65784509D01*
X204222255Y-65913448D01*
X204351713Y-66032484D01*
X204492642Y-66141133D01*
X204526592Y-66164563D01*
X204645769Y-66237593D01*
X204775926Y-66303592D01*
X204913370Y-66360926D01*
X205054411Y-66407961D01*
X205111810Y-66423731D01*
X205184708Y-66441496D01*
X205252550Y-66455642D01*
X205318708Y-66466562D01*
X205386553Y-66474648D01*
X205459459Y-66480295D01*
X205540797Y-66483895D01*
X205633940Y-66485840D01*
X205646140Y-66485981D01*
X205704024Y-66486478D01*
X205758034Y-66486700D01*
X205805820Y-66486658D01*
X205845037Y-66486361D01*
X205873335Y-66485817D01*
X205888367Y-66485037D01*
X205888417Y-66485031D01*
X206024345Y-66465476D01*
X206148843Y-66440260D01*
X206265397Y-66408396D01*
X206377492Y-66368897D01*
X206488613Y-66320775D01*
X206517555Y-66306837D01*
X206659004Y-66228932D01*
X206790552Y-66139164D01*
X206911705Y-66038019D01*
X207021966Y-65925985D01*
X207120842Y-65803551D01*
X207207838Y-65671202D01*
X207259985Y-65575732D01*
X207295301Y-65498638D01*
X207329749Y-65410271D01*
X207362014Y-65314980D01*
X207390783Y-65217115D01*
X207414741Y-65121029D01*
X207432575Y-65031070D01*
X207440068Y-64979550D01*
X207445479Y-64934612D01*
X206445239Y-64934612D01*
X206435728Y-65010177D01*
X206423101Y-65090058D01*
X206405932Y-65160255D01*
X206382580Y-65226443D01*
X206356611Y-65283857D01*
X206309302Y-65364698D01*
X206251819Y-65435207D01*
X206183621Y-65495750D01*
X206104167Y-65546687D01*
X206012914Y-65588384D01*
X205909320Y-65621203D01*
X205825894Y-65639707D01*
X205786909Y-65646350D01*
X205749398Y-65651066D01*
X205709365Y-65654138D01*
X205662815Y-65655846D01*
X205605755Y-65656472D01*
X205587524Y-65656492D01*
X205533954Y-65656301D01*
X205492640Y-65655578D01*
X205460209Y-65654008D01*
X205433289Y-65651279D01*
X205408507Y-65647078D01*
X205382490Y-65641091D01*
X205360945Y-65635458D01*
X205259532Y-65601504D01*
X205167107Y-65556052D01*
X205081604Y-65497863D01*
X205000960Y-65425699D01*
X204986381Y-65410688D01*
X204907771Y-65317677D01*
X204839165Y-65214207D01*
X204780379Y-65099848D01*
X204731227Y-64974169D01*
X204691526Y-64836739D01*
X204661092Y-64687127D01*
X204652313Y-64629812D01*
X204648925Y-64596067D01*
X204646194Y-64549479D01*
X204644120Y-64492822D01*
X204642705Y-64428872D01*
X204641950Y-64360401D01*
X204641856Y-64290184D01*
X204642425Y-64220996D01*
X204643658Y-64155610D01*
X204645556Y-64096801D01*
X204648120Y-64047344D01*
X204651352Y-64010011D01*
X204652033Y-64004581D01*
X204677568Y-63852491D01*
X204711595Y-63713500D01*
X204754143Y-63587564D01*
X204805241Y-63474641D01*
X204864918Y-63374689D01*
X204933202Y-63287664D01*
X205010122Y-63213524D01*
X205095708Y-63152226D01*
X205189987Y-63103728D01*
X205280810Y-63071417D01*
X205344693Y-63055164D01*
X205407673Y-63044235D01*
X205474045Y-63038195D01*
X205548102Y-63036610D01*
X205610971Y-63038073D01*
X205741632Y-63048675D01*
X205861155Y-63070227D01*
X205969612Y-63102789D01*
X206067076Y-63146421D01*
X206153623Y-63201181D01*
X206229324Y-63267129D01*
X206294253Y-63344325D01*
X206348485Y-63432829D01*
X206392091Y-63532700D01*
X206425147Y-63643997D01*
X206438726Y-63709377D01*
X206443952Y-63738511D01*
X206299005Y-63740638D01*
X206154058Y-63742766D01*
X206939644Y-64528212D01*
X207728882Y-63738858D01*
X207575084Y-63738858D01*
X207522112Y-63738750D01*
X207482710Y-63738308D01*
X207454818Y-63737353D01*
X207436377Y-63735705D01*
X207425326Y-63733188D01*
X207419606Y-63729623D01*
X207417257Y-63725181D01*
X207413873Y-63710599D01*
X207409060Y-63686194D01*
X207404466Y-63660704D01*
X207380757Y-63547807D01*
X207348386Y-63430959D01*
X207308700Y-63313629D01*
X207263044Y-63199283D01*
X207212762Y-63091388D01*
X207159200Y-62993412D01*
X207123999Y-62937781D01*
X207028312Y-62809612D01*
X206921708Y-62692347D01*
X206804951Y-62586508D01*
X206678807Y-62492615D01*
X206544039Y-62411186D01*
X206401413Y-62342743D01*
X206251694Y-62287806D01*
X206113877Y-62250866D01*
X206035201Y-62234594D01*
X205961194Y-62222352D01*
X205887639Y-62213726D01*
X205810319Y-62208302D01*
X205725016Y-62205665D01*
X205650047Y-62205277D01*
X205474787Y-62210953D01*
G36*
X205584826Y-60317921D02*
G01*
X205490491Y-60319936D01*
X205399284Y-60323129D01*
X205314893Y-60327437D01*
X205241006Y-60332794D01*
X205216321Y-60335106D01*
X204965985Y-60367619D01*
X204722935Y-60413896D01*
X204486986Y-60474025D01*
X204257951Y-60548096D01*
X204035645Y-60636197D01*
X203819881Y-60738418D01*
X203610474Y-60854849D01*
X203407236Y-60985579D01*
X203209983Y-61130696D01*
X203018527Y-61290291D01*
X202832684Y-61464452D01*
X202805247Y-61491870D01*
X202631661Y-61676815D01*
X202472720Y-61867109D01*
X202328332Y-62062901D01*
X202198402Y-62264337D01*
X202082836Y-62471566D01*
X201981541Y-62684736D01*
X201894422Y-62903995D01*
X201876581Y-62954716D01*
X201810450Y-63165381D01*
X201756820Y-63376644D01*
X201715408Y-63590412D01*
X201685929Y-63808596D01*
X201668102Y-64033105D01*
X201661641Y-64265847D01*
X201662774Y-64395350D01*
X201666331Y-64517795D01*
X201671827Y-64628768D01*
X201679585Y-64732341D01*
X201689927Y-64832589D01*
X201703175Y-64933586D01*
X201707886Y-64965441D01*
X201752174Y-65208515D01*
X201810331Y-65444497D01*
X201882394Y-65673456D01*
X201968403Y-65895459D01*
X202068396Y-66110574D01*
X202182410Y-66318870D01*
X202310486Y-66520415D01*
X202452660Y-66715276D01*
X202608971Y-66903522D01*
X202779458Y-67085220D01*
X202964159Y-67260438D01*
X203039709Y-67326737D01*
X203236670Y-67486039D01*
X203439961Y-67631052D01*
X203649497Y-67761742D01*
X203865194Y-67878075D01*
X204086967Y-67980016D01*
X204314731Y-68067529D01*
X204548403Y-68140582D01*
X204787899Y-68199139D01*
X205033132Y-68243166D01*
X205284020Y-68272628D01*
X205371269Y-68279366D01*
X205429427Y-68282359D01*
X205499068Y-68284471D01*
X205576412Y-68285708D01*
X205657678Y-68286076D01*
X205739087Y-68285582D01*
X205816856Y-68284232D01*
X205887207Y-68282032D01*
X205946359Y-68278989D01*
X205954847Y-68278401D01*
X206201420Y-68252955D01*
X206443009Y-68212702D01*
X206679532Y-68157667D01*
X206910911Y-68087881D01*
X207137065Y-68003370D01*
X207357915Y-67904162D01*
X207573379Y-67790285D01*
X207783378Y-67661767D01*
X207839422Y-67624363D01*
X208025703Y-67489657D01*
X208208290Y-67341606D01*
X208384788Y-67182445D01*
X208552803Y-67014407D01*
X208709938Y-66839724D01*
X208804588Y-66724335D01*
X208947006Y-66532129D01*
X209077071Y-66332244D01*
X209194248Y-66125780D01*
X209298001Y-65913837D01*
X209387794Y-65697514D01*
X209463091Y-65477910D01*
X209523356Y-65256124D01*
X209526276Y-65243661D01*
X209554086Y-65116950D01*
X209576832Y-64996862D01*
X209594882Y-64880001D01*
X209608605Y-64762968D01*
X209618367Y-64642368D01*
X209624537Y-64514804D01*
X209627337Y-64383627D01*
X208910419Y-64383627D01*
X208899318Y-64594824D01*
X208876995Y-64796560D01*
X208843015Y-64990685D01*
X208796946Y-65179050D01*
X208738352Y-65363507D01*
X208666800Y-65545904D01*
X208606976Y-65677074D01*
X208506738Y-65867269D01*
X208391939Y-66052667D01*
X208263104Y-66232575D01*
X208120753Y-66406301D01*
X207965408Y-66573153D01*
X207838355Y-66695510D01*
X207663160Y-66847122D01*
X207483642Y-66983768D01*
X207299463Y-67105599D01*
X207110286Y-67212764D01*
X206915772Y-67305412D01*
X206715584Y-67383693D01*
X206509384Y-67447755D01*
X206296834Y-67497750D01*
X206077596Y-67533825D01*
X205900140Y-67552525D01*
X205854461Y-67555122D01*
X205796504Y-67556751D01*
X205729371Y-67557467D01*
X205656163Y-67557323D01*
X205579981Y-67556373D01*
X205503928Y-67554671D01*
X205431105Y-67552272D01*
X205364613Y-67549228D01*
X205307555Y-67545595D01*
X205263186Y-67541444D01*
X205043844Y-67508614D01*
X204831887Y-67462822D01*
X204626690Y-67403772D01*
X204427629Y-67331170D01*
X204234080Y-67244720D01*
X204045419Y-67144128D01*
X203861020Y-67029098D01*
X203680261Y-66899337D01*
X203502516Y-66754548D01*
X203395976Y-66659342D01*
X203234027Y-66500196D01*
X203086526Y-66335212D01*
X202953335Y-66164171D01*
X202834316Y-65986854D01*
X202729332Y-65803042D01*
X202638245Y-65612516D01*
X202560917Y-65415057D01*
X202507768Y-65248130D01*
X202457658Y-65047954D01*
X202420030Y-64841411D01*
X202394857Y-64630370D01*
X202382107Y-64416704D01*
X202381752Y-64202284D01*
X202393762Y-63988981D01*
X202418108Y-63778667D01*
X202454758Y-63573212D01*
X202503685Y-63374489D01*
X202539269Y-63258212D01*
X202608311Y-63069080D01*
X202688291Y-62887432D01*
X202779880Y-62712249D01*
X202883749Y-62542509D01*
X203000570Y-62377193D01*
X203131013Y-62215281D01*
X203275751Y-62055752D01*
X203433023Y-61899880D01*
X203601717Y-61750444D01*
X203775963Y-61615511D01*
X203956094Y-61494929D01*
X204142443Y-61388545D01*
X204335341Y-61296205D01*
X204535121Y-61217756D01*
X204742114Y-61153045D01*
X204956654Y-61101919D01*
X205179073Y-61064225D01*
X205271001Y-61052798D01*
X205331042Y-61047499D01*
X205403146Y-61043438D01*
X205484101Y-61040614D01*
X205570694Y-61039026D01*
X205659711Y-61038674D01*
X205747939Y-61039556D01*
X205832164Y-61041673D01*
X205909174Y-61045023D01*
X205975755Y-61049606D01*
X206009555Y-61052969D01*
X206234479Y-61085709D01*
X206450424Y-61131099D01*
X206657963Y-61189416D01*
X206857669Y-61260938D01*
X207050114Y-61345941D01*
X207235873Y-61444704D01*
X207415516Y-61557504D01*
X207589618Y-61684617D01*
X207758751Y-61826321D01*
X207916612Y-61975977D01*
X208081307Y-62151052D01*
X208231081Y-62330778D01*
X208365944Y-62515178D01*
X208485906Y-62704273D01*
X208590975Y-62898088D01*
X208681161Y-63096646D01*
X208756475Y-63299969D01*
X208816925Y-63508081D01*
X208862521Y-63721004D01*
X208893272Y-63938762D01*
X208909188Y-64161377D01*
X208910419Y-64383627D01*
X209627337Y-64383627D01*
X209627482Y-64376879D01*
X209627859Y-64305474D01*
X209627707Y-64216359D01*
X209626991Y-64139912D01*
X209625543Y-64073175D01*
X209623197Y-64013189D01*
X209619787Y-63956997D01*
X209615145Y-63901641D01*
X209609105Y-63844162D01*
X209601500Y-63781603D01*
X209595911Y-63738858D01*
X209556006Y-63497931D01*
X209501199Y-63261532D01*
X209431629Y-63029935D01*
X209347435Y-62803413D01*
X209248754Y-62582239D01*
X209135727Y-62366687D01*
X209008491Y-62157031D01*
X208867185Y-61953543D01*
X208711948Y-61756497D01*
X208542918Y-61566166D01*
X208440339Y-61460674D01*
X208255801Y-61287088D01*
X208065326Y-61127927D01*
X207868761Y-60983096D01*
X207665951Y-60852497D01*
X207456744Y-60736035D01*
X207240986Y-60633613D01*
X207018524Y-60545136D01*
X206931771Y-60515008D01*
X206726987Y-60453043D01*
X206518688Y-60402876D01*
X206304631Y-60364080D01*
X206082574Y-60336229D01*
X205919678Y-60322922D01*
X205849714Y-60319585D01*
X205768125Y-60317682D01*
X205678600Y-60317149D01*
X205584826Y-60317921D01*
G37*
X205584826Y-60317921D02*
X205490491Y-60319936D01*
X205399284Y-60323129D01*
X205314893Y-60327437D01*
X205241006Y-60332794D01*
X205216321Y-60335106D01*
X204965985Y-60367619D01*
X204722935Y-60413896D01*
X204486986Y-60474025D01*
X204257951Y-60548096D01*
X204035645Y-60636197D01*
X203819881Y-60738418D01*
X203610474Y-60854849D01*
X203407236Y-60985579D01*
X203209983Y-61130696D01*
X203018527Y-61290291D01*
X202832684Y-61464452D01*
X202805247Y-61491870D01*
X202631661Y-61676815D01*
X202472720Y-61867109D01*
X202328332Y-62062901D01*
X202198402Y-62264337D01*
X202082836Y-62471566D01*
X201981541Y-62684736D01*
X201894422Y-62903995D01*
X201876581Y-62954716D01*
X201810450Y-63165381D01*
X201756820Y-63376644D01*
X201715408Y-63590412D01*
X201685929Y-63808596D01*
X201668102Y-64033105D01*
X201661641Y-64265847D01*
X201662774Y-64395350D01*
X201666331Y-64517795D01*
X201671827Y-64628768D01*
X201679585Y-64732341D01*
X201689927Y-64832589D01*
X201703175Y-64933586D01*
X201707886Y-64965441D01*
X201752174Y-65208515D01*
X201810331Y-65444497D01*
X201882394Y-65673456D01*
X201968403Y-65895459D01*
X202068396Y-66110574D01*
X202182410Y-66318870D01*
X202310486Y-66520415D01*
X202452660Y-66715276D01*
X202608971Y-66903522D01*
X202779458Y-67085220D01*
X202964159Y-67260438D01*
X203039709Y-67326737D01*
X203236670Y-67486039D01*
X203439961Y-67631052D01*
X203649497Y-67761742D01*
X203865194Y-67878075D01*
X204086967Y-67980016D01*
X204314731Y-68067529D01*
X204548403Y-68140582D01*
X204787899Y-68199139D01*
X205033132Y-68243166D01*
X205284020Y-68272628D01*
X205371269Y-68279366D01*
X205429427Y-68282359D01*
X205499068Y-68284471D01*
X205576412Y-68285708D01*
X205657678Y-68286076D01*
X205739087Y-68285582D01*
X205816856Y-68284232D01*
X205887207Y-68282032D01*
X205946359Y-68278989D01*
X205954847Y-68278401D01*
X206201420Y-68252955D01*
X206443009Y-68212702D01*
X206679532Y-68157667D01*
X206910911Y-68087881D01*
X207137065Y-68003370D01*
X207357915Y-67904162D01*
X207573379Y-67790285D01*
X207783378Y-67661767D01*
X207839422Y-67624363D01*
X208025703Y-67489657D01*
X208208290Y-67341606D01*
X208384788Y-67182445D01*
X208552803Y-67014407D01*
X208709938Y-66839724D01*
X208804588Y-66724335D01*
X208947006Y-66532129D01*
X209077071Y-66332244D01*
X209194248Y-66125780D01*
X209298001Y-65913837D01*
X209387794Y-65697514D01*
X209463091Y-65477910D01*
X209523356Y-65256124D01*
X209526276Y-65243661D01*
X209554086Y-65116950D01*
X209576832Y-64996862D01*
X209594882Y-64880001D01*
X209608605Y-64762968D01*
X209618367Y-64642368D01*
X209624537Y-64514804D01*
X209627337Y-64383627D01*
X208910419Y-64383627D01*
X208899318Y-64594824D01*
X208876995Y-64796560D01*
X208843015Y-64990685D01*
X208796946Y-65179050D01*
X208738352Y-65363507D01*
X208666800Y-65545904D01*
X208606976Y-65677074D01*
X208506738Y-65867269D01*
X208391939Y-66052667D01*
X208263104Y-66232575D01*
X208120753Y-66406301D01*
X207965408Y-66573153D01*
X207838355Y-66695510D01*
X207663160Y-66847122D01*
X207483642Y-66983768D01*
X207299463Y-67105599D01*
X207110286Y-67212764D01*
X206915772Y-67305412D01*
X206715584Y-67383693D01*
X206509384Y-67447755D01*
X206296834Y-67497750D01*
X206077596Y-67533825D01*
X205900140Y-67552525D01*
X205854461Y-67555122D01*
X205796504Y-67556751D01*
X205729371Y-67557467D01*
X205656163Y-67557323D01*
X205579981Y-67556373D01*
X205503928Y-67554671D01*
X205431105Y-67552272D01*
X205364613Y-67549228D01*
X205307555Y-67545595D01*
X205263186Y-67541444D01*
X205043844Y-67508614D01*
X204831887Y-67462822D01*
X204626690Y-67403772D01*
X204427629Y-67331170D01*
X204234080Y-67244720D01*
X204045419Y-67144128D01*
X203861020Y-67029098D01*
X203680261Y-66899337D01*
X203502516Y-66754548D01*
X203395976Y-66659342D01*
X203234027Y-66500196D01*
X203086526Y-66335212D01*
X202953335Y-66164171D01*
X202834316Y-65986854D01*
X202729332Y-65803042D01*
X202638245Y-65612516D01*
X202560917Y-65415057D01*
X202507768Y-65248130D01*
X202457658Y-65047954D01*
X202420030Y-64841411D01*
X202394857Y-64630370D01*
X202382107Y-64416704D01*
X202381752Y-64202284D01*
X202393762Y-63988981D01*
X202418108Y-63778667D01*
X202454758Y-63573212D01*
X202503685Y-63374489D01*
X202539269Y-63258212D01*
X202608311Y-63069080D01*
X202688291Y-62887432D01*
X202779880Y-62712249D01*
X202883749Y-62542509D01*
X203000570Y-62377193D01*
X203131013Y-62215281D01*
X203275751Y-62055752D01*
X203433023Y-61899880D01*
X203601717Y-61750444D01*
X203775963Y-61615511D01*
X203956094Y-61494929D01*
X204142443Y-61388545D01*
X204335341Y-61296205D01*
X204535121Y-61217756D01*
X204742114Y-61153045D01*
X204956654Y-61101919D01*
X205179073Y-61064225D01*
X205271001Y-61052798D01*
X205331042Y-61047499D01*
X205403146Y-61043438D01*
X205484101Y-61040614D01*
X205570694Y-61039026D01*
X205659711Y-61038674D01*
X205747939Y-61039556D01*
X205832164Y-61041673D01*
X205909174Y-61045023D01*
X205975755Y-61049606D01*
X206009555Y-61052969D01*
X206234479Y-61085709D01*
X206450424Y-61131099D01*
X206657963Y-61189416D01*
X206857669Y-61260938D01*
X207050114Y-61345941D01*
X207235873Y-61444704D01*
X207415516Y-61557504D01*
X207589618Y-61684617D01*
X207758751Y-61826321D01*
X207916612Y-61975977D01*
X208081307Y-62151052D01*
X208231081Y-62330778D01*
X208365944Y-62515178D01*
X208485906Y-62704273D01*
X208590975Y-62898088D01*
X208681161Y-63096646D01*
X208756475Y-63299969D01*
X208816925Y-63508081D01*
X208862521Y-63721004D01*
X208893272Y-63938762D01*
X208909188Y-64161377D01*
X208910419Y-64383627D01*
X209627337Y-64383627D01*
X209627482Y-64376879D01*
X209627859Y-64305474D01*
X209627707Y-64216359D01*
X209626991Y-64139912D01*
X209625543Y-64073175D01*
X209623197Y-64013189D01*
X209619787Y-63956997D01*
X209615145Y-63901641D01*
X209609105Y-63844162D01*
X209601500Y-63781603D01*
X209595911Y-63738858D01*
X209556006Y-63497931D01*
X209501199Y-63261532D01*
X209431629Y-63029935D01*
X209347435Y-62803413D01*
X209248754Y-62582239D01*
X209135727Y-62366687D01*
X209008491Y-62157031D01*
X208867185Y-61953543D01*
X208711948Y-61756497D01*
X208542918Y-61566166D01*
X208440339Y-61460674D01*
X208255801Y-61287088D01*
X208065326Y-61127927D01*
X207868761Y-60983096D01*
X207665951Y-60852497D01*
X207456744Y-60736035D01*
X207240986Y-60633613D01*
X207018524Y-60545136D01*
X206931771Y-60515008D01*
X206726987Y-60453043D01*
X206518688Y-60402876D01*
X206304631Y-60364080D01*
X206082574Y-60336229D01*
X205919678Y-60322922D01*
X205849714Y-60319585D01*
X205768125Y-60317682D01*
X205678600Y-60317149D01*
X205584826Y-60317921D01*
G36*
X204351288Y-54308997D02*
G01*
X204281380Y-54311599D01*
X204220210Y-54316459D01*
X204164362Y-54324021D01*
X204110418Y-54334732D01*
X204054962Y-54349038D01*
X204004662Y-54364175D01*
X203887356Y-54409264D01*
X203776993Y-54467881D01*
X203674813Y-54539122D01*
X203582058Y-54622083D01*
X203499970Y-54715858D01*
X203474234Y-54750719D01*
X203452649Y-54782309D01*
X203432664Y-54813324D01*
X203415912Y-54841017D01*
X203404028Y-54862637D01*
X203398645Y-54875437D01*
X203398817Y-54877618D01*
X203406736Y-54882047D01*
X203426517Y-54892644D01*
X203456298Y-54908434D01*
X203494217Y-54928444D01*
X203538411Y-54951697D01*
X203587017Y-54977218D01*
X203638172Y-55004033D01*
X203690015Y-55031167D01*
X203740683Y-55057645D01*
X203788313Y-55082491D01*
X203831043Y-55104732D01*
X203867010Y-55123391D01*
X203894351Y-55137493D01*
X203911205Y-55146065D01*
X203915883Y-55148285D01*
X203921019Y-55142063D01*
X203932308Y-55125312D01*
X203947858Y-55100903D01*
X203958986Y-55082893D01*
X204008364Y-55012429D01*
X204062660Y-54955493D01*
X204123801Y-54910272D01*
X204167610Y-54886546D01*
X204216980Y-54864394D01*
X204258697Y-54849542D01*
X204298165Y-54840699D01*
X204340789Y-54836575D01*
X204380150Y-54835805D01*
X204472514Y-54842486D01*
X204556137Y-54862031D01*
X204630899Y-54894268D01*
X204696680Y-54939024D01*
X204753361Y-54996124D01*
X204800821Y-55065396D01*
X204838941Y-55146667D01*
X204867602Y-55239763D01*
X204886683Y-55344511D01*
X204896066Y-55460738D01*
X204895871Y-55582039D01*
X204890008Y-55675230D01*
X204879466Y-55756670D01*
X204863668Y-55829691D01*
X204842033Y-55897627D01*
X204840249Y-55902374D01*
X204808181Y-55972098D01*
X204767345Y-56037598D01*
X204720049Y-56096017D01*
X204668604Y-56144499D01*
X204615810Y-56179926D01*
X204545931Y-56209068D01*
X204468144Y-56227435D01*
X204385854Y-56235037D01*
X204302469Y-56231884D01*
X204221394Y-56217985D01*
X204146036Y-56193351D01*
X204114374Y-56178492D01*
X204065349Y-56146659D01*
X204016048Y-56103503D01*
X203970106Y-56052835D01*
X203931161Y-55998465D01*
X203914317Y-55968900D01*
X203899418Y-55940081D01*
X203887373Y-55917032D01*
X203879839Y-55902913D01*
X203878194Y-55900065D01*
X203871170Y-55902965D01*
X203852100Y-55911916D01*
X203822912Y-55925965D01*
X203785532Y-55944157D01*
X203741887Y-55965538D01*
X203693904Y-55989154D01*
X203643510Y-56014051D01*
X203592631Y-56039273D01*
X203543196Y-56063868D01*
X203497130Y-56086880D01*
X203456360Y-56107355D01*
X203422814Y-56124339D01*
X203398418Y-56136877D01*
X203385100Y-56144016D01*
X203383267Y-56145179D01*
X203385567Y-56152989D01*
X203395693Y-56170800D01*
X203411964Y-56196205D01*
X203432700Y-56226797D01*
X203456222Y-56260171D01*
X203480849Y-56293918D01*
X203504900Y-56325631D01*
X203526697Y-56352904D01*
X203535556Y-56363356D01*
X203622975Y-56453220D01*
X203720050Y-56533659D01*
X203824889Y-56603695D01*
X203935601Y-56662353D01*
X204050292Y-56708654D01*
X204167071Y-56741623D01*
X204284046Y-56760283D01*
X204308304Y-56762281D01*
X204342899Y-56764670D01*
X204375768Y-56766963D01*
X204400313Y-56768699D01*
X204402089Y-56768827D01*
X204422437Y-56769258D01*
X204453873Y-56768714D01*
X204491895Y-56767316D01*
X204527135Y-56765480D01*
X204667739Y-56750614D01*
X204799125Y-56723258D01*
X204921698Y-56683240D01*
X205035865Y-56630387D01*
X205142030Y-56564526D01*
X205240600Y-56485484D01*
X205285658Y-56442486D01*
X205367380Y-56349084D01*
X205437365Y-56245425D01*
X205495557Y-56131641D01*
X205541900Y-56007860D01*
X205576339Y-55874212D01*
X205598817Y-55730828D01*
X205601233Y-55707682D01*
X205609075Y-55569777D01*
X205606017Y-55432427D01*
X205592356Y-55298546D01*
X205568393Y-55171047D01*
X205534426Y-55052844D01*
X205533784Y-55050989D01*
X205483102Y-54927913D01*
X205420036Y-54814024D01*
X205345240Y-54709888D01*
X205259367Y-54616070D01*
X205163072Y-54533135D01*
X205057006Y-54461647D01*
X204941824Y-54402171D01*
X204818178Y-54355273D01*
X204690975Y-54322373D01*
X204663772Y-54317491D01*
X204634825Y-54313812D01*
X204601469Y-54311191D01*
X204561041Y-54309481D01*
X204510875Y-54308536D01*
X204448308Y-54308209D01*
X204433351Y-54308205D01*
X204351288Y-54308997D01*
G37*
X204351288Y-54308997D02*
X204281380Y-54311599D01*
X204220210Y-54316459D01*
X204164362Y-54324021D01*
X204110418Y-54334732D01*
X204054962Y-54349038D01*
X204004662Y-54364175D01*
X203887356Y-54409264D01*
X203776993Y-54467881D01*
X203674813Y-54539122D01*
X203582058Y-54622083D01*
X203499970Y-54715858D01*
X203474234Y-54750719D01*
X203452649Y-54782309D01*
X203432664Y-54813324D01*
X203415912Y-54841017D01*
X203404028Y-54862637D01*
X203398645Y-54875437D01*
X203398817Y-54877618D01*
X203406736Y-54882047D01*
X203426517Y-54892644D01*
X203456298Y-54908434D01*
X203494217Y-54928444D01*
X203538411Y-54951697D01*
X203587017Y-54977218D01*
X203638172Y-55004033D01*
X203690015Y-55031167D01*
X203740683Y-55057645D01*
X203788313Y-55082491D01*
X203831043Y-55104732D01*
X203867010Y-55123391D01*
X203894351Y-55137493D01*
X203911205Y-55146065D01*
X203915883Y-55148285D01*
X203921019Y-55142063D01*
X203932308Y-55125312D01*
X203947858Y-55100903D01*
X203958986Y-55082893D01*
X204008364Y-55012429D01*
X204062660Y-54955493D01*
X204123801Y-54910272D01*
X204167610Y-54886546D01*
X204216980Y-54864394D01*
X204258697Y-54849542D01*
X204298165Y-54840699D01*
X204340789Y-54836575D01*
X204380150Y-54835805D01*
X204472514Y-54842486D01*
X204556137Y-54862031D01*
X204630899Y-54894268D01*
X204696680Y-54939024D01*
X204753361Y-54996124D01*
X204800821Y-55065396D01*
X204838941Y-55146667D01*
X204867602Y-55239763D01*
X204886683Y-55344511D01*
X204896066Y-55460738D01*
X204895871Y-55582039D01*
X204890008Y-55675230D01*
X204879466Y-55756670D01*
X204863668Y-55829691D01*
X204842033Y-55897627D01*
X204840249Y-55902374D01*
X204808181Y-55972098D01*
X204767345Y-56037598D01*
X204720049Y-56096017D01*
X204668604Y-56144499D01*
X204615810Y-56179926D01*
X204545931Y-56209068D01*
X204468144Y-56227435D01*
X204385854Y-56235037D01*
X204302469Y-56231884D01*
X204221394Y-56217985D01*
X204146036Y-56193351D01*
X204114374Y-56178492D01*
X204065349Y-56146659D01*
X204016048Y-56103503D01*
X203970106Y-56052835D01*
X203931161Y-55998465D01*
X203914317Y-55968900D01*
X203899418Y-55940081D01*
X203887373Y-55917032D01*
X203879839Y-55902913D01*
X203878194Y-55900065D01*
X203871170Y-55902965D01*
X203852100Y-55911916D01*
X203822912Y-55925965D01*
X203785532Y-55944157D01*
X203741887Y-55965538D01*
X203693904Y-55989154D01*
X203643510Y-56014051D01*
X203592631Y-56039273D01*
X203543196Y-56063868D01*
X203497130Y-56086880D01*
X203456360Y-56107355D01*
X203422814Y-56124339D01*
X203398418Y-56136877D01*
X203385100Y-56144016D01*
X203383267Y-56145179D01*
X203385567Y-56152989D01*
X203395693Y-56170800D01*
X203411964Y-56196205D01*
X203432700Y-56226797D01*
X203456222Y-56260171D01*
X203480849Y-56293918D01*
X203504900Y-56325631D01*
X203526697Y-56352904D01*
X203535556Y-56363356D01*
X203622975Y-56453220D01*
X203720050Y-56533659D01*
X203824889Y-56603695D01*
X203935601Y-56662353D01*
X204050292Y-56708654D01*
X204167071Y-56741623D01*
X204284046Y-56760283D01*
X204308304Y-56762281D01*
X204342899Y-56764670D01*
X204375768Y-56766963D01*
X204400313Y-56768699D01*
X204402089Y-56768827D01*
X204422437Y-56769258D01*
X204453873Y-56768714D01*
X204491895Y-56767316D01*
X204527135Y-56765480D01*
X204667739Y-56750614D01*
X204799125Y-56723258D01*
X204921698Y-56683240D01*
X205035865Y-56630387D01*
X205142030Y-56564526D01*
X205240600Y-56485484D01*
X205285658Y-56442486D01*
X205367380Y-56349084D01*
X205437365Y-56245425D01*
X205495557Y-56131641D01*
X205541900Y-56007860D01*
X205576339Y-55874212D01*
X205598817Y-55730828D01*
X205601233Y-55707682D01*
X205609075Y-55569777D01*
X205606017Y-55432427D01*
X205592356Y-55298546D01*
X205568393Y-55171047D01*
X205534426Y-55052844D01*
X205533784Y-55050989D01*
X205483102Y-54927913D01*
X205420036Y-54814024D01*
X205345240Y-54709888D01*
X205259367Y-54616070D01*
X205163072Y-54533135D01*
X205057006Y-54461647D01*
X204941824Y-54402171D01*
X204818178Y-54355273D01*
X204690975Y-54322373D01*
X204663772Y-54317491D01*
X204634825Y-54313812D01*
X204601469Y-54311191D01*
X204561041Y-54309481D01*
X204510875Y-54308536D01*
X204448308Y-54308209D01*
X204433351Y-54308205D01*
X204351288Y-54308997D01*
G36*
X206672181Y-54308436D02*
G01*
X206622116Y-54309006D01*
X206581893Y-54310192D01*
X206548618Y-54312180D01*
X206519398Y-54315155D01*
X206491339Y-54319303D01*
X206461548Y-54324810D01*
X206453984Y-54326321D01*
X206321390Y-54359565D01*
X206199744Y-54403691D01*
X206088516Y-54458969D01*
X205987177Y-54525670D01*
X205895196Y-54604065D01*
X205878534Y-54620507D01*
X205830418Y-54672715D01*
X205783037Y-54730658D01*
X205740566Y-54788987D01*
X205712255Y-54833490D01*
X205688392Y-54874294D01*
X205752533Y-54908728D01*
X205795232Y-54931496D01*
X205843356Y-54956895D01*
X205895061Y-54983977D01*
X205948504Y-55011794D01*
X206001843Y-55039401D01*
X206053235Y-55065849D01*
X206100836Y-55090191D01*
X206142803Y-55111480D01*
X206177294Y-55128770D01*
X206202465Y-55141112D01*
X206216473Y-55147559D01*
X206218646Y-55148285D01*
X206226624Y-55141847D01*
X206230768Y-55133036D01*
X206241479Y-55109989D01*
X206260363Y-55079371D01*
X206284728Y-55044844D01*
X206311878Y-55010073D01*
X206339119Y-54978719D01*
X206358930Y-54958778D01*
X206405540Y-54922352D01*
X206461573Y-54888807D01*
X206520864Y-54861396D01*
X206577249Y-54843373D01*
X206577859Y-54843232D01*
X206631967Y-54836035D01*
X206693863Y-54836319D01*
X206759215Y-54843348D01*
X206823693Y-54856391D01*
X206882965Y-54874714D01*
X206932701Y-54897582D01*
X206945552Y-54905510D01*
X207007505Y-54954394D01*
X207059850Y-55012220D01*
X207102861Y-55079690D01*
X207136811Y-55157504D01*
X207161974Y-55246364D01*
X207178623Y-55346971D01*
X207187031Y-55460027D01*
X207188242Y-55527908D01*
X207185725Y-55628684D01*
X207177712Y-55717541D01*
X207163592Y-55797407D01*
X207142749Y-55871213D01*
X207114572Y-55941887D01*
X207091984Y-55987627D01*
X207045799Y-56059842D01*
X206989848Y-56120005D01*
X206923510Y-56168657D01*
X206846160Y-56206342D01*
X206837516Y-56209633D01*
X206794872Y-56221245D01*
X206741803Y-56229323D01*
X206683160Y-56233652D01*
X206623791Y-56234016D01*
X206568546Y-56230201D01*
X206527874Y-56223377D01*
X206446654Y-56196486D01*
X206372333Y-56155860D01*
X206305811Y-56102196D01*
X206247988Y-56036193D01*
X206209397Y-55976402D01*
X206193282Y-55947490D01*
X206180263Y-55923743D01*
X206172118Y-55908421D01*
X206170320Y-55904660D01*
X206163155Y-55906737D01*
X206143658Y-55915160D01*
X206113419Y-55929171D01*
X206074028Y-55948011D01*
X206027074Y-55970918D01*
X205974149Y-55997136D01*
X205924076Y-56022252D01*
X205679786Y-56145469D01*
X205707681Y-56191794D01*
X205783488Y-56303222D01*
X205870806Y-56405518D01*
X205968185Y-56497278D01*
X206074177Y-56577103D01*
X206160551Y-56629447D01*
X206275217Y-56683948D01*
X206394942Y-56724793D01*
X206520620Y-56752162D01*
X206653142Y-56766239D01*
X206793403Y-56767205D01*
X206828766Y-56765480D01*
X206966883Y-56750356D01*
X207097977Y-56721960D01*
X207221462Y-56680660D01*
X207336754Y-56626827D01*
X207443267Y-56560828D01*
X207540415Y-56483033D01*
X207627615Y-56393812D01*
X207704279Y-56293534D01*
X207769824Y-56182568D01*
X207777845Y-56166675D01*
X207827615Y-56049248D01*
X207865333Y-55922378D01*
X207891038Y-55785879D01*
X207904768Y-55639567D01*
X207907289Y-55539054D01*
X207901630Y-55389228D01*
X207884486Y-55249600D01*
X207855608Y-55119501D01*
X207814747Y-54998264D01*
X207761654Y-54885219D01*
X207696081Y-54779699D01*
X207617777Y-54681035D01*
X207567837Y-54628092D01*
X207476873Y-54545356D01*
X207382362Y-54476115D01*
X207282076Y-54419165D01*
X207173787Y-54373306D01*
X207055267Y-54337336D01*
X207008520Y-54326324D01*
X206980648Y-54320536D01*
X206954825Y-54316125D01*
X206928272Y-54312908D01*
X206898211Y-54310702D01*
X206861864Y-54309324D01*
X206816451Y-54308590D01*
X206759194Y-54308317D01*
X206734981Y-54308297D01*
X206672181Y-54308436D01*
G37*
X206672181Y-54308436D02*
X206622116Y-54309006D01*
X206581893Y-54310192D01*
X206548618Y-54312180D01*
X206519398Y-54315155D01*
X206491339Y-54319303D01*
X206461548Y-54324810D01*
X206453984Y-54326321D01*
X206321390Y-54359565D01*
X206199744Y-54403691D01*
X206088516Y-54458969D01*
X205987177Y-54525670D01*
X205895196Y-54604065D01*
X205878534Y-54620507D01*
X205830418Y-54672715D01*
X205783037Y-54730658D01*
X205740566Y-54788987D01*
X205712255Y-54833490D01*
X205688392Y-54874294D01*
X205752533Y-54908728D01*
X205795232Y-54931496D01*
X205843356Y-54956895D01*
X205895061Y-54983977D01*
X205948504Y-55011794D01*
X206001843Y-55039401D01*
X206053235Y-55065849D01*
X206100836Y-55090191D01*
X206142803Y-55111480D01*
X206177294Y-55128770D01*
X206202465Y-55141112D01*
X206216473Y-55147559D01*
X206218646Y-55148285D01*
X206226624Y-55141847D01*
X206230768Y-55133036D01*
X206241479Y-55109989D01*
X206260363Y-55079371D01*
X206284728Y-55044844D01*
X206311878Y-55010073D01*
X206339119Y-54978719D01*
X206358930Y-54958778D01*
X206405540Y-54922352D01*
X206461573Y-54888807D01*
X206520864Y-54861396D01*
X206577249Y-54843373D01*
X206577859Y-54843232D01*
X206631967Y-54836035D01*
X206693863Y-54836319D01*
X206759215Y-54843348D01*
X206823693Y-54856391D01*
X206882965Y-54874714D01*
X206932701Y-54897582D01*
X206945552Y-54905510D01*
X207007505Y-54954394D01*
X207059850Y-55012220D01*
X207102861Y-55079690D01*
X207136811Y-55157504D01*
X207161974Y-55246364D01*
X207178623Y-55346971D01*
X207187031Y-55460027D01*
X207188242Y-55527908D01*
X207185725Y-55628684D01*
X207177712Y-55717541D01*
X207163592Y-55797407D01*
X207142749Y-55871213D01*
X207114572Y-55941887D01*
X207091984Y-55987627D01*
X207045799Y-56059842D01*
X206989848Y-56120005D01*
X206923510Y-56168657D01*
X206846160Y-56206342D01*
X206837516Y-56209633D01*
X206794872Y-56221245D01*
X206741803Y-56229323D01*
X206683160Y-56233652D01*
X206623791Y-56234016D01*
X206568546Y-56230201D01*
X206527874Y-56223377D01*
X206446654Y-56196486D01*
X206372333Y-56155860D01*
X206305811Y-56102196D01*
X206247988Y-56036193D01*
X206209397Y-55976402D01*
X206193282Y-55947490D01*
X206180263Y-55923743D01*
X206172118Y-55908421D01*
X206170320Y-55904660D01*
X206163155Y-55906737D01*
X206143658Y-55915160D01*
X206113419Y-55929171D01*
X206074028Y-55948011D01*
X206027074Y-55970918D01*
X205974149Y-55997136D01*
X205924076Y-56022252D01*
X205679786Y-56145469D01*
X205707681Y-56191794D01*
X205783488Y-56303222D01*
X205870806Y-56405518D01*
X205968185Y-56497278D01*
X206074177Y-56577103D01*
X206160551Y-56629447D01*
X206275217Y-56683948D01*
X206394942Y-56724793D01*
X206520620Y-56752162D01*
X206653142Y-56766239D01*
X206793403Y-56767205D01*
X206828766Y-56765480D01*
X206966883Y-56750356D01*
X207097977Y-56721960D01*
X207221462Y-56680660D01*
X207336754Y-56626827D01*
X207443267Y-56560828D01*
X207540415Y-56483033D01*
X207627615Y-56393812D01*
X207704279Y-56293534D01*
X207769824Y-56182568D01*
X207777845Y-56166675D01*
X207827615Y-56049248D01*
X207865333Y-55922378D01*
X207891038Y-55785879D01*
X207904768Y-55639567D01*
X207907289Y-55539054D01*
X207901630Y-55389228D01*
X207884486Y-55249600D01*
X207855608Y-55119501D01*
X207814747Y-54998264D01*
X207761654Y-54885219D01*
X207696081Y-54779699D01*
X207617777Y-54681035D01*
X207567837Y-54628092D01*
X207476873Y-54545356D01*
X207382362Y-54476115D01*
X207282076Y-54419165D01*
X207173787Y-54373306D01*
X207055267Y-54337336D01*
X207008520Y-54326324D01*
X206980648Y-54320536D01*
X206954825Y-54316125D01*
X206928272Y-54312908D01*
X206898211Y-54310702D01*
X206861864Y-54309324D01*
X206816451Y-54308590D01*
X206759194Y-54308317D01*
X206734981Y-54308297D01*
X206672181Y-54308436D01*
G36*
X205587946Y-51563216D02*
G01*
X205493758Y-51565216D01*
X205402681Y-51568389D01*
X205318395Y-51572672D01*
X205244582Y-51578002D01*
X205219229Y-51580371D01*
X204970023Y-51612600D01*
X204728369Y-51658248D01*
X204493961Y-51717467D01*
X204266491Y-51790410D01*
X204045650Y-51877228D01*
X203831131Y-51978074D01*
X203622625Y-52093099D01*
X203419826Y-52222455D01*
X203222424Y-52366295D01*
X203030113Y-52524771D01*
X202842583Y-52698035D01*
X202733256Y-52808091D01*
X202576129Y-52982420D01*
X202430300Y-53167149D01*
X202296127Y-53361520D01*
X202173966Y-53564771D01*
X202064173Y-53776142D01*
X201967104Y-53994874D01*
X201883115Y-54220206D01*
X201812564Y-54451378D01*
X201755806Y-54687629D01*
X201713197Y-54928200D01*
X201702402Y-55007608D01*
X201682496Y-55210638D01*
X201672499Y-55421617D01*
X201672357Y-55636453D01*
X201682013Y-55851052D01*
X201701414Y-56061320D01*
X201718314Y-56187731D01*
X201761718Y-56424797D01*
X201819894Y-56659127D01*
X201892354Y-56889191D01*
X201978611Y-57113460D01*
X202078178Y-57330404D01*
X202088802Y-57351544D01*
X202188379Y-57535730D01*
X202295879Y-57710117D01*
X202412950Y-57876960D01*
X202541242Y-58038512D01*
X202682403Y-58197027D01*
X202784137Y-58301793D01*
X202954210Y-58463471D01*
X203126456Y-58611074D01*
X203303010Y-58746156D01*
X203486009Y-58870271D01*
X203677589Y-58984976D01*
X203847197Y-59075437D01*
X204075193Y-59182514D01*
X204305985Y-59274277D01*
X204540146Y-59350885D01*
X204778249Y-59412498D01*
X205020868Y-59459273D01*
X205268578Y-59491370D01*
X205386828Y-59501423D01*
X205424432Y-59503457D01*
X205473047Y-59505127D01*
X205529582Y-59506416D01*
X205590941Y-59507308D01*
X205654033Y-59507785D01*
X205715765Y-59507830D01*
X205773043Y-59507426D01*
X205822776Y-59506557D01*
X205861869Y-59505204D01*
X205879197Y-59504133D01*
X205953782Y-59498025D01*
X206015881Y-59492624D01*
X206068603Y-59487598D01*
X206115058Y-59482617D01*
X206158354Y-59477348D01*
X206201603Y-59471461D01*
X206242612Y-59465428D01*
X206483314Y-59421229D01*
X206719873Y-59362105D01*
X206951766Y-59288338D01*
X207178469Y-59200210D01*
X207399459Y-59098001D01*
X207614214Y-58981993D01*
X207822210Y-58852467D01*
X208022924Y-58709705D01*
X208215834Y-58553988D01*
X208400416Y-58385596D01*
X208566028Y-58215824D01*
X208715830Y-58045191D01*
X208851774Y-57872793D01*
X208975612Y-57696104D01*
X209089098Y-57512599D01*
X209193987Y-57319753D01*
X209209169Y-57289700D01*
X209309359Y-57073831D01*
X209395127Y-56855165D01*
X209466776Y-56632576D01*
X209524610Y-56404934D01*
X209568932Y-56171113D01*
X209600046Y-55929984D01*
X209611693Y-55793054D01*
X209614491Y-55739086D01*
X209616293Y-55673806D01*
X209617143Y-55600463D01*
X209617123Y-55572791D01*
X208899427Y-55572791D01*
X208893183Y-55745149D01*
X208878658Y-55913422D01*
X208855936Y-56073720D01*
X208844913Y-56133024D01*
X208794008Y-56348782D01*
X208728639Y-56559539D01*
X208649347Y-56764668D01*
X208556675Y-56963539D01*
X208451164Y-57155524D01*
X208333356Y-57339994D01*
X208203794Y-57516321D01*
X208063020Y-57683876D01*
X207911575Y-57842032D01*
X207750003Y-57990158D01*
X207578844Y-58127627D01*
X207398642Y-58253810D01*
X207209937Y-58368079D01*
X207013273Y-58469806D01*
X206809191Y-58558360D01*
X206726032Y-58589798D01*
X206517167Y-58657201D01*
X206303857Y-58709684D01*
X206086467Y-58747200D01*
X205865363Y-58769702D01*
X205640911Y-58777140D01*
X205413477Y-58769468D01*
X205371197Y-58766396D01*
X205156744Y-58741756D01*
X204944128Y-58702026D01*
X204734208Y-58647715D01*
X204527841Y-58579332D01*
X204325884Y-58497386D01*
X204129194Y-58402389D01*
X203938630Y-58294848D01*
X203755048Y-58175273D01*
X203579306Y-58044175D01*
X203412262Y-57902061D01*
X203254773Y-57749443D01*
X203107696Y-57586829D01*
X202971889Y-57414728D01*
X202883661Y-57288391D01*
X202775983Y-57111800D01*
X202681038Y-56926476D01*
X202599097Y-56733126D01*
X202530431Y-56532454D01*
X202475313Y-56325164D01*
X202436791Y-56129146D01*
X202425361Y-56057692D01*
X202416098Y-55994487D01*
X202408785Y-55936532D01*
X202403202Y-55880827D01*
X202399133Y-55824369D01*
X202396359Y-55764160D01*
X202394662Y-55697199D01*
X202393824Y-55620486D01*
X202393625Y-55535147D01*
X202394621Y-55415646D01*
X202397765Y-55308439D01*
X202403424Y-55210290D01*
X202411965Y-55117963D01*
X202423752Y-55028222D01*
X202439153Y-54937832D01*
X202458533Y-54843557D01*
X202482257Y-54742162D01*
X202484249Y-54734070D01*
X202512967Y-54623956D01*
X202542887Y-54522671D01*
X202575486Y-54426231D01*
X202612240Y-54330652D01*
X202654623Y-54231951D01*
X202704111Y-54126144D01*
X202725957Y-54081485D01*
X202806108Y-53928098D01*
X202889766Y-53786066D01*
X202979432Y-53651756D01*
X203077610Y-53521537D01*
X203186804Y-53391777D01*
X203247710Y-53324421D01*
X203407129Y-53162796D01*
X203574772Y-53013804D01*
X203750090Y-52877746D01*
X203932536Y-52754928D01*
X204121560Y-52645652D01*
X204316615Y-52550220D01*
X204517151Y-52468937D01*
X204722620Y-52402106D01*
X204932474Y-52350030D01*
X205050766Y-52327584D01*
X205120353Y-52316159D01*
X205182360Y-52306896D01*
X205239747Y-52299576D01*
X205295475Y-52293981D01*
X205352504Y-52289891D01*
X205413795Y-52287087D01*
X205482309Y-52285350D01*
X205561007Y-52284460D01*
X205636920Y-52284208D01*
X205720633Y-52284302D01*
X205791573Y-52284878D01*
X205852595Y-52286124D01*
X205906555Y-52288229D01*
X205956308Y-52291381D01*
X206004710Y-52295769D01*
X206054615Y-52301582D01*
X206108878Y-52309008D01*
X206170356Y-52318235D01*
X206183997Y-52320349D01*
X206400807Y-52361604D01*
X206610912Y-52416890D01*
X206814388Y-52486252D01*
X207011310Y-52569733D01*
X207201755Y-52667376D01*
X207385798Y-52779225D01*
X207563517Y-52905322D01*
X207734986Y-53045712D01*
X207900282Y-53200437D01*
X208059481Y-53369541D01*
X208092469Y-53407259D01*
X208237511Y-53586633D01*
X208368871Y-53772868D01*
X208486338Y-53965513D01*
X208589700Y-54164113D01*
X208678746Y-54368216D01*
X208753266Y-54577369D01*
X208813048Y-54791120D01*
X208857882Y-55009014D01*
X208867641Y-55070131D01*
X208886739Y-55231391D01*
X208897307Y-55400242D01*
X208899427Y-55572791D01*
X209617123Y-55572791D01*
X209617084Y-55522304D01*
X209616157Y-55442579D01*
X209614406Y-55364534D01*
X209611874Y-55291418D01*
X209608604Y-55226479D01*
X209604637Y-55172965D01*
X209603358Y-55160008D01*
X209572638Y-54925593D01*
X209530961Y-54700734D01*
X209477711Y-54483260D01*
X209412266Y-54271002D01*
X209334006Y-54061790D01*
X209242313Y-53853452D01*
X209212840Y-53792316D01*
X209100741Y-53580078D01*
X208977233Y-53376701D01*
X208841548Y-53181143D01*
X208692920Y-52992360D01*
X208530581Y-52809311D01*
X208370050Y-52646607D01*
X208184765Y-52477466D01*
X207994310Y-52323010D01*
X207798418Y-52183120D01*
X207596818Y-52057678D01*
X207389244Y-51946566D01*
X207175427Y-51849665D01*
X206955098Y-51766857D01*
X206727988Y-51698024D01*
X206493830Y-51643048D01*
X206252355Y-51601809D01*
X206003294Y-51574192D01*
X205922181Y-51568226D01*
X205852362Y-51564895D01*
X205770930Y-51562992D01*
X205681564Y-51562454D01*
X205587946Y-51563216D01*
G37*
X205587946Y-51563216D02*
X205493758Y-51565216D01*
X205402681Y-51568389D01*
X205318395Y-51572672D01*
X205244582Y-51578002D01*
X205219229Y-51580371D01*
X204970023Y-51612600D01*
X204728369Y-51658248D01*
X204493961Y-51717467D01*
X204266491Y-51790410D01*
X204045650Y-51877228D01*
X203831131Y-51978074D01*
X203622625Y-52093099D01*
X203419826Y-52222455D01*
X203222424Y-52366295D01*
X203030113Y-52524771D01*
X202842583Y-52698035D01*
X202733256Y-52808091D01*
X202576129Y-52982420D01*
X202430300Y-53167149D01*
X202296127Y-53361520D01*
X202173966Y-53564771D01*
X202064173Y-53776142D01*
X201967104Y-53994874D01*
X201883115Y-54220206D01*
X201812564Y-54451378D01*
X201755806Y-54687629D01*
X201713197Y-54928200D01*
X201702402Y-55007608D01*
X201682496Y-55210638D01*
X201672499Y-55421617D01*
X201672357Y-55636453D01*
X201682013Y-55851052D01*
X201701414Y-56061320D01*
X201718314Y-56187731D01*
X201761718Y-56424797D01*
X201819894Y-56659127D01*
X201892354Y-56889191D01*
X201978611Y-57113460D01*
X202078178Y-57330404D01*
X202088802Y-57351544D01*
X202188379Y-57535730D01*
X202295879Y-57710117D01*
X202412950Y-57876960D01*
X202541242Y-58038512D01*
X202682403Y-58197027D01*
X202784137Y-58301793D01*
X202954210Y-58463471D01*
X203126456Y-58611074D01*
X203303010Y-58746156D01*
X203486009Y-58870271D01*
X203677589Y-58984976D01*
X203847197Y-59075437D01*
X204075193Y-59182514D01*
X204305985Y-59274277D01*
X204540146Y-59350885D01*
X204778249Y-59412498D01*
X205020868Y-59459273D01*
X205268578Y-59491370D01*
X205386828Y-59501423D01*
X205424432Y-59503457D01*
X205473047Y-59505127D01*
X205529582Y-59506416D01*
X205590941Y-59507308D01*
X205654033Y-59507785D01*
X205715765Y-59507830D01*
X205773043Y-59507426D01*
X205822776Y-59506557D01*
X205861869Y-59505204D01*
X205879197Y-59504133D01*
X205953782Y-59498025D01*
X206015881Y-59492624D01*
X206068603Y-59487598D01*
X206115058Y-59482617D01*
X206158354Y-59477348D01*
X206201603Y-59471461D01*
X206242612Y-59465428D01*
X206483314Y-59421229D01*
X206719873Y-59362105D01*
X206951766Y-59288338D01*
X207178469Y-59200210D01*
X207399459Y-59098001D01*
X207614214Y-58981993D01*
X207822210Y-58852467D01*
X208022924Y-58709705D01*
X208215834Y-58553988D01*
X208400416Y-58385596D01*
X208566028Y-58215824D01*
X208715830Y-58045191D01*
X208851774Y-57872793D01*
X208975612Y-57696104D01*
X209089098Y-57512599D01*
X209193987Y-57319753D01*
X209209169Y-57289700D01*
X209309359Y-57073831D01*
X209395127Y-56855165D01*
X209466776Y-56632576D01*
X209524610Y-56404934D01*
X209568932Y-56171113D01*
X209600046Y-55929984D01*
X209611693Y-55793054D01*
X209614491Y-55739086D01*
X209616293Y-55673806D01*
X209617143Y-55600463D01*
X209617123Y-55572791D01*
X208899427Y-55572791D01*
X208893183Y-55745149D01*
X208878658Y-55913422D01*
X208855936Y-56073720D01*
X208844913Y-56133024D01*
X208794008Y-56348782D01*
X208728639Y-56559539D01*
X208649347Y-56764668D01*
X208556675Y-56963539D01*
X208451164Y-57155524D01*
X208333356Y-57339994D01*
X208203794Y-57516321D01*
X208063020Y-57683876D01*
X207911575Y-57842032D01*
X207750003Y-57990158D01*
X207578844Y-58127627D01*
X207398642Y-58253810D01*
X207209937Y-58368079D01*
X207013273Y-58469806D01*
X206809191Y-58558360D01*
X206726032Y-58589798D01*
X206517167Y-58657201D01*
X206303857Y-58709684D01*
X206086467Y-58747200D01*
X205865363Y-58769702D01*
X205640911Y-58777140D01*
X205413477Y-58769468D01*
X205371197Y-58766396D01*
X205156744Y-58741756D01*
X204944128Y-58702026D01*
X204734208Y-58647715D01*
X204527841Y-58579332D01*
X204325884Y-58497386D01*
X204129194Y-58402389D01*
X203938630Y-58294848D01*
X203755048Y-58175273D01*
X203579306Y-58044175D01*
X203412262Y-57902061D01*
X203254773Y-57749443D01*
X203107696Y-57586829D01*
X202971889Y-57414728D01*
X202883661Y-57288391D01*
X202775983Y-57111800D01*
X202681038Y-56926476D01*
X202599097Y-56733126D01*
X202530431Y-56532454D01*
X202475313Y-56325164D01*
X202436791Y-56129146D01*
X202425361Y-56057692D01*
X202416098Y-55994487D01*
X202408785Y-55936532D01*
X202403202Y-55880827D01*
X202399133Y-55824369D01*
X202396359Y-55764160D01*
X202394662Y-55697199D01*
X202393824Y-55620486D01*
X202393625Y-55535147D01*
X202394621Y-55415646D01*
X202397765Y-55308439D01*
X202403424Y-55210290D01*
X202411965Y-55117963D01*
X202423752Y-55028222D01*
X202439153Y-54937832D01*
X202458533Y-54843557D01*
X202482257Y-54742162D01*
X202484249Y-54734070D01*
X202512967Y-54623956D01*
X202542887Y-54522671D01*
X202575486Y-54426231D01*
X202612240Y-54330652D01*
X202654623Y-54231951D01*
X202704111Y-54126144D01*
X202725957Y-54081485D01*
X202806108Y-53928098D01*
X202889766Y-53786066D01*
X202979432Y-53651756D01*
X203077610Y-53521537D01*
X203186804Y-53391777D01*
X203247710Y-53324421D01*
X203407129Y-53162796D01*
X203574772Y-53013804D01*
X203750090Y-52877746D01*
X203932536Y-52754928D01*
X204121560Y-52645652D01*
X204316615Y-52550220D01*
X204517151Y-52468937D01*
X204722620Y-52402106D01*
X204932474Y-52350030D01*
X205050766Y-52327584D01*
X205120353Y-52316159D01*
X205182360Y-52306896D01*
X205239747Y-52299576D01*
X205295475Y-52293981D01*
X205352504Y-52289891D01*
X205413795Y-52287087D01*
X205482309Y-52285350D01*
X205561007Y-52284460D01*
X205636920Y-52284208D01*
X205720633Y-52284302D01*
X205791573Y-52284878D01*
X205852595Y-52286124D01*
X205906555Y-52288229D01*
X205956308Y-52291381D01*
X206004710Y-52295769D01*
X206054615Y-52301582D01*
X206108878Y-52309008D01*
X206170356Y-52318235D01*
X206183997Y-52320349D01*
X206400807Y-52361604D01*
X206610912Y-52416890D01*
X206814388Y-52486252D01*
X207011310Y-52569733D01*
X207201755Y-52667376D01*
X207385798Y-52779225D01*
X207563517Y-52905322D01*
X207734986Y-53045712D01*
X207900282Y-53200437D01*
X208059481Y-53369541D01*
X208092469Y-53407259D01*
X208237511Y-53586633D01*
X208368871Y-53772868D01*
X208486338Y-53965513D01*
X208589700Y-54164113D01*
X208678746Y-54368216D01*
X208753266Y-54577369D01*
X208813048Y-54791120D01*
X208857882Y-55009014D01*
X208867641Y-55070131D01*
X208886739Y-55231391D01*
X208897307Y-55400242D01*
X208899427Y-55572791D01*
X209617123Y-55572791D01*
X209617084Y-55522304D01*
X209616157Y-55442579D01*
X209614406Y-55364534D01*
X209611874Y-55291418D01*
X209608604Y-55226479D01*
X209604637Y-55172965D01*
X209603358Y-55160008D01*
X209572638Y-54925593D01*
X209530961Y-54700734D01*
X209477711Y-54483260D01*
X209412266Y-54271002D01*
X209334006Y-54061790D01*
X209242313Y-53853452D01*
X209212840Y-53792316D01*
X209100741Y-53580078D01*
X208977233Y-53376701D01*
X208841548Y-53181143D01*
X208692920Y-52992360D01*
X208530581Y-52809311D01*
X208370050Y-52646607D01*
X208184765Y-52477466D01*
X207994310Y-52323010D01*
X207798418Y-52183120D01*
X207596818Y-52057678D01*
X207389244Y-51946566D01*
X207175427Y-51849665D01*
X206955098Y-51766857D01*
X206727988Y-51698024D01*
X206493830Y-51643048D01*
X206252355Y-51601809D01*
X206003294Y-51574192D01*
X205922181Y-51568226D01*
X205852362Y-51564895D01*
X205770930Y-51562992D01*
X205681564Y-51562454D01*
X205587946Y-51563216D01*
G36*
X205590036Y-44241833D02*
G01*
X205548288Y-44242821D01*
X205515596Y-44244800D01*
X205488674Y-44248038D01*
X205464238Y-44252806D01*
X205443709Y-44258059D01*
X205360609Y-44288245D01*
X205288127Y-44329818D01*
X205226585Y-44382450D01*
X205176303Y-44445815D01*
X205137602Y-44519584D01*
X205112547Y-44596169D01*
X205105290Y-44635807D01*
X205099760Y-44686401D01*
X205096127Y-44743354D01*
X205094561Y-44802070D01*
X205095232Y-44857953D01*
X205098307Y-44906405D01*
X205100460Y-44924139D01*
X205119979Y-45015356D01*
X205150303Y-45095316D01*
X205191595Y-45164205D01*
X205244014Y-45222214D01*
X205307721Y-45269528D01*
X205382879Y-45306338D01*
X205444831Y-45326621D01*
X205478750Y-45333166D01*
X205524213Y-45338250D01*
X205577192Y-45341778D01*
X205633658Y-45343655D01*
X205689585Y-45343786D01*
X205740944Y-45342076D01*
X205783708Y-45338429D01*
X205804339Y-45335112D01*
X205892833Y-45310502D01*
X205969373Y-45275961D01*
X206034385Y-45231097D01*
X206088299Y-45175516D01*
X206131541Y-45108825D01*
X206164541Y-45030632D01*
X206175350Y-44994635D01*
X206183097Y-44954597D01*
X206188846Y-44899733D01*
X206192529Y-44830728D01*
X206192793Y-44822697D01*
X206194003Y-44770718D01*
X206193788Y-44729929D01*
X206191880Y-44695934D01*
X206188014Y-44664336D01*
X206181925Y-44630738D01*
X206180884Y-44625642D01*
X206156218Y-44537794D01*
X206120764Y-44461237D01*
X206074396Y-44395837D01*
X206016992Y-44341458D01*
X205948427Y-44297964D01*
X205868578Y-44265221D01*
X205844537Y-44258059D01*
X205819686Y-44251831D01*
X205795047Y-44247356D01*
X205767337Y-44244362D01*
X205733270Y-44242580D01*
X205689562Y-44241740D01*
X205644123Y-44241563D01*
X205590036Y-44241833D01*
G37*
X205590036Y-44241833D02*
X205548288Y-44242821D01*
X205515596Y-44244800D01*
X205488674Y-44248038D01*
X205464238Y-44252806D01*
X205443709Y-44258059D01*
X205360609Y-44288245D01*
X205288127Y-44329818D01*
X205226585Y-44382450D01*
X205176303Y-44445815D01*
X205137602Y-44519584D01*
X205112547Y-44596169D01*
X205105290Y-44635807D01*
X205099760Y-44686401D01*
X205096127Y-44743354D01*
X205094561Y-44802070D01*
X205095232Y-44857953D01*
X205098307Y-44906405D01*
X205100460Y-44924139D01*
X205119979Y-45015356D01*
X205150303Y-45095316D01*
X205191595Y-45164205D01*
X205244014Y-45222214D01*
X205307721Y-45269528D01*
X205382879Y-45306338D01*
X205444831Y-45326621D01*
X205478750Y-45333166D01*
X205524213Y-45338250D01*
X205577192Y-45341778D01*
X205633658Y-45343655D01*
X205689585Y-45343786D01*
X205740944Y-45342076D01*
X205783708Y-45338429D01*
X205804339Y-45335112D01*
X205892833Y-45310502D01*
X205969373Y-45275961D01*
X206034385Y-45231097D01*
X206088299Y-45175516D01*
X206131541Y-45108825D01*
X206164541Y-45030632D01*
X206175350Y-44994635D01*
X206183097Y-44954597D01*
X206188846Y-44899733D01*
X206192529Y-44830728D01*
X206192793Y-44822697D01*
X206194003Y-44770718D01*
X206193788Y-44729929D01*
X206191880Y-44695934D01*
X206188014Y-44664336D01*
X206181925Y-44630738D01*
X206180884Y-44625642D01*
X206156218Y-44537794D01*
X206120764Y-44461237D01*
X206074396Y-44395837D01*
X206016992Y-44341458D01*
X205948427Y-44297964D01*
X205868578Y-44265221D01*
X205844537Y-44258059D01*
X205819686Y-44251831D01*
X205795047Y-44247356D01*
X205767337Y-44244362D01*
X205733270Y-44242580D01*
X205689562Y-44241740D01*
X205644123Y-44241563D01*
X205590036Y-44241833D01*
G36*
X205829405Y-45565139D02*
G01*
X205695476Y-45565195D01*
X205648593Y-45565202D01*
X205495426Y-45565283D01*
X205356073Y-45565512D01*
X205230725Y-45565884D01*
X205119571Y-45566400D01*
X205022800Y-45567057D01*
X204940602Y-45567853D01*
X204873166Y-45568787D01*
X204820683Y-45569857D01*
X204783342Y-45571062D01*
X204761332Y-45572399D01*
X204755691Y-45573228D01*
X204713019Y-45591738D01*
X204670441Y-45621845D01*
X204631744Y-45659953D01*
X204600713Y-45702471D01*
X204584506Y-45735737D01*
X204582753Y-45742800D01*
X204581177Y-45754637D01*
X204579765Y-45772068D01*
X204578505Y-45795912D01*
X204577385Y-45826989D01*
X204576392Y-45866118D01*
X204575514Y-45914118D01*
X204574739Y-45971811D01*
X204574054Y-46040013D01*
X204573447Y-46119547D01*
X204572905Y-46211230D01*
X204572417Y-46315883D01*
X204571970Y-46434324D01*
X204571551Y-46567374D01*
X204571451Y-46602650D01*
X204569102Y-47440850D01*
X205022800Y-47440850D01*
X205022800Y-49371250D01*
X206257569Y-49371250D01*
X206261539Y-47444758D01*
X206719145Y-47440614D01*
X206716967Y-46602532D01*
X206716650Y-46466036D01*
X206716401Y-46344265D01*
X206716145Y-46236316D01*
X206715805Y-46141284D01*
X206715309Y-46058266D01*
X206714581Y-45986356D01*
X206713546Y-45924651D01*
X206712129Y-45872246D01*
X206710257Y-45828237D01*
X206707853Y-45791721D01*
X206704844Y-45761791D01*
X206701155Y-45737545D01*
X206696710Y-45718078D01*
X206691435Y-45702486D01*
X206685255Y-45689864D01*
X206678096Y-45679309D01*
X206669883Y-45669916D01*
X206660540Y-45660780D01*
X206649994Y-45650998D01*
X206638170Y-45639665D01*
X206637292Y-45638790D01*
X206626543Y-45627616D01*
X206617285Y-45617626D01*
X206608630Y-45608755D01*
X206599694Y-45600937D01*
X206589589Y-45594105D01*
X206577431Y-45588194D01*
X206562333Y-45583138D01*
X206543410Y-45578870D01*
X206519775Y-45575326D01*
X206490543Y-45572439D01*
X206454828Y-45570142D01*
X206411743Y-45568371D01*
X206360404Y-45567059D01*
X206299924Y-45566141D01*
X206229417Y-45565549D01*
X206147997Y-45565219D01*
X206054779Y-45565085D01*
X205948877Y-45565080D01*
X205829405Y-45565139D01*
G37*
X205829405Y-45565139D02*
X205695476Y-45565195D01*
X205648593Y-45565202D01*
X205495426Y-45565283D01*
X205356073Y-45565512D01*
X205230725Y-45565884D01*
X205119571Y-45566400D01*
X205022800Y-45567057D01*
X204940602Y-45567853D01*
X204873166Y-45568787D01*
X204820683Y-45569857D01*
X204783342Y-45571062D01*
X204761332Y-45572399D01*
X204755691Y-45573228D01*
X204713019Y-45591738D01*
X204670441Y-45621845D01*
X204631744Y-45659953D01*
X204600713Y-45702471D01*
X204584506Y-45735737D01*
X204582753Y-45742800D01*
X204581177Y-45754637D01*
X204579765Y-45772068D01*
X204578505Y-45795912D01*
X204577385Y-45826989D01*
X204576392Y-45866118D01*
X204575514Y-45914118D01*
X204574739Y-45971811D01*
X204574054Y-46040013D01*
X204573447Y-46119547D01*
X204572905Y-46211230D01*
X204572417Y-46315883D01*
X204571970Y-46434324D01*
X204571551Y-46567374D01*
X204571451Y-46602650D01*
X204569102Y-47440850D01*
X205022800Y-47440850D01*
X205022800Y-49371250D01*
X206257569Y-49371250D01*
X206261539Y-47444758D01*
X206719145Y-47440614D01*
X206716967Y-46602532D01*
X206716650Y-46466036D01*
X206716401Y-46344265D01*
X206716145Y-46236316D01*
X206715805Y-46141284D01*
X206715309Y-46058266D01*
X206714581Y-45986356D01*
X206713546Y-45924651D01*
X206712129Y-45872246D01*
X206710257Y-45828237D01*
X206707853Y-45791721D01*
X206704844Y-45761791D01*
X206701155Y-45737545D01*
X206696710Y-45718078D01*
X206691435Y-45702486D01*
X206685255Y-45689864D01*
X206678096Y-45679309D01*
X206669883Y-45669916D01*
X206660540Y-45660780D01*
X206649994Y-45650998D01*
X206638170Y-45639665D01*
X206637292Y-45638790D01*
X206626543Y-45627616D01*
X206617285Y-45617626D01*
X206608630Y-45608755D01*
X206599694Y-45600937D01*
X206589589Y-45594105D01*
X206577431Y-45588194D01*
X206562333Y-45583138D01*
X206543410Y-45578870D01*
X206519775Y-45575326D01*
X206490543Y-45572439D01*
X206454828Y-45570142D01*
X206411743Y-45568371D01*
X206360404Y-45567059D01*
X206299924Y-45566141D01*
X206229417Y-45565549D01*
X206147997Y-45565219D01*
X206054779Y-45565085D01*
X205948877Y-45565080D01*
X205829405Y-45565139D01*
G36*
X205388714Y-42836928D02*
G01*
X205135536Y-42858369D01*
X204888592Y-42894058D01*
X204647975Y-42943960D01*
X204413780Y-43008037D01*
X204186102Y-43086254D01*
X203965035Y-43178572D01*
X203750673Y-43284957D01*
X203543112Y-43405370D01*
X203342446Y-43539776D01*
X203148768Y-43688138D01*
X202962174Y-43850420D01*
X202924369Y-43885817D01*
X202742394Y-44067683D01*
X202575246Y-44254289D01*
X202422750Y-44445990D01*
X202284732Y-44643138D01*
X202161015Y-44846086D01*
X202051426Y-45055188D01*
X201955788Y-45270797D01*
X201873928Y-45493267D01*
X201805670Y-45722950D01*
X201750838Y-45960199D01*
X201709259Y-46205369D01*
X201688061Y-46380737D01*
X201683734Y-46434194D01*
X201680163Y-46500286D01*
X201677363Y-46576178D01*
X201675346Y-46659039D01*
X201674127Y-46746034D01*
X201673719Y-46834330D01*
X201674135Y-46921094D01*
X201675390Y-47003493D01*
X201677495Y-47078692D01*
X201680466Y-47143859D01*
X201684174Y-47194666D01*
X201713874Y-47442267D01*
X201755744Y-47680464D01*
X201810021Y-47909946D01*
X201876941Y-48131404D01*
X201956742Y-48345529D01*
X202049659Y-48553010D01*
X202155930Y-48754538D01*
X202275790Y-48950803D01*
X202297246Y-48983262D01*
X202424721Y-49161498D01*
X202566188Y-49336219D01*
X202720152Y-49506024D01*
X202885116Y-49669511D01*
X203059585Y-49825278D01*
X203242065Y-49971924D01*
X203431058Y-50108048D01*
X203625071Y-50232249D01*
X203638746Y-50240428D01*
X203691516Y-50270721D01*
X203754386Y-50305010D01*
X203823452Y-50341309D01*
X203894808Y-50377630D01*
X203964550Y-50411987D01*
X204028773Y-50442393D01*
X204083573Y-50466861D01*
X204084954Y-50467450D01*
X204302809Y-50552593D01*
X204524244Y-50623857D01*
X204750521Y-50681540D01*
X204982898Y-50725940D01*
X205222637Y-50757352D01*
X205368142Y-50769921D01*
X205423184Y-50772874D01*
X205490121Y-50774982D01*
X205565238Y-50776250D01*
X205644823Y-50776684D01*
X205725160Y-50776288D01*
X205802538Y-50775066D01*
X205873242Y-50773025D01*
X205933560Y-50770168D01*
X205948923Y-50769163D01*
X206194641Y-50744184D01*
X206435440Y-50704384D01*
X206671199Y-50649822D01*
X206901793Y-50580554D01*
X207127099Y-50496637D01*
X207346996Y-50398129D01*
X207561359Y-50285085D01*
X207770067Y-50157565D01*
X207972995Y-50015624D01*
X208170021Y-49859320D01*
X208361022Y-49688709D01*
X208438683Y-49613527D01*
X208616112Y-49427717D01*
X208778978Y-49236269D01*
X208927331Y-49039093D01*
X209061222Y-48836095D01*
X209180702Y-48627185D01*
X209285821Y-48412271D01*
X209376631Y-48191261D01*
X209453181Y-47964062D01*
X209515523Y-47730585D01*
X209539639Y-47620085D01*
X209562577Y-47498268D01*
X209580903Y-47380000D01*
X209595031Y-47261333D01*
X209605375Y-47138319D01*
X209612348Y-47007009D01*
X209615782Y-46893117D01*
X209615106Y-46766811D01*
X208900308Y-46766811D01*
X208895814Y-46987277D01*
X208877163Y-47207674D01*
X208871506Y-47253281D01*
X208835767Y-47466764D01*
X208785063Y-47675914D01*
X208719508Y-47880511D01*
X208639217Y-48080334D01*
X208544305Y-48275163D01*
X208434886Y-48464777D01*
X208311075Y-48648956D01*
X208172987Y-48827479D01*
X208020736Y-49000126D01*
X207897896Y-49125066D01*
X207753381Y-49259130D01*
X207609096Y-49379676D01*
X207462447Y-49488557D01*
X207310841Y-49587627D01*
X207151684Y-49678743D01*
X207050892Y-49730659D01*
X206874168Y-49812236D01*
X206699543Y-49880395D01*
X206523680Y-49936136D01*
X206343246Y-49980460D01*
X206154904Y-50014365D01*
X206062246Y-50027043D01*
X206014583Y-50032909D01*
X205974278Y-50037636D01*
X205938853Y-50041332D01*
X205905831Y-50044104D01*
X205872734Y-50046060D01*
X205837084Y-50047306D01*
X205796404Y-50047950D01*
X205748215Y-50048099D01*
X205690040Y-50047860D01*
X205619400Y-50047340D01*
X205597231Y-50047160D01*
X205503087Y-50045976D01*
X205422908Y-50044036D01*
X205355045Y-50041270D01*
X205297848Y-50037608D01*
X205249665Y-50032978D01*
X205241631Y-50032013D01*
X205022209Y-49997742D01*
X204809814Y-49950200D01*
X204603989Y-49889157D01*
X204404280Y-49814384D01*
X204210233Y-49725651D01*
X204021390Y-49622727D01*
X203837299Y-49505384D01*
X203657503Y-49373391D01*
X203481548Y-49226519D01*
X203308979Y-49064537D01*
X203291676Y-49047285D01*
X203143456Y-48889868D01*
X203009677Y-48728979D01*
X202889916Y-48563734D01*
X202783749Y-48393248D01*
X202690753Y-48216637D01*
X202610506Y-48033017D01*
X202542583Y-47841503D01*
X202486562Y-47641211D01*
X202442020Y-47431257D01*
X202408533Y-47210756D01*
X202407036Y-47198574D01*
X202402026Y-47145748D01*
X202398053Y-47080265D01*
X202395116Y-47005046D01*
X202393217Y-46923011D01*
X202392353Y-46837078D01*
X202392526Y-46750168D01*
X202393735Y-46665202D01*
X202395980Y-46585098D01*
X202399261Y-46512776D01*
X202403577Y-46451157D01*
X202407082Y-46417035D01*
X202439083Y-46201764D01*
X202481585Y-45997050D01*
X202535135Y-45801394D01*
X202600283Y-45613300D01*
X202677575Y-45431272D01*
X202767560Y-45253811D01*
X202870786Y-45079422D01*
X202929627Y-44989827D01*
X203045711Y-44830337D01*
X203175039Y-44673724D01*
X203315230Y-44522467D01*
X203463904Y-44379040D01*
X203618678Y-44245922D01*
X203721539Y-44166013D01*
X203904417Y-44039287D01*
X204092882Y-43927153D01*
X204286909Y-43829623D01*
X204486478Y-43746704D01*
X204691564Y-43678407D01*
X204902145Y-43624740D01*
X205097193Y-43588830D01*
X205162011Y-43579211D01*
X205218496Y-43571453D01*
X205269591Y-43565361D01*
X205318241Y-43560739D01*
X205367390Y-43557394D01*
X205419981Y-43555129D01*
X205478958Y-43553751D01*
X205547266Y-43553064D01*
X205627848Y-43552873D01*
X205640216Y-43552874D01*
X205732559Y-43553240D01*
X205812245Y-43554401D01*
X205882234Y-43556566D01*
X205945488Y-43559939D01*
X206004969Y-43564729D01*
X206063638Y-43571141D01*
X206124457Y-43579381D01*
X206190387Y-43589657D01*
X206206831Y-43592371D01*
X206423854Y-43636192D01*
X206634695Y-43694356D01*
X206839256Y-43766804D01*
X207037439Y-43853481D01*
X207229145Y-43954329D01*
X207414278Y-44069293D01*
X207592739Y-44198316D01*
X207764430Y-44341341D01*
X207929254Y-44498312D01*
X208087111Y-44669172D01*
X208101573Y-44685927D01*
X208247740Y-44867273D01*
X208379324Y-45053614D01*
X208496230Y-45244776D01*
X208598363Y-45440586D01*
X208685627Y-45640873D01*
X208757928Y-45845462D01*
X208778866Y-45915212D01*
X208829926Y-46120478D01*
X208867257Y-46331865D01*
X208890754Y-46547825D01*
X208900308Y-46766811D01*
X209615106Y-46766811D01*
X209614434Y-46641399D01*
X209599304Y-46396564D01*
X209570281Y-46157917D01*
X209527253Y-45924762D01*
X209470108Y-45696405D01*
X209398737Y-45472151D01*
X209379778Y-45419675D01*
X209290632Y-45200645D01*
X209187041Y-44986120D01*
X209069764Y-44776982D01*
X208939563Y-44574117D01*
X208797198Y-44378409D01*
X208643428Y-44190741D01*
X208479016Y-44011999D01*
X208304720Y-43843065D01*
X208121302Y-43684826D01*
X207929521Y-43538163D01*
X207730139Y-43403963D01*
X207558892Y-43302378D01*
X207348586Y-43193968D01*
X207131486Y-43099611D01*
X206907693Y-43019331D01*
X206677308Y-42953155D01*
X206440432Y-42901106D01*
X206197167Y-42863210D01*
X205947612Y-42839492D01*
X205691870Y-42829977D01*
X205648031Y-42829774D01*
X205388714Y-42836928D01*
G37*
X205388714Y-42836928D02*
X205135536Y-42858369D01*
X204888592Y-42894058D01*
X204647975Y-42943960D01*
X204413780Y-43008037D01*
X204186102Y-43086254D01*
X203965035Y-43178572D01*
X203750673Y-43284957D01*
X203543112Y-43405370D01*
X203342446Y-43539776D01*
X203148768Y-43688138D01*
X202962174Y-43850420D01*
X202924369Y-43885817D01*
X202742394Y-44067683D01*
X202575246Y-44254289D01*
X202422750Y-44445990D01*
X202284732Y-44643138D01*
X202161015Y-44846086D01*
X202051426Y-45055188D01*
X201955788Y-45270797D01*
X201873928Y-45493267D01*
X201805670Y-45722950D01*
X201750838Y-45960199D01*
X201709259Y-46205369D01*
X201688061Y-46380737D01*
X201683734Y-46434194D01*
X201680163Y-46500286D01*
X201677363Y-46576178D01*
X201675346Y-46659039D01*
X201674127Y-46746034D01*
X201673719Y-46834330D01*
X201674135Y-46921094D01*
X201675390Y-47003493D01*
X201677495Y-47078692D01*
X201680466Y-47143859D01*
X201684174Y-47194666D01*
X201713874Y-47442267D01*
X201755744Y-47680464D01*
X201810021Y-47909946D01*
X201876941Y-48131404D01*
X201956742Y-48345529D01*
X202049659Y-48553010D01*
X202155930Y-48754538D01*
X202275790Y-48950803D01*
X202297246Y-48983262D01*
X202424721Y-49161498D01*
X202566188Y-49336219D01*
X202720152Y-49506024D01*
X202885116Y-49669511D01*
X203059585Y-49825278D01*
X203242065Y-49971924D01*
X203431058Y-50108048D01*
X203625071Y-50232249D01*
X203638746Y-50240428D01*
X203691516Y-50270721D01*
X203754386Y-50305010D01*
X203823452Y-50341309D01*
X203894808Y-50377630D01*
X203964550Y-50411987D01*
X204028773Y-50442393D01*
X204083573Y-50466861D01*
X204084954Y-50467450D01*
X204302809Y-50552593D01*
X204524244Y-50623857D01*
X204750521Y-50681540D01*
X204982898Y-50725940D01*
X205222637Y-50757352D01*
X205368142Y-50769921D01*
X205423184Y-50772874D01*
X205490121Y-50774982D01*
X205565238Y-50776250D01*
X205644823Y-50776684D01*
X205725160Y-50776288D01*
X205802538Y-50775066D01*
X205873242Y-50773025D01*
X205933560Y-50770168D01*
X205948923Y-50769163D01*
X206194641Y-50744184D01*
X206435440Y-50704384D01*
X206671199Y-50649822D01*
X206901793Y-50580554D01*
X207127099Y-50496637D01*
X207346996Y-50398129D01*
X207561359Y-50285085D01*
X207770067Y-50157565D01*
X207972995Y-50015624D01*
X208170021Y-49859320D01*
X208361022Y-49688709D01*
X208438683Y-49613527D01*
X208616112Y-49427717D01*
X208778978Y-49236269D01*
X208927331Y-49039093D01*
X209061222Y-48836095D01*
X209180702Y-48627185D01*
X209285821Y-48412271D01*
X209376631Y-48191261D01*
X209453181Y-47964062D01*
X209515523Y-47730585D01*
X209539639Y-47620085D01*
X209562577Y-47498268D01*
X209580903Y-47380000D01*
X209595031Y-47261333D01*
X209605375Y-47138319D01*
X209612348Y-47007009D01*
X209615782Y-46893117D01*
X209615106Y-46766811D01*
X208900308Y-46766811D01*
X208895814Y-46987277D01*
X208877163Y-47207674D01*
X208871506Y-47253281D01*
X208835767Y-47466764D01*
X208785063Y-47675914D01*
X208719508Y-47880511D01*
X208639217Y-48080334D01*
X208544305Y-48275163D01*
X208434886Y-48464777D01*
X208311075Y-48648956D01*
X208172987Y-48827479D01*
X208020736Y-49000126D01*
X207897896Y-49125066D01*
X207753381Y-49259130D01*
X207609096Y-49379676D01*
X207462447Y-49488557D01*
X207310841Y-49587627D01*
X207151684Y-49678743D01*
X207050892Y-49730659D01*
X206874168Y-49812236D01*
X206699543Y-49880395D01*
X206523680Y-49936136D01*
X206343246Y-49980460D01*
X206154904Y-50014365D01*
X206062246Y-50027043D01*
X206014583Y-50032909D01*
X205974278Y-50037636D01*
X205938853Y-50041332D01*
X205905831Y-50044104D01*
X205872734Y-50046060D01*
X205837084Y-50047306D01*
X205796404Y-50047950D01*
X205748215Y-50048099D01*
X205690040Y-50047860D01*
X205619400Y-50047340D01*
X205597231Y-50047160D01*
X205503087Y-50045976D01*
X205422908Y-50044036D01*
X205355045Y-50041270D01*
X205297848Y-50037608D01*
X205249665Y-50032978D01*
X205241631Y-50032013D01*
X205022209Y-49997742D01*
X204809814Y-49950200D01*
X204603989Y-49889157D01*
X204404280Y-49814384D01*
X204210233Y-49725651D01*
X204021390Y-49622727D01*
X203837299Y-49505384D01*
X203657503Y-49373391D01*
X203481548Y-49226519D01*
X203308979Y-49064537D01*
X203291676Y-49047285D01*
X203143456Y-48889868D01*
X203009677Y-48728979D01*
X202889916Y-48563734D01*
X202783749Y-48393248D01*
X202690753Y-48216637D01*
X202610506Y-48033017D01*
X202542583Y-47841503D01*
X202486562Y-47641211D01*
X202442020Y-47431257D01*
X202408533Y-47210756D01*
X202407036Y-47198574D01*
X202402026Y-47145748D01*
X202398053Y-47080265D01*
X202395116Y-47005046D01*
X202393217Y-46923011D01*
X202392353Y-46837078D01*
X202392526Y-46750168D01*
X202393735Y-46665202D01*
X202395980Y-46585098D01*
X202399261Y-46512776D01*
X202403577Y-46451157D01*
X202407082Y-46417035D01*
X202439083Y-46201764D01*
X202481585Y-45997050D01*
X202535135Y-45801394D01*
X202600283Y-45613300D01*
X202677575Y-45431272D01*
X202767560Y-45253811D01*
X202870786Y-45079422D01*
X202929627Y-44989827D01*
X203045711Y-44830337D01*
X203175039Y-44673724D01*
X203315230Y-44522467D01*
X203463904Y-44379040D01*
X203618678Y-44245922D01*
X203721539Y-44166013D01*
X203904417Y-44039287D01*
X204092882Y-43927153D01*
X204286909Y-43829623D01*
X204486478Y-43746704D01*
X204691564Y-43678407D01*
X204902145Y-43624740D01*
X205097193Y-43588830D01*
X205162011Y-43579211D01*
X205218496Y-43571453D01*
X205269591Y-43565361D01*
X205318241Y-43560739D01*
X205367390Y-43557394D01*
X205419981Y-43555129D01*
X205478958Y-43553751D01*
X205547266Y-43553064D01*
X205627848Y-43552873D01*
X205640216Y-43552874D01*
X205732559Y-43553240D01*
X205812245Y-43554401D01*
X205882234Y-43556566D01*
X205945488Y-43559939D01*
X206004969Y-43564729D01*
X206063638Y-43571141D01*
X206124457Y-43579381D01*
X206190387Y-43589657D01*
X206206831Y-43592371D01*
X206423854Y-43636192D01*
X206634695Y-43694356D01*
X206839256Y-43766804D01*
X207037439Y-43853481D01*
X207229145Y-43954329D01*
X207414278Y-44069293D01*
X207592739Y-44198316D01*
X207764430Y-44341341D01*
X207929254Y-44498312D01*
X208087111Y-44669172D01*
X208101573Y-44685927D01*
X208247740Y-44867273D01*
X208379324Y-45053614D01*
X208496230Y-45244776D01*
X208598363Y-45440586D01*
X208685627Y-45640873D01*
X208757928Y-45845462D01*
X208778866Y-45915212D01*
X208829926Y-46120478D01*
X208867257Y-46331865D01*
X208890754Y-46547825D01*
X208900308Y-46766811D01*
X209615106Y-46766811D01*
X209614434Y-46641399D01*
X209599304Y-46396564D01*
X209570281Y-46157917D01*
X209527253Y-45924762D01*
X209470108Y-45696405D01*
X209398737Y-45472151D01*
X209379778Y-45419675D01*
X209290632Y-45200645D01*
X209187041Y-44986120D01*
X209069764Y-44776982D01*
X208939563Y-44574117D01*
X208797198Y-44378409D01*
X208643428Y-44190741D01*
X208479016Y-44011999D01*
X208304720Y-43843065D01*
X208121302Y-43684826D01*
X207929521Y-43538163D01*
X207730139Y-43403963D01*
X207558892Y-43302378D01*
X207348586Y-43193968D01*
X207131486Y-43099611D01*
X206907693Y-43019331D01*
X206677308Y-42953155D01*
X206440432Y-42901106D01*
X206197167Y-42863210D01*
X205947612Y-42839492D01*
X205691870Y-42829977D01*
X205648031Y-42829774D01*
X205388714Y-42836928D01*
D12*
%TO.C,U1*%
X215804750Y-72105000D02*
X233584750Y-72105000D01*
X215804750Y-41625000D02*
X215804750Y-72105000D01*
X220884750Y-41625000D02*
X215804750Y-41625000D01*
X220884750Y-39085000D02*
X220884750Y-41625000D01*
X228504750Y-39085000D02*
X220884750Y-39085000D01*
X228504750Y-41625000D02*
X228504750Y-39085000D01*
X233584750Y-41625000D02*
X228504750Y-41625000D01*
X233584750Y-41625000D02*
X233584750Y-72105000D01*
%TD*%
M02*
