M48
; DRILL file {KiCad (5.1.9)-1} date 03/01/21 21:33:41
; FORMAT={-:-/ absolute / inch / decimal}
; #@! TF.CreationDate,2021-03-01T21:33:41-08:00
; #@! TF.GenerationSoftware,Kicad,Pcbnew,(5.1.9)-1
; #@! TF.FileFunction,Plated,1,2,PTH
FMAT,2
INCH
T1C0.0157
T2C0.0295
T3C0.0315
T4C0.0354
T5C0.0394
T6C0.0433
T7C0.0512
T8C0.0591
%
G90
G05
T1
X8.0962Y-3.1562
X8.0962Y-3.9062
X8.0962Y-4.6562
X8.4075Y-2.6375
X8.4287Y-2.2575
X8.4637Y-2.2225
X8.4887Y-2.6375
X8.6237Y-2.5925
X8.6523Y-2.5325
X8.8598Y-3.1575
X8.8598Y-3.9075
X8.8598Y-4.6575
X9.0717Y-3.3095
X9.0717Y-4.0595
X9.0717Y-4.8095
T2
X9.5962Y-1.9187
X9.5962Y-1.9688
X9.5962Y-2.0187
T3
X7.9463Y-2.4062
X7.9463Y-3.1562
X7.9463Y-3.9062
X7.9463Y-4.6562
X8.2462Y-2.4062
X8.2462Y-3.1562
X8.2462Y-3.9062
X8.2462Y-4.6562
X8.6962Y-2.4062
X8.6962Y-3.1562
X8.6962Y-3.9062
X8.6962Y-4.6562
X8.9962Y-2.4062
X8.9962Y-3.1562
X8.9962Y-3.9062
X8.9962Y-4.6562
X9.4462Y-2.2188
X9.4462Y-2.4062
X9.4462Y-3.1562
X9.4462Y-3.9062
X9.4462Y-4.6562
X9.7462Y-2.2188
X9.7462Y-2.4062
X9.7462Y-3.1562
X9.7462Y-3.9062
X9.7462Y-4.6562
T4
X8.0461Y-2.5812
X8.0461Y-3.3312
X8.0461Y-4.0812
X8.0461Y-4.8312
X8.1461Y-2.5812
X8.1461Y-3.3312
X8.1461Y-4.0812
X8.1461Y-4.8312
X8.7961Y-2.5812
X8.7961Y-3.3312
X8.7961Y-4.0812
X8.7961Y-4.8312
X8.8961Y-2.5812
X8.8961Y-3.3312
X8.8961Y-4.0812
X8.8961Y-4.8312
X9.5461Y-2.5812
X9.5461Y-3.3312
X9.5461Y-4.0812
X9.5461Y-4.8312
X9.6461Y-2.5812
X9.6461Y-3.3312
X9.6461Y-4.0812
X9.6461Y-4.8312
T5
X7.7212Y-2.9562
X7.7212Y-3.1562
X7.7212Y-3.7062
X7.7212Y-3.9062
X7.7212Y-4.4562
X7.7212Y-4.6562
X7.7212Y-4.9312
X7.7212Y-5.1312
X7.801Y-1.9328
X7.801Y-2.0312
X7.801Y-2.1297
X8.3718Y-1.9328
X8.3718Y-2.1297
X8.4712Y-2.9562
X8.4712Y-3.1562
X8.4712Y-3.7062
X8.4712Y-3.9062
X8.4712Y-4.4562
X8.4712Y-4.6562
X8.4712Y-4.9312
X8.4712Y-5.1312
X9.2212Y-2.9562
X9.2212Y-3.1562
X9.2212Y-3.7062
X9.2212Y-3.9062
X9.2212Y-4.4562
X9.2212Y-4.6562
X9.2212Y-4.9312
X9.2212Y-5.1312
X9.5077Y-1.6444
X9.6848Y-1.6444
T6
X8.5463Y-1.6888
X8.5463Y-1.7888
X8.5463Y-1.8888
X8.5463Y-1.9888
X8.5463Y-2.0888
X8.5463Y-2.1888
X8.5463Y-2.2888
X8.5463Y-2.3888
X8.5463Y-2.4888
X8.5463Y-2.5888
X8.5463Y-2.6888
X8.5463Y-2.7888
X9.1463Y-1.6888
X9.1463Y-1.7888
X9.1463Y-1.8888
X9.1463Y-1.9888
X9.1463Y-2.0888
X9.1463Y-2.1888
X9.1463Y-2.2888
X9.1463Y-2.3888
X9.1463Y-2.4888
X9.1463Y-2.5888
X9.1463Y-2.6888
X9.1463Y-2.7888
T7
X9.4585Y-1.7429
X9.734Y-1.7429
T8
X7.9962Y-2.9812
X7.9962Y-3.7312
X7.9962Y-4.4813
X7.9962Y-5.2313
X8.2462Y-2.8813
X8.2462Y-3.6313
X8.2462Y-4.3812
X8.2462Y-5.1312
X8.7462Y-2.9812
X8.7462Y-3.7312
X8.7462Y-4.4813
X8.7462Y-5.2313
X8.9962Y-2.8813
X8.9962Y-3.6313
X8.9962Y-4.3812
X8.9962Y-5.1312
X9.4962Y-2.9812
X9.4962Y-3.7312
X9.4962Y-4.4813
X9.4962Y-5.2313
X9.7462Y-2.8813
X9.7462Y-3.6313
X9.7462Y-4.3812
X9.7462Y-5.1312
T8
G00X8.0707Y-1.8108
M15
G01X8.1218Y-1.8108
M16
G05
G00X8.0707Y-2.2517
M15
G01X8.1218Y-2.2517
M16
G05
T0
M30
