M48
; DRILL file {KiCad (5.1.9)-1} date 03/01/21 21:33:41
; FORMAT={-:-/ absolute / inch / decimal}
; #@! TF.CreationDate,2021-03-01T21:33:41-08:00
; #@! TF.GenerationSoftware,Kicad,Pcbnew,(5.1.9)-1
; #@! TF.FileFunction,NonPlated,1,2,NPTH
FMAT,2
INCH
T1C0.0669
T2C0.1260
T3C0.1575
%
G90
G05
T1
X7.8963Y-2.7812
X7.8963Y-3.5312
X7.8963Y-4.2812
X7.8963Y-5.0312
X8.2963Y-2.7812
X8.2963Y-3.5312
X8.2963Y-4.2812
X8.2963Y-5.0312
X8.6463Y-2.7812
X8.6463Y-3.5312
X8.6463Y-4.2812
X8.6463Y-5.0312
X9.0463Y-2.7812
X9.0463Y-3.5312
X9.0463Y-4.2812
X9.0463Y-5.0312
X9.3963Y-2.7812
X9.3963Y-3.5312
X9.3963Y-4.2812
X9.3963Y-5.0312
X9.7963Y-2.7812
X9.7963Y-3.5312
X9.7963Y-4.2812
X9.7963Y-5.0312
T2
X7.7212Y-1.6562
X7.7212Y-5.4062
X9.9688Y-1.6562
X9.9688Y-5.4062
T3
X8.0962Y-2.7812
X8.0962Y-3.5312
X8.0962Y-4.2812
X8.0962Y-5.0312
X8.8462Y-2.7812
X8.8462Y-3.5312
X8.8462Y-4.2812
X8.8462Y-5.0312
X9.5962Y-2.7812
X9.5962Y-3.5312
X9.5962Y-4.2812
X9.5962Y-5.0312
T0
M30
