%TF.GenerationSoftware,KiCad,Pcbnew,(5.1.9)-1*%
%TF.CreationDate,2021-03-01T21:33:36-08:00*%
%TF.ProjectId,numpad,6e756d70-6164-42e6-9b69-6361645f7063,rev?*%
%TF.SameCoordinates,Original*%
%TF.FileFunction,Soldermask,Top*%
%TF.FilePolarity,Negative*%
%FSLAX46Y46*%
G04 Gerber Fmt 4.6, Leading zero omitted, Abs format (unit mm)*
G04 Created by KiCad (PCBNEW (5.1.9)-1) date 2021-03-01 21:33:36*
%MOMM*%
%LPD*%
G01*
G04 APERTURE LIST*
%ADD10R,2.000000X2.000000*%
%ADD11C,2.000000*%
%ADD12R,3.200000X2.000000*%
%ADD13C,1.700000*%
%ADD14C,4.000000*%
%ADD15C,2.200000*%
%ADD16C,1.600000*%
%ADD17R,1.600000X1.600000*%
%ADD18C,1.800000*%
%ADD19R,1.800000X1.800000*%
%ADD20O,1.600000X1.600000*%
%ADD21O,1.500000X1.050000*%
%ADD22R,1.500000X1.050000*%
%ADD23O,2.000000X2.000000*%
%ADD24C,3.200000*%
G04 APERTURE END LIST*
D10*
%TO.C,SW1*%
X198144858Y-49093750D03*
D11*
X198144858Y-51593750D03*
X198144858Y-54093750D03*
D12*
X205644858Y-45993750D03*
X205644858Y-57193750D03*
D11*
X212644858Y-49093750D03*
X212644858Y-54093750D03*
%TD*%
D13*
%TO.C,K1*%
X200564750Y-70643750D03*
X210724750Y-70643750D03*
D14*
X205644750Y-70643750D03*
D15*
X209454750Y-73183750D03*
X203104750Y-75723750D03*
%TD*%
D13*
%TO.C,K2*%
X219614750Y-70643750D03*
X229774750Y-70643750D03*
D14*
X224694750Y-70643750D03*
D15*
X228504750Y-73183750D03*
X222154750Y-75723750D03*
%TD*%
D13*
%TO.C,K3*%
X238664750Y-70643750D03*
X248824750Y-70643750D03*
D14*
X243744750Y-70643750D03*
D15*
X247554750Y-73183750D03*
X241204750Y-75723750D03*
%TD*%
D13*
%TO.C,K4*%
X200564750Y-89693750D03*
X210724750Y-89693750D03*
D14*
X205644750Y-89693750D03*
D15*
X209454750Y-92233750D03*
X203104750Y-94773750D03*
%TD*%
%TO.C,K5*%
X222154750Y-94773750D03*
X228504750Y-92233750D03*
D14*
X224694750Y-89693750D03*
D13*
X229774750Y-89693750D03*
X219614750Y-89693750D03*
%TD*%
%TO.C,K6*%
X238664750Y-89693750D03*
X248824750Y-89693750D03*
D14*
X243744750Y-89693750D03*
D15*
X247554750Y-92233750D03*
X241204750Y-94773750D03*
%TD*%
%TO.C,K7*%
X203104750Y-113823750D03*
X209454750Y-111283750D03*
D14*
X205644750Y-108743750D03*
D13*
X210724750Y-108743750D03*
X200564750Y-108743750D03*
%TD*%
%TO.C,K8*%
X219614750Y-108743750D03*
X229774750Y-108743750D03*
D14*
X224694750Y-108743750D03*
D15*
X228504750Y-111283750D03*
X222154750Y-113823750D03*
%TD*%
%TO.C,K9*%
X241204750Y-113823750D03*
X247554750Y-111283750D03*
D14*
X243744750Y-108743750D03*
D13*
X248824750Y-108743750D03*
X238664750Y-108743750D03*
%TD*%
%TO.C,K10*%
X200564750Y-127793750D03*
X210724750Y-127793750D03*
D14*
X205644750Y-127793750D03*
D15*
X209454750Y-130333750D03*
X203104750Y-132873750D03*
%TD*%
D13*
%TO.C,K11*%
X219614750Y-127793750D03*
X229774750Y-127793750D03*
D14*
X224694750Y-127793750D03*
D15*
X228504750Y-130333750D03*
X222154750Y-132873750D03*
%TD*%
%TO.C,K12*%
X241204750Y-132873750D03*
X247554750Y-130333750D03*
D14*
X243744750Y-127793750D03*
D13*
X248824750Y-127793750D03*
X238664750Y-127793750D03*
%TD*%
D16*
%TO.C,U1*%
X217074750Y-42895000D03*
X217074750Y-45435000D03*
X217074750Y-47975000D03*
X217074750Y-50515000D03*
X217074750Y-53055000D03*
X217074750Y-55595000D03*
X217074750Y-58135000D03*
X217074750Y-60675000D03*
X217074750Y-63215000D03*
X217074750Y-65755000D03*
X217074750Y-68295000D03*
X217074750Y-70835000D03*
X232314750Y-70835000D03*
X232314750Y-68295000D03*
X232314750Y-65755000D03*
X232314750Y-63215000D03*
X232314750Y-60675000D03*
X232314750Y-58135000D03*
X232314750Y-55595000D03*
X232314750Y-53055000D03*
X232314750Y-50515000D03*
X232314750Y-47975000D03*
X232314750Y-45435000D03*
D17*
X232314750Y-42895000D03*
%TD*%
D18*
%TO.C,D13*%
X206909750Y-65563750D03*
D19*
X204369750Y-65563750D03*
%TD*%
%TO.C,D14*%
X223419750Y-65563750D03*
D18*
X225959750Y-65563750D03*
%TD*%
%TO.C,D15*%
X245009750Y-65563750D03*
D19*
X242469750Y-65563750D03*
%TD*%
%TO.C,D16*%
X204369750Y-84613750D03*
D18*
X206909750Y-84613750D03*
%TD*%
%TO.C,D17*%
X225959750Y-84613750D03*
D19*
X223419750Y-84613750D03*
%TD*%
%TO.C,D18*%
X242469750Y-84613750D03*
D18*
X245009750Y-84613750D03*
%TD*%
%TO.C,D19*%
X206909750Y-103663750D03*
D19*
X204369750Y-103663750D03*
%TD*%
%TO.C,D20*%
X223419750Y-103663750D03*
D18*
X225959750Y-103663750D03*
%TD*%
%TO.C,D21*%
X245009750Y-103663750D03*
D19*
X242469750Y-103663750D03*
%TD*%
%TO.C,D22*%
X204369750Y-122713750D03*
D18*
X206909750Y-122713750D03*
%TD*%
D19*
%TO.C,D23*%
X223419750Y-122713750D03*
D18*
X225959750Y-122713750D03*
%TD*%
%TO.C,D24*%
X245009750Y-122713750D03*
D19*
X242469750Y-122713750D03*
%TD*%
D16*
%TO.C,R0*%
X239934750Y-56356250D03*
D20*
X247554750Y-56356250D03*
%TD*%
%TO.C,R1*%
X209454750Y-61118750D03*
D16*
X201834750Y-61118750D03*
%TD*%
%TO.C,R2*%
X220884750Y-61118750D03*
D20*
X228504750Y-61118750D03*
%TD*%
D16*
%TO.C,R3*%
X239934750Y-61118750D03*
D20*
X247554750Y-61118750D03*
%TD*%
%TO.C,R4*%
X209454750Y-80168750D03*
D16*
X201834750Y-80168750D03*
%TD*%
%TO.C,R5*%
X220884750Y-80168750D03*
D20*
X228504750Y-80168750D03*
%TD*%
%TO.C,R6*%
X247554750Y-80168750D03*
D16*
X239934750Y-80168750D03*
%TD*%
%TO.C,R7*%
X201834750Y-99218750D03*
D20*
X209454750Y-99218750D03*
%TD*%
%TO.C,R8*%
X228504750Y-99218750D03*
D16*
X220884750Y-99218750D03*
%TD*%
D20*
%TO.C,R9*%
X247554750Y-99218750D03*
D16*
X239934750Y-99218750D03*
%TD*%
%TO.C,R10*%
X201834750Y-118268750D03*
D20*
X209454750Y-118268750D03*
%TD*%
%TO.C,R11*%
X228504750Y-118268750D03*
D16*
X220884750Y-118268750D03*
%TD*%
%TO.C,R12*%
X239934750Y-118268750D03*
D20*
X247554750Y-118268750D03*
%TD*%
D13*
%TO.C,SW0*%
X241494750Y-41768750D03*
X245994750Y-41768750D03*
D15*
X240244750Y-44268750D03*
X247244750Y-44268750D03*
%TD*%
D21*
%TO.C,U2*%
X243744750Y-50006250D03*
X243744750Y-48736250D03*
D22*
X243744750Y-51276250D03*
%TD*%
D10*
%TO.C,D1*%
X196119750Y-80168750D03*
D23*
X196119750Y-75088750D03*
%TD*%
D10*
%TO.C,D2*%
X215169750Y-80168750D03*
D23*
X215169750Y-75088750D03*
%TD*%
%TO.C,D3*%
X234219750Y-75088750D03*
D10*
X234219750Y-80168750D03*
%TD*%
%TO.C,D4*%
X196119750Y-99218750D03*
D23*
X196119750Y-94138750D03*
%TD*%
%TO.C,D5*%
X215169750Y-94138750D03*
D10*
X215169750Y-99218750D03*
%TD*%
%TO.C,D6*%
X234219750Y-99218750D03*
D23*
X234219750Y-94138750D03*
%TD*%
%TO.C,D7*%
X196119750Y-113188750D03*
D10*
X196119750Y-118268750D03*
%TD*%
%TO.C,D8*%
X215169750Y-118268750D03*
D23*
X215169750Y-113188750D03*
%TD*%
%TO.C,D9*%
X234219750Y-113188750D03*
D10*
X234219750Y-118268750D03*
%TD*%
%TO.C,D10*%
X196119750Y-130333750D03*
D23*
X196119750Y-125253750D03*
%TD*%
%TO.C,D11*%
X215169750Y-125253750D03*
D10*
X215169750Y-130333750D03*
%TD*%
D23*
%TO.C,D12*%
X234219750Y-125253750D03*
D10*
X234219750Y-130333750D03*
%TD*%
D24*
%TO.C,H1*%
X196119750Y-42068750D03*
%TD*%
%TO.C,H2*%
X253206250Y-42068750D03*
%TD*%
%TO.C,H3*%
X196119750Y-137318750D03*
%TD*%
%TO.C,H4*%
X253206250Y-137318750D03*
%TD*%
M02*
