<?xml version="1.0" encoding="UTF-8" standalone="no"?>
<svg
   xmlns:dc="http://purl.org/dc/elements/1.1/"
   xmlns:cc="http://creativecommons.org/ns#"
   xmlns:rdf="http://www.w3.org/1999/02/22-rdf-syntax-ns#"
   xmlns:svg="http://www.w3.org/2000/svg"
   xmlns="http://www.w3.org/2000/svg"
   xmlns:sodipodi="http://sodipodi.sourceforge.net/DTD/sodipodi-0.dtd"
   xmlns:inkscape="http://www.inkscape.org/namespaces/inkscape"
   inkscape:version="1.0 (4035a4fb49, 2020-05-01)"
   sodipodi:docname="numpad.svg"
   id="svg30"
   version="1.1"
   viewBox="0.000 0.000 73.152 111.252"
   height="111.252mm"
   width="73.152mm">
  <metadata
     id="metadata36">
    <rdf:RDF>
      <cc:Work
         rdf:about="">
        <dc:format>image/svg+xml</dc:format>
        <dc:type
           rdf:resource="http://purl.org/dc/dcmitype/StillImage" />
      </cc:Work>
    </rdf:RDF>
  </metadata>
  <defs
     id="defs34" />
  <sodipodi:namedview
     inkscape:current-layer="svg30"
     inkscape:window-maximized="1"
     inkscape:window-y="-8"
     inkscape:window-x="-8"
     inkscape:cy="110.22204"
     inkscape:cx="102.46236"
     inkscape:zoom="4.627944"
     showgrid="false"
     id="namedview32"
     inkscape:window-height="837"
     inkscape:window-width="1600"
     inkscape:pageshadow="2"
     inkscape:pageopacity="0"
     guidetolerance="10"
     gridtolerance="10"
     objecttolerance="10"
     borderopacity="1"
     bordercolor="#666666"
     pagecolor="#ffffff" />
  <polygon
     id="polygon2"
     style="fill:none;stroke-width:0.050000mm;stroke:black"
     points="65.151,5.001 65.386,5.010 65.621,5.037 65.852,5.083 66.079,5.147 66.300,5.229 66.513,5.327 66.719,5.443 66.915,5.573 67.100,5.719 67.273,5.879 67.433,6.052 67.579,6.237 67.709,6.433 67.825,6.639 67.923,6.852 68.005,7.073 68.069,7.300 68.115,7.531 68.142,7.765 68.152,8.001 68.152,103.251 68.142,103.487 68.115,103.721 68.069,103.952 68.005,104.179 67.923,104.400 67.825,104.613 67.709,104.819 67.579,105.015 67.433,105.200 67.273,105.373 67.100,105.533 66.915,105.679 66.719,105.809 66.513,105.925 66.300,106.023 66.079,106.105 65.852,106.169 65.621,106.215 65.386,106.242 65.151,106.252 8.001,106.251 7.765,106.242 7.531,106.215 7.300,106.169 7.073,106.105 6.852,106.023 6.639,105.925 6.433,105.809 6.237,105.679 6.052,105.533 5.879,105.373 5.719,105.200 5.573,105.015 5.443,104.819 5.327,104.613 5.229,104.400 5.147,104.179 5.083,103.952 5.037,103.721 5.010,103.487 5.000,103.251 5.001,8.001 5.010,7.765 5.037,7.531 5.083,7.300 5.147,7.073 5.229,6.852 5.327,6.639 5.443,6.433 5.573,6.237 5.719,6.052 5.879,5.879 6.052,5.719 6.237,5.573 6.433,5.443 6.639,5.327 6.852,5.229 7.073,5.147 7.300,5.083 7.531,5.037 7.765,5.010 8.001,5.000" />
  <polygon
     id="polygon4"
     style="fill:none;stroke-width:0.050000mm;stroke:black"
     points="48.626,86.726 48.626,100.726 62.626,100.726 62.626,86.726" />
  <polygon
     id="polygon6"
     style="fill:none;stroke-width:0.050000mm;stroke:black"
     points="29.576,86.726 29.576,100.726 43.576,100.726 43.576,86.726" />
  <polygon
     id="polygon8"
     style="fill:none;stroke-width:0.050000mm;stroke:black"
     points="10.525,86.726 10.525,100.726 24.526,100.726 24.526,86.726" />
  <polygon
     id="polygon10"
     style="fill:none;stroke-width:0.050000mm;stroke:black"
     points="48.626,67.676 48.626,81.676 62.626,81.676 62.626,67.676" />
  <polygon
     id="polygon12"
     style="fill:none;stroke-width:0.050000mm;stroke:black"
     points="29.576,67.676 29.576,81.676 43.576,81.676 43.576,67.676" />
  <polygon
     id="polygon14"
     style="fill:none;stroke-width:0.050000mm;stroke:black"
     points="10.525,67.676 10.525,81.676 24.526,81.676 24.526,67.676" />
  <polygon
     id="polygon16"
     style="fill:none;stroke-width:0.050000mm;stroke:black"
     points="48.626,48.626 48.626,62.626 62.626,62.626 62.626,48.626" />
  <polygon
     id="polygon18"
     style="fill:none;stroke-width:0.050000mm;stroke:black"
     points="29.576,48.626 29.576,62.626 43.576,62.626 43.576,48.626" />
  <polygon
     id="polygon20"
     style="fill:none;stroke-width:0.050000mm;stroke:black"
     points="10.525,48.626 10.525,62.626 24.526,62.626 24.526,48.626" />
  <polygon
     id="polygon22"
     style="fill:none;stroke-width:0.050000mm;stroke:black"
     points="48.626,29.576 48.626,43.576 62.626,43.576 62.626,29.576" />
  <polygon
     id="polygon24"
     style="fill:none;stroke-width:0.050000mm;stroke:black"
     points="29.576,29.576 29.576,43.576 43.576,43.576 43.576,29.576" />
  <polygon
     id="polygon26"
     style="fill:none;stroke:#000000;stroke-width:0.05mm"
     points="10.525,43.576 24.526,43.576 24.526,29.576 10.525,29.576 " />
  <polygon
     id="polygon28"
     style="fill:none;stroke-width:0.050000mm;stroke:black"
     points="10.525,10.525 10.525,24.526 24.526,24.526 24.526,10.525" />
  <polygon
     transform="matrix(0.50000082,0,0,0.50000082,5.2152474,5.2152474)"
     points="24.526,24.526 24.526,10.525 10.525,10.525 10.525,24.526 "
     style="fill:none;stroke:#000000;stroke-width:0.05mm"
     id="polygon28-1" />
  <polygon
     id="polygon28-1-3"
     style="fill:none;stroke:#000000;stroke-width:0.05mm"
     points="24.526,10.525 10.525,10.525 10.525,24.526 24.526,24.526 "
     transform="matrix(0.50000081,0,0,0.50000081,5.2624915,24.313491)" />
</svg>
